<?xml version="1.0" encoding="UTF-8" standalone="no"?>
<svg width="347px" height="461px" viewBox="0 0 347 461" version="1.1" xmlns="http://www.w3.org/2000/svg" xmlns:xlink="http://www.w3.org/1999/xlink" xmlns:sketch="http://www.bohemiancoding.com/sketch/ns">
    <!-- Generator: Sketch 3.4.4 (17249) - http://www.bohemiancoding.com/sketch -->
    <title>hand-1</title>
    <desc>Created with Sketch.</desc>
    <defs></defs>
    <g id="Page-2" stroke="none" stroke-width="1" fill="none" fill-rule="evenodd" sketch:type="MSPage">
        <g id="Desktop-HD" sketch:type="MSArtboardGroup" transform="translate(-392.000000, -292.000000)">
            <g id="hand-1" sketch:type="MSLayerGroup" transform="translate(393.000000, 294.000000)">
                <path d="M342.596,239.9987 C341.752,236.1597 324.622,235.3057 314.07,232.9647 C312.781,232.6797 311.605,232.3767 310.515,232.0447 C310.506,232.0357 310.496,232.0357 310.487,232.0447 C302.665,229.6847 298.997,226.1767 286.322,219.6727 C271.864,212.2497 259.36,207.1687 235.527,183.3357 C222.624,170.4327 201.133,115.3437 180.816,85.6417 C160.5,55.9497 132.012,39.2077 122.987,19.4137 C121.252,15.6117 119.83,12.3887 118.702,9.7717 C116.361,4.3397 111.146,0.7187 105.25,0.3957 C91.352,-0.3813 71.69,0.2917 40.747,19.8877 C14.505,36.4967 5.613,57.9407 1.442,68.5877 C-0.492,73.5267 0.607,79.1387 4.238,83.0257 C7.016,86.0117 10.808,89.8897 15.444,94.1747 C28.574,106.3087 45.145,122.2927 51.469,143.9457 C57.782,165.5887 67.898,222.9727 78.639,252.1147 C89.389,281.2467 97.599,303.3737 108.35,317.9067 C119.091,332.4397 119.252,328.1737 124.94,340.9727 C129.813,351.9317 131.899,359.6577 134.781,365.2127 C135.264,366.1517 135.776,367.0237 136.316,367.8387 C136.8,368.5687 137.236,369.2417 137.625,369.8777 C140.279,374.2197 141.104,377.0067 145.323,385.8517 C148.887,393.3317 151.21,402.1097 155.41,406.3577 C157.135,408.1207 159.173,409.1067 161.752,408.9167 C165.041,408.6797 167.544,407.0207 169.203,404.8877 C169.213,404.8687 169.232,404.8597 169.241,404.8407 C173.412,399.4267 166.634,386.5717 166.255,385.8797 C172,394.3077 176.73,402.2237 180.712,407.3337 C185.139,413.0217 191.453,422.8247 194.932,429.1377 C197.037,432.9677 200.933,436.7607 204.697,439.1677 C204.744,439.2057 204.782,439.2347 204.82,439.2537 C207.228,440.7897 209.579,441.7467 211.362,441.7847 C215.059,441.8507 217.6,440.3337 219.164,438.8837 C219.183,438.8747 219.192,438.8647 219.211,438.8457 C219.297,438.7607 219.382,438.6757 219.467,438.5997 C219.486,438.5897 219.496,438.5707 219.505,438.5517 C220.643,437.4147 221.164,436.4097 221.164,436.4097 C223.07,441.9937 225.098,447.5387 228.037,451.1797 C228.758,452.0707 229.621,452.9237 230.588,453.6917 C230.701,453.7767 230.806,453.8627 230.919,453.9477 C235.726,457.6067 242.95,459.3227 248.439,454.7157 C248.448,454.7067 248.458,454.7067 248.467,454.6967 C248.789,454.4317 249.112,454.1377 249.415,453.8247 C250.155,453.0757 250.856,452.1937 251.501,451.1797 C257.009,442.5237 255.824,433.3757 252.411,422.7957 C252.705,423.6017 254.8,428.2757 263.351,427.2417 C265.124,427.0337 266.65,426.1047 267.958,424.6637 C273.239,418.8427 274.869,404.6787 274.253,395.9577 C272.983,378.1067 260.981,335.2837 253.871,312.0577 C246.761,288.8317 243.917,274.1367 242.495,252.1147 C242.333,249.6117 242.191,247.3367 242.077,245.2607 C242.077,245.2607 255.843,253.6687 271.864,261.8787 C287.886,270.0887 305.68,270.8377 326.963,261.8787 C348.787,252.6927 343.402,243.6867 342.596,239.9987" id="silo" fill="#FFFFFF" sketch:type="MSShapeGroup"></path>
                <g id="outline" stroke="#00B9D8" stroke-width="3" sketch:type="MSShapeGroup" stroke-linecap="round" stroke-linejoin="round">
                    <path d="M166.2433,385.8459 C166.2433,385.8459 173.5243,399.2749 169.2413,404.8359 C167.5803,406.9919 165.0713,408.6759 161.7533,408.9129 C152.9053,409.5449 150.3503,396.3999 145.3203,385.8449 C140.4893,375.7049 140.1063,373.5199 136.3143,367.8319 C132.5223,362.1439 130.6263,353.7699 124.9383,340.9719 C119.2503,328.1729 119.0923,332.4399 108.3483,317.9029 C97.6033,303.3669 89.3873,281.2469 78.6433,252.1049 C67.8993,222.9639 57.7873,165.5879 51.4673,143.9399 C45.1463,122.2919 28.5703,106.3039 15.4423,94.1709 C10.8083,89.8879 7.0173,86.0109 4.2353,83.0249 C0.6123,79.1369 -0.4957,73.5259 1.4433,68.5779 C5.6133,57.9349 14.5033,36.4939 40.7463,19.8809 C71.6913,0.2909 91.3563,-0.3851 105.2463,0.3869 C111.1483,0.7149 116.3593,4.3379 118.7013,9.7659 C119.8313,12.3849 121.2533,15.6089 122.9843,19.4049 C132.0103,39.2029 160.4973,55.9409 180.8173,85.6389 C201.1373,115.3369 222.6233,170.4289 235.5243,183.3309 C259.3613,207.1669 271.8653,212.2469 286.3243,219.6719 C300.7823,227.0959 303.5173,230.6129 314.0683,232.9579 C324.6193,235.3019 341.7503,236.1559 342.5943,239.9919 C343.4053,243.6809 348.7893,252.6869 326.9633,261.8749 C305.6803,270.8329 287.8873,270.0809 271.8653,261.8749 C255.8443,253.6679 242.0743,245.2549 242.0743,245.2549" id="Stroke-3"></path>
                    <path d="M127.3084,329.9114 C135.2084,339.7074 139.9484,344.7634 145.3204,354.8764 C150.6924,364.9884 157.6454,373.5204 164.2814,383.0004 C170.9174,392.4804 176.2894,401.6454 180.7134,407.3334 C185.1374,413.0214 191.4574,422.8174 194.9334,429.1374 C198.4094,435.4574 206.7664,441.6854 211.3664,441.7774 C218.3184,441.9174 221.1624,436.4054 221.1624,436.4054" id="Stroke-5"></path>
                    <path d="M238.7007,211.0929 C241.5447,226.2609 241.0707,230.0739 242.4927,252.1049 C243.9147,274.1359 246.7587,288.8309 253.8687,312.0569 C260.9787,335.2839 272.9877,378.1019 274.2517,395.9569 C275.0217,406.8319 272.2917,426.1689 263.3497,427.2419 C254.0057,428.3619 252.3737,422.6779 252.3737,422.6779" id="Stroke-7"></path>
                    <path d="M142.4767,314.4271 C154.1687,328.3311 167.1257,347.2921 173.1297,356.7721 C179.1337,366.2521 197.4617,391.2171 204.7297,403.5411 C211.9977,415.8651 213.5777,417.2871 217.1337,425.3451 C220.6887,433.4031 223.0587,445.0171 228.0357,451.1791 C233.0127,457.3411 244.8627,461.6071 251.4987,451.1791 C258.1347,440.7511 255.0537,429.6111 250.0767,416.1021 C245.0997,402.5931 243.8057,390.7431 233.1947,374.6261 C222.5847,358.5101 214.5257,338.2851 210.2597,329.9111 C205.9937,321.5371 200.7797,313.0051 194.6177,305.4211" id="Stroke-9"></path>
                    <path d="M114.5101,301.1548 C114.5101,301.1548 116.4061,311.5828 127.3081,319.1668" id="Stroke-11"></path>
                    <path d="M137.7366,292.1486 C137.7366,292.1486 141.5286,303.5246 150.5346,310.1606" id="Stroke-13"></path>
                    <path d="M196.5138,280.7724 C196.5138,280.7724 199.9898,289.7784 208.8378,296.4144" id="Stroke-15"></path>
                    <path d="M342.5942,239.9915 C343.4622,243.1815 339.9022,246.0515 335.8732,247.4335 C330.6442,249.2275 320.2282,249.9235 314.0682,247.4335 C306.6422,244.4315 308.5642,231.4025 310.5612,232.0545" id="Stroke-17"></path>
                    <path d="M252.3741,422.6776 C250.3021,416.5716 251.6171,406.7926 256.4761,406.0686 C260.7011,405.4396 263.6651,404.6466 267.6151,413.3376 C269.6451,417.8036 270.1721,421.4816 267.9521,424.6536" id="Stroke-19"></path>
                    <path d="M230.9158,453.9476 C228.0718,452.4096 227.5638,435.7476 228.9658,432.5076 C230.6668,428.5776 240.7548,427.0046 244.5468,431.0336 C248.3388,435.0626 253.1378,452.2976 248.4418,454.7156" id="Stroke-21"></path>
                    <path d="M155.4333,406.386 C151.1213,399.569 151.5423,391.868 154.7563,390.032 C157.6903,388.356 160.2523,388.136 162.6223,390.743 C165.0673,393.432 171.5103,401.526 169.2023,404.881" id="Stroke-23"></path>
                    <path d="M134.782,365.2098 C137.144,361.4728 144.215,362.3018 144.215,362.3018" id="Stroke-25"></path>
                    <path d="M137.6225,369.8734 C137.6225,369.8734 143.3205,371.1664 147.2165,367.8324" id="Stroke-27"></path>
                    <path d="M166.8092,377.1544 C166.8092,377.1544 170.6012,372.7304 177.2372,373.3624" id="Stroke-29"></path>
                    <path d="M169.4913,382.8425 C169.4913,382.8425 177.5533,383.9485 181.9773,378.1025" id="Stroke-31"></path>
                    <path d="M189.5617,370.5183 C189.5617,370.5183 195.0917,364.7423 206.9417,364.2333" id="Stroke-33"></path>
                    <path d="M193.0378,377.1544 C193.0378,377.1544 203.7818,379.0504 212.1558,369.8734" id="Stroke-35"></path>
                    <path d="M189.5617,408.9358 C189.5617,408.9358 196.8297,409.1628 200.3057,404.6468" id="Stroke-37"></path>
                    <path d="M215.9482,412.8631 C215.9482,412.8631 224.0062,414.9171 230.1682,411.4411" id="Stroke-39"></path>
                    <path d="M248.8129,392.1647 C248.8129,392.1647 255.9229,393.7447 261.2949,390.5847" id="Stroke-41"></path>
                    <path d="M232.5386,362.1616 C232.5386,362.1616 241.7026,364.1976 250.0766,356.6136" id="Stroke-43"></path>
                    <path d="M230.1685,356.614 C230.1685,356.614 236.0145,349.188 245.9685,352.19" id="Stroke-45"></path>
                    <path d="M204.8247,439.2528 C203.0337,438.2308 198.4397,426.4408 202.7947,423.5198 C207.0207,420.6838 210.0227,420.7238 213.5787,425.1088 C217.1337,429.4928 221.7547,437.0768 219.1637,438.8818" id="Stroke-47"></path>
                </g>
                <g id="shadow" transform="translate(74.000000, 0.000000)" fill="#00B9D8" sketch:type="MSShapeGroup">
                    <path d="M89.9492,383.001 C83.8532,374.298 77.4922,366.392 72.3442,357.329 L72.3352,357.329 C75.5872,368.976 83.2492,379.688 86.9822,388.776 C89.4192,391.459 97.1732,401.525 94.8692,404.881 C94.8792,404.862 94.8982,404.853 94.9072,404.834 C99.1922,399.279 91.9022,385.845 91.9022,385.845 C91.2672,384.907 90.6132,383.949 89.9492,383.001" id="Fill-49"></path>
                    <path d="M130.3917,403.5446 C123.1297,391.2206 104.7947,366.2496 98.7947,356.7696 C94.8507,350.5406 87.8917,340.2076 80.2697,329.9116 C89.4747,350.4556 102.5867,373.5206 106.6907,379.0476 C109.8007,383.2286 117.7257,395.2876 123.9257,404.8336 C125.9267,407.9246 128.6097,411.6026 129.7657,413.5556 C131.3587,416.2386 134.4017,421.3766 134.5057,421.6706 C136.0897,421.9926 137.6057,423.0926 139.2467,425.1116 C142.6117,429.2546 146.9157,436.2606 145.1907,438.5356 C146.3187,437.3986 146.8307,436.4026 146.8307,436.4026 C145.5127,432.5346 144.2517,428.6486 142.8017,425.3486 C139.2467,417.2906 137.6627,415.8686 130.3917,403.5446" id="Fill-51"></path>
                    <path d="M178.0581,422.7326 C178.0491,422.7136 178.0491,422.6946 178.0391,422.6756 C177.9541,422.4386 177.8781,422.1926 177.8021,421.9456 C177.1761,420.0496 176.4841,418.1066 175.7451,416.1056 C170.7681,402.5966 169.4691,390.7466 158.8611,374.6296 C148.2521,358.5136 140.1941,338.2826 135.9281,329.9116 C132.6861,323.5506 128.8941,317.0856 124.5521,311.0276 C129.7751,325.7506 142.1281,361.6426 143.6831,365.2066 C145.2471,368.7806 158.6241,391.2206 160.7851,395.9606 C162.9471,400.7006 168.8721,416.8326 170.3891,423.6866 C171.2891,427.7536 173.1101,431.7696 172.7591,433.5616 L172.7591,433.5706 C174.9491,439.4396 177.0911,450.9266 175.0721,453.8466 C175.8111,453.0976 176.5131,452.2066 177.1671,451.1826 C182.6751,442.5276 181.4901,433.3786 178.0771,422.7896 C178.0671,422.7706 178.0671,422.7516 178.0581,422.7326" id="Fill-53"></path>
                    <path d="M197.5304,261.8726 C210.6514,268.5936 224.9564,270.3196 241.3954,265.7976 C228.3194,264.3556 221.0984,263.6706 212.1014,258.7306 C199.3414,251.7156 166.6934,227.6816 166.6934,227.6816 L166.9094,230.6356 C166.5494,225.1846 166.0844,220.8046 164.9664,214.4146 C163.8944,255.6536 159.0884,274.3736 161.6194,284.8016 C164.1504,295.2296 175.3754,329.8326 178.6844,343.1046 C182.0024,356.3766 188.4104,378.7176 190.2974,388.7756 C191.9564,397.6686 192.9894,402.9366 191.8044,409.8856 C193.8334,414.3506 195.8334,421.4816 193.6154,424.6566 L193.6244,424.6666 C198.9054,418.8556 200.5354,404.6826 199.9194,395.9606 C198.6494,378.0996 186.6474,335.2876 179.5374,312.0606 C172.4264,288.8346 169.5824,274.1396 168.1604,252.1076 C167.9994,249.6146 167.8674,247.3486 167.7434,245.2726 L167.7434,245.2636 C168.1604,245.5196 181.7554,253.8046 197.5304,261.8726" id="Fill-55"></path>
                    <path d="M91.3712,92.1201 C99.4292,100.4911 114.4462,123.2061 118.0672,129.2441 C128.0122,145.8351 146.5272,169.7341 161.1832,183.3291 C148.2902,170.4261 126.7982,115.3371 106.4822,85.6451 C86.1572,55.9441 57.6692,39.2021 48.6442,19.4071 C46.9182,15.6151 45.4962,12.3821 44.3682,9.7651 C42.0272,4.3431 36.8122,0.7211 30.9062,0.3901 C25.1522,0.0671 14.4392,-1.0269 0.8472,3.7141 C22.9722,-2.6859 29.5062,18.9921 32.6102,27.6511 C35.6122,36.0251 46.8832,51.7871 52.9762,56.5691 C70.6892,70.4701 82.6302,83.0471 91.3712,92.1201" id="Fill-57"></path>
                </g>
            </g>
        </g>
    </g>
</svg>