<?xml version="1.0" encoding="UTF-8" standalone="no"?>
<svg width="718px" height="342px" viewBox="0 0 718 342" version="1.1" xmlns="http://www.w3.org/2000/svg" xmlns:xlink="http://www.w3.org/1999/xlink" xmlns:sketch="http://www.bohemiancoding.com/sketch/ns">
    <!-- Generator: Sketch 3.4.4 (17249) - http://www.bohemiancoding.com/sketch -->
    <title>hand-1-1 + Get in touch</title>
    <desc>Created with Sketch.</desc>
    <defs></defs>
    <g id="Page-2" stroke="none" stroke-width="1" fill="none" fill-rule="evenodd" sketch:type="MSPage">
        <g id="Desktop-HD" sketch:type="MSArtboardGroup" transform="translate(-534.000000, -4555.000000)">
            <g id="hand-1-1-+-Get-in-touch" sketch:type="MSLayerGroup" transform="translate(533.000000, 4540.000000)">
                <g id="hand-1-1" transform="translate(334.000000, 34.000000)" sketch:type="MSShapeGroup">
                    <path d="M334.4165,320.0693 C330.5845,321.9953 326.0705,321.9773 322.2595,320.0123 C278.7935,297.6043 235.8045,282.9213 217.2495,277.8613 C188.3065,269.9663 155.6835,253.6523 140.9485,244.7073 C126.2125,235.7623 118.8475,225.7643 114.1125,224.1853 C109.3755,222.6063 104.1145,217.3463 101.4825,211.0303 C98.8525,204.7163 87.2745,198.9273 82.5385,198.9273 C77.8035,198.9273 70.9625,192.6133 63.5945,182.6163 C56.2285,172.6183 69.9095,155.7783 69.9095,155.7783 C68.3305,152.6203 53.5975,138.9403 49.3875,129.4693 C45.1785,119.9953 55.7015,106.3163 55.7015,106.3163 C55.1745,103.6843 49.9155,93.1603 48.3365,83.1623 C46.7575,73.1643 52.5445,66.3223 57.8075,62.6383 C63.0695,58.9563 95.1685,42.1163 47.8085,51.0643 C0.4495,60.0093 1.5015,37.9063 1.5015,32.6453 C1.5015,27.3843 8.3425,20.5423 14.6565,17.3843 C20.9715,14.2283 49.3875,7.9133 59.9115,6.3343 C70.4365,4.7573 84.6455,2.1253 96.7475,2.1253 C108.8475,2.1253 140.4225,9.4913 157.7875,11.5973 C175.1525,13.7023 190.9385,23.7003 197.2535,31.0663 C203.5675,38.4323 207.2505,41.0663 225.1435,71.0573 C267.7645,151.5673 290.3915,160.5153 308.8105,172.6183 C313.2665,175.5473 344.8695,186.0363 373.5435,195.7073 C378.8595,197.4993 382.4895,202.4153 382.6305,208.0233 C382.9535,220.8123 381.5275,245.1993 369.5115,273.0373 C357.1015,301.7893 344.0775,315.2123 334.4165,320.0693" id="silo" fill="#FFFFFF"></path>
                    <g id="outline">
                        <path d="M334.4165,320.0693 C330.5845,321.9953 326.0705,321.9773 322.2595,320.0123 C278.7935,297.6043 235.8045,282.9213 217.2495,277.8613 C188.3065,269.9663 155.6835,253.6523 140.9485,244.7073 C126.2125,235.7623 118.8475,225.7643 114.1125,224.1853 C109.3755,222.6063 104.1145,217.3463 101.4825,211.0303 C98.8525,204.7163 87.2745,198.9273 82.5385,198.9273 C77.8035,198.9273 70.9625,192.6133 63.5945,182.6163 C56.2285,172.6183 69.9095,155.7783 69.9095,155.7783 C68.3305,152.6203 53.5975,138.9403 49.3875,129.4693 C45.1785,119.9953 55.7015,106.3163 55.7015,106.3163 C55.1745,103.6843 49.9155,93.1603 48.3365,83.1623 C46.7575,73.1643 52.5445,66.3223 57.8075,62.6383 C63.0695,58.9563 95.1685,42.1163 47.8085,51.0643 C0.4495,60.0093 1.5015,37.9063 1.5015,32.6453 C1.5015,27.3843 8.3425,20.5423 14.6565,17.3843 C20.9715,14.2283 49.3875,7.9133 59.9115,6.3343 C70.4365,4.7573 84.6455,2.1253 96.7475,2.1253 C108.8475,2.1253 140.4225,9.4913 157.7875,11.5973 C175.1525,13.7023 190.9385,23.7003 197.2535,31.0663 C203.5675,38.4323 207.2505,41.0663 225.1435,71.0573 C267.7645,151.5673 290.3915,160.5153 308.8105,172.6183 C313.2665,175.5473 344.8695,186.0363 373.5435,195.7073 C378.8595,197.4993 382.4895,202.4153 382.6305,208.0233 C382.9535,220.8123 381.5275,245.1993 369.5115,273.0373 C357.1015,301.7893 344.0775,315.2123 334.4165,320.0693 L334.4165,320.0693 Z" id="Stroke-3" stroke="#F6A623" stroke-width="3"></path>
                        <path d="M139.8959,20.5422 C139.8959,20.5422 125.4259,44.7462 121.4799,51.0612 C117.5319,57.3752 111.4789,81.5812 111.7429,90.2642 C112.0069,98.9472 115.1649,120.5242 112.2699,134.9922" id="Stroke-5" stroke="#F6A623" stroke-width="3" stroke-linecap="round" stroke-linejoin="round"></path>
                        <path d="M106.4816,216.029 C106.4816,216.029 117.3096,180.511 132.8096,162.811" id="Stroke-7" stroke="#F6A623" stroke-width="3" stroke-linecap="round" stroke-linejoin="round"></path>
                        <path d="M163.5756,34.4861 C163.5756,34.4861 144.1056,51.5881 138.0546,68.6901" id="Stroke-9" stroke="#F6A623" stroke-width="3" stroke-linecap="round" stroke-linejoin="round"></path>
                        <path d="M155.0599,37.4588 C155.0599,37.4588 157.2259,33.7088 156.4729,31.0658" id="Stroke-11" stroke="#F6A623" stroke-width="3" stroke-linecap="round" stroke-linejoin="round"></path>
                        <g id="Group-16">
                            <path d="M83.5913,198.9247 C83.5913,198.9247 94.6413,199.9777 104.9023,199.9777 C115.1643,199.9777 132.0033,201.8207 135.6863,197.3457 C139.3693,192.8757 148.8413,176.8237 135.1613,168.9317 C121.4793,161.0387 92.2743,163.1447 88.3273,162.8797" id="Fill-13" fill="#FFFFFF"></path>
                            <path d="M83.5913,198.9247 C83.5913,198.9247 94.6413,199.9777 104.9023,199.9777 C115.1643,199.9777 132.0033,201.8207 135.6863,197.3457 C139.3693,192.8757 148.8413,176.8237 135.1613,168.9317 C121.4793,161.0387 92.2743,163.1447 88.3273,162.8797" id="Stroke-15" stroke="#F6A623" stroke-width="3" stroke-linecap="round" stroke-linejoin="round"></path>
                        </g>
                        <path d="M129.8982,173.142 C129.8982,173.142 118.0572,170.772 115.4282,172.878 C112.7962,174.985 112.2702,186.295 112.7962,189.453 C113.3212,192.611 123.8462,195.769 127.0032,195.507 C130.1612,195.243 128.3192,177.353 129.8982,173.142 L129.8982,173.142 Z" id="Stroke-17" stroke="#F6A623" stroke-width="3" stroke-linecap="round" stroke-linejoin="round"></path>
                        <g id="Group-22">
                            <path d="M69.9094,155.7782 C69.9094,155.7782 82.8034,166.3002 89.1164,169.9842 C95.4314,173.6682 104.6394,181.8272 114.3754,175.2472 C124.1114,168.6692 125.4264,154.1992 121.2154,149.2002 C117.0064,144.2012 107.0724,134.2672 100.2334,129.7952" id="Fill-19" fill="#FFFFFF"></path>
                            <path d="M69.9094,155.7782 C69.9094,155.7782 82.8034,166.3002 89.1164,169.9842 C95.4314,173.6682 104.6394,181.8272 114.3754,175.2472 C124.1114,168.6692 125.4264,154.1992 121.2154,149.2002 C117.0064,144.2012 107.0724,134.2672 100.2334,129.7952" id="Stroke-21" stroke="#F6A623" stroke-width="3" stroke-linecap="round" stroke-linejoin="round"></path>
                        </g>
                        <path d="M88.8534,147.619 C88.8534,147.619 94.9054,138.414 102.5354,142.623 C110.1644,146.831 113.3874,149.594 112.0744,150.909 C110.7574,152.226 100.8904,160.973 100.6284,170.444 C100.6284,170.444 78.8554,164.459 88.8534,147.619 L88.8534,147.619 Z" id="Stroke-23" stroke="#F6A623" stroke-width="3" stroke-linecap="round" stroke-linejoin="round"></path>
                        <path d="M246.1914,203.3996 C246.1914,203.3996 234.6144,214.1856 231.4584,230.7616 C228.3004,247.3366 222.7734,248.9176 222.2474,251.0236" id="Stroke-25" stroke="#F6A623" stroke-width="3" stroke-linecap="round" stroke-linejoin="round"></path>
                        <path d="M248.8229,220.5014 C248.2959,221.8164 243.0329,237.0774 238.2979,245.4954" id="Stroke-27" stroke="#F6A623" stroke-width="3" stroke-linecap="round" stroke-linejoin="round"></path>
                        <path d="M68.0696,109.9977 C68.0696,109.9977 70.1736,101.8407 78.0666,102.8937 C85.9596,103.9467 92.0096,109.4737 93.0636,110.2617 C94.1166,111.0527 89.5436,117.5977 87.5376,122.3627 C85.4336,127.3637 83.0626,133.5897 82.2766,132.8887 C74.9096,126.3117 66.2266,119.4717 68.0696,109.9977 L68.0696,109.9977 Z" id="Stroke-29" stroke="#F6A623" stroke-width="3" stroke-linecap="round" stroke-linejoin="round"></path>
                        <g id="Group-34">
                            <path d="M188.5711,73.6887 C188.5711,73.6887 174.3641,64.7437 156.7351,60.5327 C139.1081,56.3227 115.9551,42.1137 106.2181,33.9597 C96.4841,25.8057 77.8031,18.4367 66.2261,12.1207 C54.6511,5.8077 28.0151,-8.2883 23.6031,16.5937 C19.3101,40.8017 39.9161,55.0077 44.3901,58.9537 C48.8611,62.9027 71.4881,75.0057 79.9081,77.8997 C79.9081,77.8997 113.3211,96.8417 122.2681,114.9967 C122.2681,114.9967 124.6361,157.6217 166.4701,202.0847" id="Fill-31" fill="#FFFFFF"></path>
                            <path d="M188.5711,73.6887 C188.5711,73.6887 174.3641,64.7437 156.7351,60.5327 C139.1081,56.3227 115.9551,42.1137 106.2181,33.9597 C96.4841,25.8057 77.8031,18.4367 66.2261,12.1207 C54.6511,5.8077 28.0151,-8.2883 23.6031,16.5937 C19.3101,40.8017 39.9161,55.0077 44.3901,58.9537 C48.8611,62.9027 71.4881,75.0057 79.9081,77.8997 C79.9081,77.8997 113.3211,96.8417 122.2681,114.9967 C122.2681,114.9967 124.6361,157.6217 166.4701,202.0847" id="Stroke-33" stroke="#F6A623" stroke-width="3" stroke-linecap="round" stroke-linejoin="round"></path>
                        </g>
                        <path d="M61.4907,29.223 C61.4907,29.223 53.8617,48.43 45.9687,45.01 C38.0757,41.59 32.2867,38.098 29.1277,30.276 C23.6027,16.594 29.6527,7.122 40.7057,5.543 C51.7557,3.964 61.2277,13.964 63.5947,15.543 C65.9637,17.122 63.3337,22.91 61.4907,29.223 L61.4907,29.223 Z" id="Stroke-35" stroke="#F6A623" stroke-width="3" stroke-linecap="round" stroke-linejoin="round"></path>
                        <path d="M126.9853,121.2488 C126.9853,121.2488 130.9763,129.4168 137.2653,131.3098" id="Stroke-37" stroke="#F6A623" stroke-width="3" stroke-linecap="round" stroke-linejoin="round"></path>
                        <path d="M112.7962,41.5902 C112.7962,41.5902 114.9762,51.5882 105.9552,57.3752" id="Stroke-39" stroke="#F6A623" stroke-width="3" stroke-linecap="round" stroke-linejoin="round"></path>
                        <path d="M104.6395,35.8007 C104.6395,35.8007 99.6415,46.5887 98.5885,50.0087" id="Stroke-41" stroke="#F6A623" stroke-width="3" stroke-linecap="round" stroke-linejoin="round"></path>
                        <path d="M94.3786,34.748 C94.3786,34.748 92.2736,39.749 91.7486,40.802" id="Stroke-43" stroke="#F6A623" stroke-width="3" stroke-linecap="round" stroke-linejoin="round"></path>
                        <path d="M55.7012,106.3158 C55.7012,106.3158 67.7492,123.8518 80.6982,133.6778 C88.3272,139.4668 100.6932,133.8118 104.6392,120.7858 C108.5862,107.7628 91.1562,90.5948 89.3812,89.2118 C89.3812,89.2118 90.7612,92.5018 96.0902,88.5528" id="Stroke-45" stroke="#F6A623" stroke-width="3" stroke-linecap="round" stroke-linejoin="round"></path>
                        <path d="M79.7112,82.0415 C79.1192,82.0415 75.7652,79.4755 73.0022,78.4895" id="Stroke-47" stroke="#F6A623" stroke-width="3" stroke-linecap="round" stroke-linejoin="round"></path>
                        <path d="M79.9083,134.7301 C79.9083,134.7301 74.6453,138.6761 74.1203,141.0461" id="Stroke-49" stroke="#F6A623" stroke-width="3" stroke-linecap="round" stroke-linejoin="round"></path>
                        <path d="M57.8075,112.6294 C57.0195,112.6294 54.3095,120.6264 54.3095,120.6264" id="Stroke-51" stroke="#F6A623" stroke-width="3" stroke-linecap="round" stroke-linejoin="round"></path>
                        <path d="M96.2207,174.3972 C96.2207,174.3972 95.9567,178.9312 96.2207,180.5102" id="Stroke-53" stroke="#F6A623" stroke-width="3" stroke-linecap="round" stroke-linejoin="round"></path>
                        <path d="M81.4872,198.1388 C81.4872,198.1388 79.3812,196.2978 78.3302,193.9278" id="Stroke-55" stroke="#F6A623" stroke-width="3" stroke-linecap="round" stroke-linejoin="round"></path>
                        <path d="M74.4299,159.3863 C74.4299,159.3863 69.1889,164.9173 68.0699,171.0393" id="Stroke-57" stroke="#F6A623" stroke-width="3" stroke-linecap="round" stroke-linejoin="round"></path>
                        <path d="M59.5125,101.0872 C59.5125,101.0872 61.1435,93.9172 69.1885,89.7402" id="Stroke-59" stroke="#F6A623" stroke-width="3" stroke-linecap="round" stroke-linejoin="round"></path>
                        <g id="Group-64">
                            <path d="M116.8098,223.5272 C116.8098,223.5272 117.4008,219.9752 119.5728,215.8302" id="Fill-61" fill="#FFFFFF"></path>
                            <path d="M116.8098,223.5272 C116.8098,223.5272 117.4008,219.9752 119.5728,215.8302" id="Stroke-63" stroke="#F6A623" stroke-width="3" stroke-linecap="round" stroke-linejoin="round"></path>
                        </g>
                    </g>
                    <g id="shadow" transform="translate(1.000000, 32.000000)" fill="#F6A623">
                        <path d="M128.7919,134.5648 C126.4419,133.7548 123.8819,133.1248 121.2219,132.6148 C123.2819,126.5648 122.7419,120.1948 120.2219,117.2048 C116.0119,112.2048 106.0719,102.2648 99.2319,97.7948 L96.6119,100.0348 L96.5419,99.9548 C99.6119,97.3648 102.1919,93.5648 103.6419,88.7848 C104.1319,87.1748 104.2919,85.4948 104.1919,83.7848 C103.7719,76.3948 98.4919,68.5148 94.1219,63.2548 C94.1119,63.2448 94.1019,63.2448 94.0919,63.2248 C92.3019,61.0748 90.6619,59.3648 89.5819,58.3048 C90.5719,58.7048 92.2919,58.6348 95.0919,56.5548 L95.1419,56.4848 C100.6019,60.4248 106.5719,65.1848 111.6219,70.2848 C115.6919,74.3948 119.1619,78.7148 121.2719,82.9948 C121.2719,82.9948 122.6719,108.1648 142.3019,140.0048 C144.0219,142.7948 145.8819,145.6348 147.9019,148.5148 C144.1319,172.3748 136.4819,172.5848 138.9019,176.5848 C141.3119,180.5848 173.3119,207.5848 203.8119,215.5848 C234.3119,223.5848 266.3119,233.5848 279.8119,239.5848 C293.3119,245.5848 331.2419,266.1248 337.8119,268.5848 C345.6019,271.5048 356.1819,264.3148 357.9219,261.8948 C349.0119,276.6948 340.3519,284.5848 333.4219,288.0748 C329.5819,289.9948 325.0719,289.9748 321.2619,288.0148 C277.7919,265.6048 234.8019,250.9248 216.2519,245.8648 C187.3119,237.9648 154.6819,221.6548 139.9519,212.7048 C125.2119,203.7648 117.8519,193.7648 113.1119,192.1848 C109.8619,191.0948 106.3519,188.2748 103.6219,184.5648 L105.4819,184.0348 C105.4819,184.0348 107.5519,177.2548 111.1619,168.1448 C120.7419,168.4748 131.7919,168.8748 134.6919,165.3448 C136.9619,162.5948 141.4219,155.4448 141.3119,148.5148 C141.2519,144.1948 139.4119,139.9648 134.1619,136.9348 C132.5619,136.0148 130.7519,135.2248 128.7919,134.5648" id="Fill-65"></path>
                        <path d="M153.392,11.7148 L153.382,11.7148 C145.652,8.2548 137.372,5.8848 129.412,4.3548 C120.572,2.6448 112.112,1.9648 105.222,1.9648 C109.342,5.4248 115.872,9.9548 123.372,14.3548 C129.652,18.0548 136.612,21.6448 143.402,24.4348 C147.652,26.1748 151.822,27.5948 155.732,28.5348 C161.092,29.8148 166.142,31.5348 170.562,33.2948 C172.462,24.8548 163.322,16.1548 153.392,11.7148" id="Fill-67"></path>
                        <path d="M88.3919,57.2248 C88.4419,57.3348 88.7619,57.9848 89.5819,58.3048 C90.6619,59.3648 92.3019,61.0748 94.0919,63.2248 C83.9419,55.7248 57.9019,36.3748 56.2919,46.4648 C56.0419,43.1748 56.7319,40.3448 59.4219,36.6948 C66.7619,40.6148 74.6519,44.4348 78.9119,45.9048 C78.9119,45.9048 86.3419,50.1248 95.1419,56.4848 L95.0919,56.5548 C92.2919,58.6348 90.5719,58.7048 89.5819,58.3048 C89.0119,57.7548 88.6019,57.3848 88.3919,57.2248" id="Fill-69"></path>
                        <path d="M127.702,159.5448 C127.422,161.8448 126.922,163.4248 126.002,163.5048 C123.932,163.6848 118.682,162.3748 115.172,160.5648 C114.952,160.5348 114.682,160.5048 114.372,160.4848 C109.182,160.0248 92.122,159.5048 83.912,156.8748 C83.442,156.7248 83.002,156.5648 82.592,156.4048 C73.122,152.5848 71.062,140.0048 74.872,128.5148 C74.372,128.1248 73.892,127.7448 73.432,127.3848 C70.772,125.2948 68.912,123.7748 68.912,123.7748 C68.912,123.7748 55.232,140.6148 62.592,150.6148 C69.962,160.6148 76.802,166.9248 81.542,166.9248 C81.862,166.9248 82.212,166.9548 82.582,167.0048 L82.592,166.9248 C82.592,166.9248 93.642,167.9748 103.902,167.9748 C106.082,167.9748 108.572,168.0548 111.162,168.1448 C120.742,168.4748 131.792,168.8748 134.692,165.3448 C136.962,162.5948 141.422,155.4448 141.312,148.5148 C136.062,158.6848 131.312,158.0848 127.702,159.5448" id="Fill-71"></path>
                        <path d="M104.1919,83.7848 C97.5719,92.7448 91.3119,94.0848 85.3419,93.2548 C83.6019,97.4548 81.9119,101.4648 81.2819,100.8948 C73.9119,94.3148 65.2319,87.4748 67.0719,77.9948 C67.0719,77.9948 67.3719,76.8148 68.1819,75.4048 C65.2719,73.0348 62.8519,68.5848 61.0019,63.9648 C58.7819,58.4848 57.3519,52.7748 56.8119,50.0448 C56.5619,48.7648 56.3719,47.5848 56.2919,46.4648 C56.0419,43.1748 56.7319,40.3448 59.4219,36.6948 C57.3619,35.5948 55.3519,34.4848 53.4719,33.4148 C49.4219,37.3648 46.0919,43.2848 47.3419,51.1648 C48.9219,61.1648 54.1719,71.6848 54.7019,74.3148 C54.7019,74.3148 56.9619,77.6048 60.5719,82.1348 C65.3019,88.0548 72.3619,96.1048 79.7019,101.6748 C79.9619,101.8748 80.2319,102.0648 80.5119,102.2348 C85.2619,105.2248 91.5419,104.1748 96.5419,99.9548 C99.6119,97.3648 102.1919,93.5648 103.6419,88.7848 C104.1319,87.1748 104.2919,85.4948 104.1919,83.7848" id="Fill-73"></path>
                        <path d="M121.212,132.6148 C111.382,139.4048 104.312,135.0848 100.112,135.0948 L100.102,135.0948 C99.832,136.1948 99.662,137.3148 99.632,138.4448 C99.632,138.4448 91.762,136.2748 87.662,130.8948 C87.542,130.8948 87.422,130.8948 87.332,130.8848 C83.412,128.0448 78.772,123.5348 74.502,118.9848 C69.682,113.8848 65.352,108.7448 63.062,105.8848 C56.812,98.0848 58.062,89.0948 60.572,82.1348 C56.962,77.6048 54.702,74.3148 54.702,74.3148 C54.702,74.3148 44.182,87.9948 48.392,97.4748 C52.602,106.9448 67.332,120.6248 68.912,123.7748 C68.912,123.7748 70.772,125.2948 73.432,127.3848 C73.892,127.7448 74.372,128.1248 74.872,128.5148 C78.502,131.3348 83.092,134.7948 86.532,137.0048 C87.102,137.3748 87.632,137.6948 88.122,137.9848 C90.202,139.1948 92.602,140.8948 95.222,142.3948 C100.442,145.3748 106.572,147.5548 112.952,143.5248 C113.352,142.3048 113.832,141.3548 114.432,140.8748 C114.962,140.4548 115.852,140.2148 116.952,140.0948 C118.912,137.8748 120.322,135.2748 121.222,132.6148 L121.212,132.6148 Z" id="Fill-75"></path>
                        <path d="M28.2819,11.3048 C30.7219,15.0448 33.5619,18.1748 36.1519,20.6648 C-0.3881,24.5148 0.5019,5.4748 0.5019,0.6448 C7.3119,8.7548 14.0219,11.9848 27.6619,11.7048 L28.2819,11.3048 Z" id="Fill-77"></path>
                        <path d="M82.5944,166.9238 C82.5944,166.9238 93.6444,167.9738 103.9044,167.9738 C106.0844,167.9738 108.5744,168.0538 111.1644,168.1438 C107.5544,177.2538 105.4844,184.0338 105.4844,184.0338 L103.6244,184.5638 C102.3844,182.8738 101.3044,181.0138 100.4844,179.0338 C98.0344,173.1438 87.7944,167.7138 82.5844,167.0038 L82.5944,166.9238 Z" id="Fill-79"></path>
                    </g>
                </g>
                <text id="Get-in-touch" sketch:type="MSTextLayer" font-family="Galano Grotesque DEMO" font-size="62" font-weight="bold" sketch:alignment="middle" line-spacing="83" fill="#051923">
                    <tspan x="0" y="62">Get in touch</tspan>
                </text>
            </g>
        </g>
    </g>
</svg>