<?xml version="1.0" encoding="UTF-8" standalone="no"?>
<svg width="938px" height="822px" viewBox="0 0 938 822" version="1.1" xmlns="http://www.w3.org/2000/svg" xmlns:xlink="http://www.w3.org/1999/xlink" xmlns:sketch="http://www.bohemiancoding.com/sketch/ns">
    <!-- Generator: Sketch 3.4.4 (17249) - http://www.bohemiancoding.com/sketch -->
    <title>Group</title>
    <desc>Created with Sketch.</desc>
    <defs></defs>
    <g id="Page-2" stroke="none" stroke-width="1" fill="none" fill-rule="evenodd" sketch:type="MSPage">
        <g id="Desktop-HD" sketch:type="MSArtboardGroup" transform="translate(-251.000000, -1767.000000)">
            <g id="Group" sketch:type="MSLayerGroup" transform="translate(253.000000, 1769.000000)">
                <g id="hand-1-1" transform="translate(177.000000, 0.000000)" sketch:type="MSShapeGroup">
                    <path d="M222.5167,6.489 C213.8867,3.268 199.4647,-0.538 180.7097,0.275 C165.6647,0.927 149.6357,5.343 139.6727,8.587 C133.9207,10.461 130.2647,16.082 130.9087,22.088 C132.1227,33.429 133.9927,51.714 134.5757,62.377 C135.4807,78.642 138.3407,84.854 127.4167,103.1 C127.4167,103.1 79.1897,183.31 73.4087,193.826 C67.6347,204.332 66.7547,214.028 61.2217,222.987 C55.6897,231.955 34.4637,270.172 30.1557,280.432 C25.8487,290.692 9.3067,319.554 8.6537,321.669 C8.6177,321.803 8.5537,321.95 8.4847,322.119 C7.4837,324.615 3.6547,330.666 2.7987,334.488 C1.3127,341.096 5.6987,343.922 7.7267,344.463 C7.7267,344.463 7.2677,345.459 6.5747,347.043 C4.2877,352.318 -0.5473,364.104 0.7087,366.985 C1.7797,369.467 3.8297,373.761 8.0037,375.086 C10.1347,375.776 12.8297,375.687 16.2267,374.179 C26.2827,369.735 39.6577,346.148 39.9397,343.332 C39.9397,343.332 60.1947,321.107 64.0917,316.57 C64.4197,316.193 64.6317,315.942 64.7117,315.831 C64.7117,315.831 94.5837,284.207 96.5327,277.854 C96.5327,277.854 124.1697,258.403 126.3607,256.53 C126.3607,256.53 162.5877,238.017 166.4407,244.2 C166.4787,244.253 166.4937,244.28 166.4937,244.28 C166.4937,244.28 173.6407,267.442 170.4437,288.826 C167.2457,310.209 167.0037,320.796 171.2187,338.423 C175.4237,356.053 192.3297,359.502 198.5937,357.944 C204.8687,356.393 210.8447,348.613 210.5957,335.095 C210.3357,321.57 214.4277,302.55 214.5327,280.687 C214.6457,258.822 221.1937,254.458 225.5357,233.891 C229.8687,213.325 237.9447,179.071 231.3907,130.95 C225.6027,88.395 228.6527,44.76 230.7977,19.542 C231.2867,13.815 227.8927,8.504 222.5167,6.489" id="silo" fill="#FFFFFF"></path>
                    <g id="shadow" transform="translate(8.000000, 222.000000)" fill="#84BA4D">
                        <path d="M66.1975,11.4625 C62.3855,20.4165 53.8105,36.8015 47.5635,44.0705 C39.9985,52.8705 33.0805,66.6495 27.2805,74.7725 C21.4815,82.9055 12.3025,98.9505 9.3755,103.9615 C8.0985,106.1515 6.1105,109.9375 4.2835,113.5115 C5.0415,111.6725 5.6285,109.5685 5.4695,107.6285 C5.3845,106.5955 5.1045,105.6845 4.7235,104.8675 L3.4895,102.9255 C3.4895,102.9255 19.5835,74.8385 24.6525,66.5545 C29.7215,58.2705 36.1205,47.4445 41.6025,39.5805 C47.6655,30.8655 54.0505,20.0455 55.8675,15.9455 C60.3625,5.8105 61.6035,0.6505 63.9925,0.7225 C70.4085,0.9155 67.9055,6.9405 67.9055,6.9405 C67.5955,8.0095 67.0045,9.5665 66.1975,11.4625" id="Fill-3"></path>
                        <path d="M155.2618,16.1685 C122.5958,17.0425 99.6158,35.5205 90.1268,43.1175 C86.2428,46.2135 82.1428,49.4535 79.3218,52.5285 C75.2358,56.9895 71.7688,61.4635 67.5228,66.0785 C62.0208,72.0675 51.3088,84.2225 44.4708,92.1665 C42.4058,94.5575 39.0578,98.8775 37.9508,100.2175 C34.5858,104.3035 28.8688,110.6095 23.1228,118.4785 C20.7208,121.7775 17.6088,126.1295 15.6888,128.8585 C9.1718,138.1385 8.2148,140.2295 3.1778,142.3035 C2.0678,146.5985 0.1468,152.6515 0.1468,152.6515 L0.0038,153.0865 C2.1348,153.7765 4.8298,153.6865 8.2268,152.1785 C18.2828,147.7355 31.6578,124.1485 31.9388,121.3325 C31.9388,121.3325 52.1948,99.1075 56.0918,94.5705 C56.4198,94.1925 56.6318,93.9415 56.7108,93.8305 C56.7108,93.8305 86.5838,62.2065 88.5328,55.8545 C88.5328,55.8545 116.1698,36.4035 118.3608,34.5295 C118.3608,34.5295 154.5878,16.0175 158.4408,22.2005 C158.2218,21.8265 156.2568,18.1345 155.2618,16.1685" id="Fill-5"></path>
                    </g>
                    <g id="outline" stroke="#84BA4D" stroke-width="3" stroke-linecap="round" stroke-linejoin="round">
                        <path d="M8.1465,374.6517 C8.1465,374.6517 15.7335,355.1157 9.9435,349.0517 C8.8955,347.7007 7.2875,346.5127 6.5745,347.0427 C6.5215,347.0807 6.4725,347.1387 6.4335,347.1937" id="Stroke-8"></path>
                        <path d="M12.2831,335.5112 C14.1111,331.9372 16.0981,328.1512 17.3751,325.9612 C20.3021,320.9512 29.4811,304.9052 35.2801,296.7722 C41.0811,288.6492 47.9981,274.8702 55.5641,266.0702 C61.8111,258.8012 70.3851,242.4172 74.1971,233.4622 C75.0051,231.5662 75.5951,230.0102 75.9051,228.9402" id="Stroke-10"></path>
                        <path d="M7.8298,344.3185 C7.8298,344.3185 9.9138,340.1145 12.2688,335.5435" id="Stroke-12"></path>
                        <path d="M8.6349,322.1422 C9.1299,322.8222 13.1039,325.1702 13.4699,329.6282 C13.6279,331.5682 13.0409,333.6722 12.2829,335.5112 C12.2739,335.5132 12.2749,335.5222 12.2689,335.5432 C11.2859,337.9092 10.0439,339.8382 9.8159,340.4052" id="Stroke-14"></path>
                        <path d="M39.9391,343.3325 C39.9391,343.3325 34.2571,341.6525 33.1541,341.0845" id="Stroke-16"></path>
                        <path d="M64.0914,316.5704 C64.0914,316.5704 56.6314,316.3034 53.5174,314.9464" id="Stroke-18"></path>
                        <path d="M96.5331,277.854 C96.5331,277.854 89.7671,276.473 87.0561,274.54" id="Stroke-20"></path>
                        <path d="M166.4935,244.2796 C166.4935,244.2796 166.4795,244.2526 166.4415,244.2006 C165.8815,243.2566 160.6385,234.3226 161.6425,231.7876" id="Stroke-22"></path>
                        <path d="M187.9888,306.6074 C187.9888,306.6074 197.6368,305.7444 203.7098,304.9134" id="Stroke-24"></path>
                        <path d="M191.9818,295.5782 C191.9818,295.5782 195.5568,295.5472 199.3438,295.6662" id="Stroke-26"></path>
                        <path d="M93.4578,185.322 C93.4578,185.322 116.0288,144.62 119.7418,137.59" id="Stroke-28"></path>
                        <path d="M36.2401,275.5193 C36.2401,275.5193 34.7831,274.8243 34.0961,273.9903" id="Stroke-30"></path>
                        <path d="M37.5911,271.1449 L35.7901,270.0279" id="Stroke-32"></path>
                        <path d="M38.558,297.3582 L36.888,295.5642" id="Stroke-34"></path>
                        <path d="M35.9946,301.153 L34.0946,299.798" id="Stroke-36"></path>
                        <path d="M74.1975,233.4625 L72.4925,228.1325" id="Stroke-38"></path>
                        <path d="M166.5597,244.5137 C166.5137,244.3597 166.4907,244.2817 166.4907,244.2817" id="Stroke-40"></path>
                        <path d="M166.4362,244.1998 C162.5922,238.0198 126.3622,256.5298 126.3622,256.5298 C124.1722,258.4068 96.5352,277.8508 96.5352,277.8508 C94.5892,284.2088 64.7122,315.8298 64.7122,315.8298 C64.6302,315.9448 64.4182,316.1928 64.0962,316.5718 C60.1922,321.1088 39.9352,343.3308 39.9352,343.3308 C39.6562,346.1458 26.2802,369.7398 16.2262,374.1818 C12.8272,375.6838 10.1362,375.7798 8.0022,375.0828 C3.8262,373.7638 1.7782,369.4638 0.7042,366.9868 C-0.5498,364.1048 4.2892,352.3128 6.5702,347.0438 C7.2672,345.4568 7.7302,344.4668 7.7302,344.4668 C5.7022,343.9248 1.3162,341.0998 2.7932,334.4848 C3.6552,330.6708 7.4872,324.6138 8.4882,322.1148 C8.5522,321.9518 8.6172,321.7988 8.6572,321.6708 C9.3062,319.5538 25.8452,290.6948 30.1592,280.4318 C34.4632,270.1698 55.6922,231.9568 61.2262,222.9898 C66.7512,214.0238 67.6322,204.3348 73.4062,193.8268 C79.1872,183.3068 127.4192,103.0968 127.4192,103.0968 C138.3452,84.8508 135.4792,78.6388 134.5802,62.3738 C133.9902,51.7148 132.1242,33.4318 130.9032,22.0878 C130.2622,16.0818 133.9242,10.4588 139.6732,8.5838 C149.6352,5.3438 165.6652,0.9248 180.7152,0.2788 C199.4672,-0.5402 213.8852,3.2708 222.5152,6.4888 C227.8932,8.5078 231.2852,13.8108 230.7952,19.5398 C228.6522,44.7608 225.5992,88.3948 231.3892,130.9528 C237.9492,179.0708 229.8672,213.3268 225.5362,233.8948 C221.1932,254.4548 214.6452,258.8268 214.5342,280.6848 C214.4262,302.5538 210.3312,321.5708 210.5992,335.0928 C210.6892,340.2288 209.8882,344.5298 208.5102,347.9848 C206.2612,353.6238 202.4842,356.9838 198.5892,357.9408 C192.3312,359.5058 175.4182,356.0528 171.2182,338.4248 C167.0082,320.7978 167.2432,310.2138 170.4432,288.8208 C173.4482,268.7488 167.3312,247.1218 166.5652,244.5428" id="Stroke-42"></path>
                        <path d="M177.6967,329.5827 C176.0187,332.1557 174.7287,336.6807 176.4107,343.2127 C179.0757,353.4937 185.8257,354.4417 189.1037,354.8247 C192.3637,355.2217 206.2327,354.7847 206.8907,347.5157 C206.8907,347.5157 206.8917,347.4647 206.9067,347.3717 C207.0157,345.8427 207.9537,332.6157 207.0297,329.2217 C206.0507,325.6137 201.9287,324.6107 197.1647,325.4087 C192.4007,326.2067 182.4717,326.5527 180.4907,327.0767 C179.7627,327.2697 178.6657,328.1027 177.6967,329.5827 L177.6967,329.5827 Z" id="Stroke-44"></path>
                    </g>
                </g>
                <g id="laptop" transform="translate(0.000000, 324.000000)" sketch:type="MSShapeGroup">
                    <path d="M848.69308,465.525358 L848.69308,28.4069881 C848.69308,12.7176608 835.991754,0 820.324151,0 L113.675849,0 C98.0082461,0 85.3069199,12.7176608 85.3069199,28.4069881 L85.3069199,465.525358 L0,465.525358 L0,484.144228 L0,484.144228 C7.0415622,490.489655 16.1787667,494 25.6512231,494 L908.348777,494 C917.821233,494 926.958438,490.489655 934,484.144228 L934,465.525358 L848.69308,465.525358 Z" id="silo" fill="#FFFFFF"></path>
                    <g id="shadow" fill="#84BA4D">
                        <path d="M823.18253,429.068921 L112.816194,429.068921 L112.816194,30.1663043 L823.18253,30.1663043 L823.18253,429.068921 Z M821.608259,0 L114.391741,0 C98.7115393,0 86,12.6772271 86,28.3151034 L86,464 L850,464 L850,28.3151034 C850,12.6772271 837.288461,0 821.608259,0 L821.608259,0 Z" id="Fill-3"></path>
                        <path d="M908.348777,494 L25.6499483,494 C16.177492,494 7.04028748,490.437451 0,484 L0,484 L934,484 L934,484 C926.958438,490.437451 917.821233,494 908.348777,494" id="Fill-5"></path>
                        <path d="M531,465 L531,465 C531,468.850588 527.914353,472 524.14457,472 L409.85543,472 C406.085647,472 403,468.850588 403,465 L403,465" id="Fill-7"></path>
                    </g>
                    <g id="outline">
                        <path d="M472,15 C472,17.2084582 470.20979,19 468,19 C465.791542,19 464,17.2084582 464,15 C464,12.7915418 465.791542,11 468,11 C470.20979,11 472,12.7915418 472,15" id="Fill-9" fill="#84BA4D"></path>
                        <path d="M934,484 L0,484 L0,465 L934,465 L934,484 Z" id="Stroke-11" stroke="#84BA4D" stroke-width="3" stroke-linecap="round" stroke-linejoin="round"></path>
                        <path d="M821.608259,0 L114.390465,0 C98.7115393,0 86,12.6772271 86,28.3151034 L86,464 L850,464 L850,28.3151034 C850,12.6772271 837.288461,0 821.608259,0 L821.608259,0 Z" id="Stroke-13" stroke="#84BA4D" stroke-width="3" stroke-linecap="round" stroke-linejoin="round"></path>
                        <path d="M823,31 L113,31 L113,430 L823,430 L823,31 Z" id="Stroke-14" stroke="#84BA4D" stroke-width="3" stroke-linecap="round" stroke-linejoin="round"></path>
                        <path d="M908.348777,494 L25.6499483,494 C16.177492,494 7.04028748,490.437451 0,484 L0,484 L934,484 L934,484 C926.958438,490.437451 917.821233,494 908.348777,494 L908.348777,494 Z" id="Stroke-15" stroke="#84BA4D" stroke-width="3" stroke-linecap="round" stroke-linejoin="round"></path>
                        <path d="M531,465 L531,465 C531,468.850588 527.914353,472 524.14457,472 L409.85543,472 C406.085647,472 403,468.850588 403,465 L403,465" id="Stroke-16" stroke="#84BA4D" stroke-width="3" stroke-linecap="round" stroke-linejoin="round"></path>
                    </g>
                </g>
                <text id="We-knead-your-digita" sketch:type="MSTextLayer" font-family="Galano Grotesque DEMO" font-size="62" font-weight="bold" sketch:alignment="middle" line-spacing="83" fill="#051923">
                    <tspan x="235.449" y="552">We knead your </tspan>
                    <tspan x="266.232" y="635">digital needs</tspan>
                </text>
                <g id="hand-2" transform="translate(536.000000, 21.000000)" sketch:type="MSShapeGroup">
                    <path d="M139.6556,216.2653 C138.7706,208.7353 137.6076,118.5743 135.9496,104.0593 C134.6976,89.5943 147.1026,57.6663 154.3106,33.4103 C156.0096,27.6783 153.5106,21.5553 148.3096,18.6063 C139.7076,13.7443 125.7606,6.7123 111.5586,3.1673 C96.7676,-0.5247 82.0786,0.1553 73.4556,1.1153 C68.6196,1.6483 64.4876,4.8533 62.8186,9.4293 C54.6896,31.7153 48.9666,65.0823 21.3156,103.3893 C-9.4724,146.0543 1.5046,201.9193 6.8476,223.8983 C10.7086,239.7893 10.7846,244.4623 10.5296,245.8403 C10.4386,246.3653 10.2896,246.4073 10.2896,246.4073 C-2.8584,243.6223 0.9326,262.6983 7.0446,274.5463 C8.1226,278.0773 9.2446,281.3103 10.4086,284.2563 L10.7926,284.2733 C10.6186,288.2373 10.3926,292.2883 10.0996,296.3323 C8.6446,316.5443 13.3996,330.7593 26.6826,330.4943 C34.8796,330.3223 40.9826,323.8803 45.9806,314.4173 L45.9896,314.4193 C46.4836,314.2743 46.7506,314.1623 46.7506,314.1623 C47.4616,314.3393 46.5086,313.0973 63.2756,312.4993 C80.0426,311.9013 94.9026,280.6143 109.2306,272.6153 C123.5706,264.6093 126.8726,251.3423 126.6446,249.2663 C126.4076,247.1883 127.7676,241.7393 132.9756,238.0083 C138.1836,234.2753 140.5526,223.7883 139.6556,216.2653" id="silo" fill="#FFFFFF"></path>
                    <g id="shadow" fill="#84BA4D">
                        <path d="M56.3704,262.6728 L56.6484,262.6328 C56.6484,262.6328 59.0094,267.0808 62.7064,271.1558 C60.7674,273.8248 58.8744,276.1068 57.1994,277.6378 C57.3614,272.2088 56.8284,266.9338 56.1474,261.4938 L56.2084,261.4888 C56.2554,261.8978 56.3074,262.2888 56.3704,262.6728" id="Fill-3"></path>
                        <path d="M57.6093,214.1634 C57.6093,214.1634 57.5643,212.0334 57.0183,211.7884 C64.6543,205.5004 81.6813,212.1074 77.6263,223.9734 C72.8943,237.8284 78.9573,243.1404 73.8923,252.8754 C73.1063,254.3894 72.2253,256.0094 71.2703,257.6804 C61.0933,251.3614 56.5143,240.6614 55.9153,240.1534 L55.7673,240.1864 C54.5233,235.0924 57.5053,229.4024 55.6703,222.6494 C53.8353,215.8964 57.6093,214.1634 57.6093,214.1634" id="Fill-5"></path>
                        <path d="M71.2706,257.6805 C68.7056,262.2215 65.6506,267.1275 62.7056,271.1555 C59.0096,267.0805 56.6486,262.6325 56.6486,262.6325 L56.3706,262.6725 C56.3066,262.2895 56.2556,261.8985 56.2086,261.4885 C55.2486,253.1835 55.7676,240.1865 55.7676,240.1865 L55.9156,240.1535 C56.5146,240.6615 61.0936,251.3615 71.2706,257.6805" id="Fill-7"></path>
                        <path d="M17.4181,274.1421 C16.5851,286.7631 15.1611,295.4571 15.1611,295.4571 C12.7361,294.0961 11.7881,294.8641 11.9021,299.4271 C12.0281,303.9831 12.2081,316.3701 14.5831,321.9941 C16.2691,325.9951 25.2201,331.9291 32.7051,328.5171 L32.9351,329.0321 C30.9881,329.9381 28.9101,330.4531 26.6821,330.4941 C13.4001,330.7591 8.6441,316.5441 10.0991,296.3321 C10.3931,292.2881 10.6181,288.2371 10.7921,284.2731 C11.4931,268.3971 11.2931,253.7781 10.5581,245.8471 L10.5301,245.8401 C10.7851,244.4621 10.7081,239.7891 6.8481,223.8981 C1.5041,201.9191 -9.4729,146.0541 21.3151,103.3891 C48.9661,65.0831 54.6901,31.7151 62.8181,9.4291 C64.4871,4.8531 68.6191,1.6481 73.4561,1.1151 C79.4511,0.4441 88.3951,-0.0889 98.2521,0.9001 C85.2131,1.0261 78.0211,17.8081 74.0491,30.7291 C70.0641,43.7071 64.9821,64.2671 51.3541,86.3931 C37.7261,108.5201 23.6151,129.1931 17.8511,152.2881 C12.0881,175.3731 13.9161,200.5621 17.2791,239.2411 C18.3651,251.7441 18.0771,264.1731 17.4181,274.1421" id="Fill-9"></path>
                        <path d="M56.1494,261.4891 C57.4844,272.2011 58.2694,282.2711 54.2674,294.1351 C51.7714,301.5311 49.0794,308.5581 45.9774,314.4211 C42.3444,321.2961 38.1284,326.5821 32.9444,329.0191 L32.7084,328.5171 C35.7564,327.1241 38.5544,324.1741 40.5294,318.9051 C40.5294,318.9051 40.4794,321.4591 40.5294,318.9051 C51.7234,296.1901 50.8804,286.1881 50.9924,279.1771 C51.1014,272.1751 45.9284,241.3231 45.9284,241.3231 C45.9284,241.3231 42.6304,216.0521 56.6214,211.9071 C56.4634,212.0431 56.2914,212.2781 56.0954,212.6521 C54.6774,215.3181 53.4394,219.5341 54.0164,239.8901 C54.2504,247.7501 55.3054,254.7541 56.1494,261.4891" id="Fill-11"></path>
                    </g>
                    <g id="outline" stroke="#84BA4D" stroke-width="3" stroke-linecap="round" stroke-linejoin="round">
                        <path d="M10.4084,284.2565 C9.2444,281.3105 8.1224,278.0775 7.0444,274.5465 C0.9324,262.6975 -2.8586,243.6225 10.2894,246.4065 C10.2894,246.4065 10.4394,246.3645 10.5304,245.8405 C10.7844,244.4625 10.7084,239.7885 6.8484,223.8985 C1.5044,201.9195 -9.4726,146.0545 21.3154,103.3895 C48.9664,65.0825 54.6894,31.7145 62.8184,9.4285 C64.4874,4.8535 68.6194,1.6485 73.4564,1.1155 C82.0794,0.1545 96.7684,-0.5245 111.5594,3.1675 C125.7604,6.7125 139.7074,13.7445 148.3094,18.6065 C153.5104,21.5555 156.0094,27.6785 154.3104,33.4105 C147.1024,57.6655 134.6974,89.5945 135.9494,104.0585 C137.6074,118.5745 138.7704,208.7355 139.6554,216.2655 C140.5524,223.7885 138.1834,234.2755 132.9754,238.0075 C127.7674,241.7395 126.4074,247.1885 126.6444,249.2665 C126.8724,251.3415 123.5704,264.6095 109.2314,272.6155 C94.9024,280.6145 80.0424,311.9005 63.2754,312.4995 C46.5084,313.0975 47.4614,314.3395 46.7504,314.1625 C46.7504,314.1625 46.4834,314.2745 45.9894,314.4195" id="Stroke-14"></path>
                        <path d="M55.9152,240.1537 C56.5382,240.6867 61.5032,252.3087 72.6212,258.4847" id="Stroke-16"></path>
                        <path d="M56.6489,262.6329 C56.6489,262.6329 60.1189,269.1679 65.2249,273.6539" id="Stroke-18"></path>
                        <path d="M75.2412,76.9517 C75.2412,76.9517 70.8902,74.2247 64.7282,80.7417" id="Stroke-20"></path>
                        <path d="M126.2557,234.6497 L125.9097,196.7137" id="Stroke-22"></path>
                        <path d="M57.6093,214.1634 C57.6093,214.1634 57.9823,216.6134 59.9013,218.0874" id="Stroke-24"></path>
                        <path d="M36.7183,276.6624 C36.7183,276.6624 18.3543,279.6364 13.9133,270.2144" id="Stroke-26"></path>
                        <path d="M31.679,267.6079 C31.679,267.6079 24.627,264.5849 19.242,265.0009" id="Stroke-28"></path>
                        <path d="M10.5591,245.8526 C11.2921,253.7756 11.4961,268.4006 10.7911,284.2726 C10.6161,288.2386 10.3891,292.2836 10.1001,296.3346 C8.6421,316.5426 13.4011,330.7586 26.6801,330.4966 C28.9161,330.4566 31.0041,329.9366 32.9441,329.0196 C38.1281,326.5826 42.3441,321.2966 45.9771,314.4216 C49.0801,308.5586 51.7721,301.5306 54.2671,294.1356 C58.2691,282.2716 57.4851,272.2016 56.1491,261.4896 C55.3051,254.7546 54.2501,247.7506 54.0171,239.8896 C53.4391,219.5336 54.6771,215.3186 56.0951,212.6526 C56.2911,212.2786 56.4631,212.0436 56.6211,211.9076 C56.7811,211.7616 56.9121,211.7326 57.0211,211.7906 C57.5671,212.0406 57.6141,214.1646 57.6141,214.1646 C57.6141,214.1646 53.8311,215.9006 55.6721,222.6476 C57.5011,229.4016 54.5241,235.0896 55.7681,240.1826 C55.7681,240.1826 55.2441,253.1826 56.2101,261.4936 C56.2781,262.0466 56.3411,262.5776 56.4311,263.0846" id="Stroke-30"></path>
                        <path d="M32.7086,328.5176 C35.7566,327.1246 38.5546,324.1736 40.5296,318.9056 C40.5296,318.9056 40.6106,316.9266 40.6606,314.3726 C40.7226,311.2756 40.7286,307.3296 40.4636,305.0466 C39.9846,300.8976 38.0266,299.6566 34.1266,299.1776 C30.2146,298.7056 17.5946,296.8236 15.1636,295.4546 C12.7406,294.0966 11.7876,294.8586 11.9056,299.4236 C12.0256,303.9786 12.2096,316.3716 14.5786,321.9926 C16.2706,325.9916 25.2176,331.9356 32.7086,328.5176 L32.7086,328.5176 Z" id="Stroke-32"></path>
                    </g>
                </g>
                <g id="hand-1-2" transform="translate(338.000000, 0.000000)" sketch:type="MSShapeGroup">
                    <path d="M5.4789,244.5015 C5.4789,244.5015 12.6259,267.6645 9.4289,289.0475 C6.2309,310.4315 5.9889,321.0175 10.2039,338.6455 C14.4089,356.2745 31.3149,359.7235 37.5789,358.1655 C43.8539,356.6155 49.8299,348.8345 49.5809,335.3165 C49.3209,321.7915 53.4129,302.7725 53.5179,280.9095 C53.6309,259.0445 60.1789,254.6805 64.5209,234.1125" id="silo" fill="#FFFFFF"></path>
                    <g id="shadow" transform="translate(5.000000, 2.000000)" fill="#84BA4D">
                        <path d="M56.5018,4.711 C61.8778,6.726 65.2718,12.037 64.7828,17.764 C62.6388,42.982 59.5878,86.617 65.3758,129.172 C71.9298,177.293 63.8538,211.547 59.5208,232.113 C55.1788,252.68 48.6308,257.044 48.5178,278.909 C48.4578,289.71 47.4388,299.801 46.4468,308.889 C46.6118,290.313 43.4048,276.655 44.1288,265.263 C45.1208,249.757 46.9978,238.084 48.9828,224.584 C50.6328,213.35 52.1058,187.746 51.9938,166.633 C51.8738,143.956 45.8818,118.467 44.8388,103.478 C43.7958,88.489 43.9358,65.965 45.0348,52.084 C46.1338,38.204 46.2718,7.839 39.6098,0.131 C44.1908,1.193 53.3708,3.543 56.5018,4.711" id="Fill-3"></path>
                        <path d="M40.8921,345.5933 L42.4951,346.2073 C40.2461,351.8463 36.4691,355.2063 32.5741,356.1623 C26.3161,357.7283 9.4041,354.2743 5.2041,336.6463 C0.9941,319.0193 1.2281,308.4353 4.4281,287.0433 C7.4331,266.9703 1.3161,245.3443 0.5501,242.7653 C5.3041,255.0483 9.4331,266.0783 10.7501,271.8803 C12.0671,277.7433 11.9991,289.4453 10.8461,298.3583 C9.9781,305.1653 9.2471,315.3863 11.6821,327.8043 C10.0041,330.3773 8.7141,334.9023 10.3961,341.4343 C13.0611,351.7153 19.8101,352.6633 23.0891,353.0473 C26.3491,353.4433 40.2171,353.0063 40.8761,345.7383 C40.8761,345.7383 40.8771,345.6873 40.8921,345.5933" id="Fill-5"></path>
                    </g>
                    <g id="outline" stroke="#84BA4D" stroke-width="3" stroke-linecap="round" stroke-linejoin="round">
                        <path d="M5.4263,244.4223 C4.8673,243.4793 -0.3767,234.5453 0.6273,232.0093" id="Stroke-8"></path>
                        <path d="M26.974,306.8293 C26.974,306.8293 36.622,305.9663 42.695,305.1353" id="Stroke-10"></path>
                        <path d="M30.9671,295.8001 C30.9671,295.8001 34.5421,295.7691 38.3291,295.8881" id="Stroke-12"></path>
                        <path d="M16.6819,329.8046 C15.0039,332.3776 13.7139,336.9026 15.3959,343.4346 C18.0609,353.7156 24.8109,354.6636 28.0889,355.0466 C31.3489,355.4436 45.2179,355.0066 45.8759,347.7376 C45.8759,347.7376 45.8769,347.6866 45.8919,347.5936 C46.0009,346.0646 46.9389,332.8376 46.0149,329.4436 C45.0359,325.8356 40.9139,324.8326 36.1499,325.6306 C31.3859,326.4286 21.4569,326.7746 19.4759,327.2986 C18.7479,327.4916 17.6509,328.3246 16.6819,329.8046 L16.6819,329.8046 Z" id="Stroke-14"></path>
                        <path d="M19.7004,0.501 C38.4524,-0.318 52.8704,3.492 61.5004,6.711 C66.8784,8.73 70.2704,14.032 69.7804,19.762 C67.6374,44.983 64.5844,88.617 70.3744,131.175 C76.9344,179.292 68.8524,213.548 64.5214,234.116 C60.1784,254.676 53.6304,259.048 53.5204,280.907 C53.4114,302.775 49.3164,321.793 49.5844,335.315 C49.6744,340.45 48.8734,344.752 47.4954,348.207 C45.2464,353.846 41.4694,357.206 37.5744,358.163 C31.3164,359.728 14.4034,356.275 10.2034,338.646 C5.9934,321.02 6.2284,310.435 9.4284,289.043 C12.4334,268.971 6.3164,247.344 5.5504,244.765" id="Stroke-16"></path>
                    </g>
                </g>
            </g>
        </g>
    </g>
</svg>