<?xml version="1.0" encoding="UTF-8" standalone="no"?>
<svg width="938px" height="822px" viewBox="0 0 938 822" version="1.1" xmlns="http://www.w3.org/2000/svg" xmlns:xlink="http://www.w3.org/1999/xlink" xmlns:sketch="http://www.bohemiancoding.com/sketch/ns">
    <!-- Generator: Sketch 3.4.4 (17249) - http://www.bohemiancoding.com/sketch -->
    <title>Group</title>
    <desc>Created with Sketch.</desc>
    <defs></defs>
    <g id="Page-2" stroke="none" stroke-width="1" fill="none" fill-rule="evenodd" sketch:type="MSPage">
        <g id="Desktop-HD" sketch:type="MSArtboardGroup" transform="translate(-251.000000, -1767.000000)">
            <g id="Group" sketch:type="MSLayerGroup" transform="translate(251.000000, 1767.000000)">
                <g id="hand-1-1" transform="translate(178.000000, 0.000000)" sketch:type="MSShapeGroup">
                    <path d="M223.5167,8.489 C214.8867,5.268 200.4647,1.462 181.7097,2.275 C166.6647,2.927 150.6357,7.343 140.6727,10.587 C134.9207,12.461 131.2647,18.082 131.9087,24.088 C133.1227,35.429 134.9927,53.714 135.5757,64.377 C136.4807,80.642 139.3407,86.854 128.4167,105.1 C128.4167,105.1 80.1897,185.31 74.4087,195.826 C68.6347,206.332 67.7547,216.028 62.2217,224.987 C56.6897,233.955 35.4637,272.172 31.1557,282.432 C26.8487,292.692 10.3067,321.554 9.6537,323.669 C9.6177,323.803 9.5537,323.95 9.4847,324.119 C8.4837,326.615 4.6547,332.666 3.7987,336.488 C2.3127,343.096 6.6987,345.922 8.7267,346.463 C8.7267,346.463 8.2677,347.459 7.5747,349.043 C5.2877,354.318 0.4527,366.104 1.7087,368.985 C2.7797,371.467 4.8297,375.761 9.0037,377.086 C11.1347,377.776 13.8297,377.687 17.2267,376.179 C27.2827,371.735 40.6577,348.148 40.9397,345.332 C40.9397,345.332 61.1947,323.107 65.0917,318.57 C65.4197,318.193 65.6317,317.942 65.7117,317.831 C65.7117,317.831 95.5837,286.207 97.5327,279.854 C97.5327,279.854 125.1697,260.403 127.3607,258.53 C127.3607,258.53 163.5877,240.017 167.4407,246.2 C167.4787,246.253 167.4937,246.28 167.4937,246.28 C167.4937,246.28 174.6407,269.442 171.4437,290.826 C168.2457,312.209 168.0037,322.796 172.2187,340.423 C176.4237,358.053 193.3297,361.502 199.5937,359.944 C205.8687,358.393 211.8447,350.613 211.5957,337.095 C211.3357,323.57 215.4277,304.55 215.5327,282.687 C215.6457,260.822 222.1937,256.458 226.5357,235.891 C230.8687,215.325 238.9447,181.071 232.3907,132.95 C226.6027,90.395 229.6527,46.76 231.7977,21.542 C232.2867,15.815 228.8927,10.504 223.5167,8.489" id="silo" fill="#FFFFFF"></path>
                    <g id="shadow" transform="translate(9.000000, 224.000000)" fill="#84BA4D">
                        <path d="M66.1975,11.4625 C62.3855,20.4165 53.8105,36.8015 47.5635,44.0705 C39.9985,52.8705 33.0805,66.6495 27.2805,74.7725 C21.4815,82.9055 12.3025,98.9505 9.3755,103.9615 C8.0985,106.1515 6.1105,109.9375 4.2835,113.5115 C5.0415,111.6725 5.6285,109.5685 5.4695,107.6285 C5.3845,106.5955 5.1045,105.6845 4.7235,104.8675 L3.4895,102.9255 C3.4895,102.9255 19.5835,74.8385 24.6525,66.5545 C29.7215,58.2705 36.1205,47.4445 41.6025,39.5805 C47.6655,30.8655 54.0505,20.0455 55.8675,15.9455 C60.3625,5.8105 61.6035,0.6505 63.9925,0.7225 C70.4085,0.9155 67.9055,6.9405 67.9055,6.9405 C67.5955,8.0095 67.0045,9.5665 66.1975,11.4625" id="Fill-3"></path>
                        <path d="M155.2618,16.1685 C122.5958,17.0425 99.6158,35.5205 90.1268,43.1175 C86.2428,46.2135 82.1428,49.4535 79.3218,52.5285 C75.2358,56.9895 71.7688,61.4635 67.5228,66.0785 C62.0208,72.0675 51.3088,84.2225 44.4708,92.1665 C42.4058,94.5575 39.0578,98.8775 37.9508,100.2175 C34.5858,104.3035 28.8688,110.6095 23.1228,118.4785 C20.7208,121.7775 17.6088,126.1295 15.6888,128.8585 C9.1718,138.1385 8.2148,140.2295 3.1778,142.3035 C2.0678,146.5985 0.1468,152.6515 0.1468,152.6515 L0.0038,153.0865 C2.1348,153.7765 4.8298,153.6865 8.2268,152.1785 C18.2828,147.7355 31.6578,124.1485 31.9388,121.3325 C31.9388,121.3325 52.1948,99.1075 56.0918,94.5705 C56.4198,94.1925 56.6318,93.9415 56.7108,93.8305 C56.7108,93.8305 86.5838,62.2065 88.5328,55.8545 C88.5328,55.8545 116.1698,36.4035 118.3608,34.5295 C118.3608,34.5295 154.5878,16.0175 158.4408,22.2005 C158.2218,21.8265 156.2568,18.1345 155.2618,16.1685" id="Fill-5"></path>
                    </g>
                    <g id="outline" fill="#84BA4D">
                        <path d="M10.5447567,377.194727 C10.5789778,377.10661 10.6403602,376.944461 10.7250299,376.714341 C10.8645011,376.33528 11.0194712,375.900465 11.1860666,375.415938 C11.660921,374.034869 12.1354019,372.528305 12.5784917,370.944103 C13.3267359,368.268866 13.9082692,365.647907 14.2583916,363.175311 C15.1012421,357.223025 14.5635925,352.671012 12.0283871,350.015833 L12.1287083,350.132308 C10.479336,348.006066 8.32037114,346.619244 6.67964101,347.838861 C6.49515766,347.97086 6.34338513,348.13781 6.20990066,348.326057 C5.73071457,349.001832 5.89008158,349.938113 6.56585683,350.417299 C7.24163209,350.896485 8.17791325,350.737118 8.65709934,350.061343 C8.61482975,350.120954 8.55854677,350.182865 8.44853166,350.261744 C8.25561709,350.405421 8.04979049,350.433524 7.93660128,350.408992 C8.0001188,350.422758 8.14129892,350.487365 8.32268723,350.603881 C8.78422393,350.900351 9.32586791,351.413645 9.75829169,351.971092 L9.85861291,352.087567 C11.5674567,353.877278 12.0120584,357.641501 11.288023,362.754704 C10.9583037,365.083211 10.4045019,367.579185 9.68936924,370.136036 C9.26295827,371.660606 8.80583113,373.112069 8.34907749,374.440493 C8.18961,374.904289 8.04180751,375.318993 7.90955973,375.678422 C7.83119802,375.891398 7.77612943,376.036868 7.74824331,376.108673 C7.44833783,376.880909 7.83123725,377.750051 8.6034731,378.049957 C9.37570895,378.349862 10.2448512,377.966963 10.5447567,377.194727 L10.5447567,377.194727 Z" id="Shape"></path>
                        <path d="M14.6185568,338.194248 C16.7343299,334.057611 18.5383202,330.659106 19.6708971,328.716786 C19.791084,328.511069 22.4965284,323.853331 23.5794892,322.002287 C25.5912988,318.563613 27.4405211,315.448459 29.2306405,312.499224 C29.7031477,311.720765 30.1664409,310.9624 30.6203886,310.224579 C33.3257341,305.827461 35.645817,302.245501 37.5014303,299.643034 C38.9126426,297.666948 40.4203264,295.32997 42.4146594,292.076143 C43.0675352,291.010952 46.6373581,285.107256 47.6894001,283.399208 C51.6303376,277.000876 54.6567985,272.589403 57.7015056,269.04811 C63.3279121,262.501232 71.8489013,247.157376 76.5772563,236.04971 C77.4142289,234.085726 78.0185269,232.487413 78.3458517,231.357614 C78.5763831,230.561909 78.1182193,229.72998 77.322514,229.499448 C76.5268088,229.268917 75.6948797,229.727081 75.4643483,230.522786 C75.1772465,231.51375 74.6110397,233.011315 73.8171807,234.874133 C69.1988252,245.723391 60.8115305,260.826502 55.4264865,267.092532 C52.2540484,270.782388 49.1527137,275.303 45.1350495,281.825901 C44.0749024,283.547109 40.5027885,289.454594 39.8568738,290.508427 C37.8962626,293.707236 36.421622,295.992996 35.0594186,297.900456 C33.1560389,300.569914 30.8031433,304.202534 28.0652651,308.652528 C27.6080808,309.39561 27.1416531,310.159105 26.6660899,310.942599 C24.866521,313.907402 23.0094367,317.035801 20.9900938,320.48735 C19.9041033,322.343573 17.1980394,327.002378 17.0799383,327.204526 C15.9108125,329.209525 14.0874556,332.644514 11.9476432,336.828152 C11.570406,337.565704 11.8624992,338.46942 12.6000516,338.846657 C13.337604,339.223894 14.2413196,338.931801 14.6185568,338.194248 L14.6185568,338.194248 Z" id="Shape"></path>
                        <path d="M10.1737346,346.984713 C10.2383422,346.854382 10.3609786,346.607689 10.5345557,346.259636 C10.8241013,345.679044 11.1504232,345.027067 11.5064292,344.318711 C12.5235494,342.294918 13.5744416,340.22541 14.602233,338.230491 C14.9816476,337.494056 14.6922255,336.589481 13.9557908,336.210067 C13.219356,335.830652 12.3147815,336.120074 11.935367,336.856509 C10.9025334,338.861215 9.84723808,340.939394 8.8259208,342.971539 C8.4684737,343.682761 8.14077213,344.337495 7.849888,344.920771 C7.67520731,345.271037 7.55150777,345.519868 7.48586542,345.652287 C7.11792611,346.394522 7.42135237,347.294495 8.16358695,347.662435 C8.90582152,348.030374 9.80579528,347.726948 10.1737346,346.984713 L10.1737346,346.984713 Z" id="Shape"></path>
                        <path d="M8.42218159,325.024988 C8.6024248,325.272594 10.3582725,326.780837 10.9305113,327.410567 C12.1222776,328.722068 12.8418848,330.130405 12.9749298,331.750936 C13.0943198,333.216867 12.701448,334.985676 11.896086,336.939582 L13.2829,337.5112 L12.9575043,336.046919 C11.9347465,336.673809 11.9347465,336.673809 11.8224008,337.144808 C11.8077443,337.203769 11.8077443,337.203769 11.8266141,337.131118 L13.2689,337.5432 L11.8836964,336.967691 C11.705307,337.397059 11.5093915,337.831516 11.2961007,338.274264 C10.8279115,339.246128 9.52015279,341.606964 9.42420293,341.845576 C9.11513101,342.614189 9.48766271,343.487825 10.2562758,343.796897 C11.0248888,344.105969 11.8985251,343.733437 12.2075971,342.964824 C12.220338,342.93314 13.4583266,340.698257 13.9988288,339.576286 C14.2351611,339.085709 14.4536032,338.601297 14.6541036,338.118709 L14.7111859,337.955282 C14.7362807,337.858724 14.7362807,337.858724 14.7254753,337.901219 C14.6186313,338.354542 14.6186313,338.354542 13.6082957,338.975481 C14.0866769,338.869174 14.4829662,338.535891 14.669714,338.082818 C15.6398843,335.729067 16.1293706,333.525275 15.9649499,331.506438 C15.7714339,329.149346 14.7530647,327.156306 13.150759,325.393019 C12.3599284,324.522735 10.7782171,323.164073 10.8476184,323.259412 C10.3600682,322.589646 9.42187822,322.441931 8.75211233,322.929482 C8.08234645,323.417032 7.93463143,324.355222 8.42218159,325.024988 L8.42218159,325.024988 Z" id="Shape"></path>
                        <path d="M41.364405,343.894058 C41.3119864,343.87856 41.2107838,343.848479 41.0693946,343.806198 C40.8330916,343.735534 40.5696214,343.656201 40.2858243,343.57006 C39.4754619,343.324093 38.6653195,343.073099 37.910671,342.832183 C37.7583526,342.783557 37.6096225,342.735758 37.4647751,342.688869 C36.1095807,342.250173 35.1324599,341.90111 34.8408322,341.750934 C34.1043239,341.371662 33.1998055,341.66126 32.8205338,342.397768 C32.4412621,343.134276 32.7308595,344.038795 33.4673678,344.418066 C33.9668644,344.675287 34.9969262,345.043262 36.5408362,345.543048 C36.689629,345.591214 36.8422099,345.64025 36.9983069,345.690083 C37.7681757,345.935858 38.5914448,346.190918 39.4144938,346.440737 C39.7023907,346.528121 39.9697792,346.608635 40.2098879,346.680437 C40.3543456,346.723635 40.4573195,346.754243 40.513795,346.770942 C41.3082247,347.005832 42.1426527,346.552235 42.3775421,345.757805 C42.6124315,344.963375 42.1588346,344.128947 41.364405,343.894058 L41.364405,343.894058 Z" id="Shape"></path>
                        <path d="M65.145052,317.07136 C65.0592561,317.068289 64.8922109,317.061136 64.6556498,317.049103 C64.258068,317.028881 63.8142322,317.00219 63.3359504,316.968252 C61.9718379,316.871458 60.6088411,316.736396 59.3440711,316.557694 C57.4801821,316.294342 56.0028664,315.95749 55.1166354,315.571294 C54.3571852,315.240345 53.4732424,315.587714 53.1422938,316.347165 C52.8113453,317.106615 53.1587144,317.990558 53.9181646,318.321506 C55.1135816,318.842438 56.8122991,319.229772 58.9243635,319.52819 C60.2658609,319.717733 61.6952935,319.859378 63.1236104,319.960728 C63.6226789,319.996141 64.0863827,320.024027 64.5032594,320.04523 C64.7553735,320.058054 64.9373819,320.065848 65.037748,320.06944 C65.8656451,320.099071 66.560809,319.451949 66.5904402,318.624052 C66.6200713,317.796155 65.972949,317.100991 65.145052,317.07136 L65.145052,317.07136 Z" id="Shape"></path>
                        <path d="M97.8330783,278.384302 C97.7586928,278.369119 97.6121843,278.33797 97.4039895,278.291684 C97.0531906,278.213693 96.6613548,278.122187 96.2389924,278.018029 C95.0343545,277.720955 93.8307772,277.383222 92.7147968,277.013155 C91.0228966,276.452108 89.6970853,275.867804 88.9269342,275.31867 C88.2524121,274.837721 87.3157181,274.994644 86.8347697,275.669166 C86.3538212,276.343688 86.5107437,277.280382 87.1852658,277.76133 C88.2565769,278.525198 89.8167151,279.212774 91.7705381,279.860676 C92.9691219,280.258135 94.2454349,280.616278 95.5206873,280.930766 C95.9662865,281.040654 96.380415,281.137367 96.7529174,281.220182 C96.9787034,281.27038 97.1421812,281.305137 97.2331217,281.323698 C98.0448136,281.489372 98.8371248,280.96567 99.0027983,280.153978 C99.1684717,279.342286 98.6447703,278.549975 97.8330783,278.384302 L97.8330783,278.384302 Z" id="Shape"></path>
                        <path d="M168.825132,245.589124 C168.782445,245.506799 168.725537,245.415401 168.652587,245.315575 L167.4415,246.2006 L168.731582,245.435297 C168.436874,244.938503 168.060849,244.28366 167.629017,243.497288 C166.97495,242.306224 166.355192,241.105184 165.812817,239.952219 C164.482873,237.125062 163.819056,234.89049 164.037104,234.33994 C164.342153,233.569722 163.965059,232.698045 163.19484,232.392996 C162.424622,232.087947 161.552945,232.465041 161.247896,233.23526 C160.580788,234.919641 161.353223,237.519846 163.098183,241.229231 C163.669815,242.44439 164.317341,243.699243 164.999421,244.941318 C165.448578,245.759239 165.840786,246.442266 166.151418,246.965903 L166.230413,247.085625 C166.214463,247.063799 166.190555,247.025401 166.161868,246.970076 C166.543207,247.705516 167.448536,247.992571 168.183976,247.611232 C168.919416,247.229893 169.206471,246.324564 168.825132,245.589124 L168.825132,245.589124 Z" id="Shape"></path>
                        <path d="M189.122439,310.101435 C189.284437,310.086944 189.586922,310.059449 190.00985,310.020304 C190.714055,309.955124 191.498574,309.88101 192.34338,309.799314 C194.757638,309.565848 197.172131,309.318347 199.427232,309.067552 C201.220891,308.868076 202.83945,308.674576 204.241353,308.489748 C204.471504,308.459405 204.695486,308.429336 204.913158,308.399551 C205.733936,308.28724 206.308263,307.530821 206.195951,306.710042 C206.08364,305.889264 205.327221,305.314937 204.506442,305.427249 C204.293725,305.456356 204.074599,305.485772 203.849224,305.515486 C202.4697,305.697363 200.870566,305.888541 199.09564,306.085934 C196.856462,306.334957 194.455658,306.581056 192.054618,306.813244 C191.214069,306.894528 190.433616,306.968258 189.733359,307.033072 C189.31361,307.071923 189.014182,307.099141 188.855161,307.113365 C188.030028,307.187172 187.420958,307.915907 187.494765,308.741039 C187.568572,309.566172 188.297307,310.175242 189.122439,310.101435 L189.122439,310.101435 Z" id="Shape"></path>
                        <path d="M192.994807,299.078144 C193.04444,299.077712 193.143972,299.077037 193.286581,299.076365 C195.331895,299.06672 197.829508,299.087933 200.296688,299.16546 C201.124707,299.191479 201.817041,298.54133 201.84306,297.713312 C201.869079,296.885293 201.21893,296.192959 200.390912,296.16694 C197.881738,296.088094 195.350806,296.066597 193.272435,296.076398 C193.125784,296.07709 193.024028,296.077779 192.968793,296.078256 C192.140398,296.08544 191.474673,296.762811 191.481856,297.591207 C191.48904,298.419602 192.166411,299.085327 192.994807,299.078144 L192.994807,299.078144 Z" id="Shape"></path>
                        <path d="M95.7695995,188.049449 C95.8219836,187.954985 95.8219836,187.954985 96.0706464,187.506469 C96.4109064,186.892671 96.4109064,186.892671 96.9212762,185.9718 C97.8373102,184.318871 98.8580267,182.476325 99.9572573,180.491139 C103.097938,174.819138 106.238629,169.14036 109.170008,163.830581 C109.215196,163.748727 109.215196,163.748727 109.260385,163.666872 C115.985705,151.484414 120.570932,143.125323 122.068165,140.29054 C122.455062,139.558008 122.174871,138.650532 121.44234,138.263635 C120.709808,137.876738 119.802332,138.156929 119.415435,138.88946 C117.931161,141.699707 113.345892,150.058874 106.634013,162.216985 C106.588837,162.298818 106.588837,162.298818 106.543661,162.380649 C103.612962,167.689197 100.472855,173.366918 97.3327391,179.037899 C96.2336906,181.022756 95.213148,182.864989 94.2972828,184.517613 C93.787023,185.438286 93.787023,185.438286 93.4468633,186.051903 C93.1982964,186.500246 93.1982964,186.500246 93.1460005,186.594551 C92.7442415,187.319038 93.0058642,188.232041 93.730351,188.6338 C94.4548379,189.035558 95.3678406,188.773936 95.7695995,188.049449 L95.7695995,188.049449 Z" id="Shape"></path>
                        <path d="M37.885902,276.165439 C37.8335043,276.140445 37.7233318,276.084314 37.5760086,276.002875 C37.328051,275.865807 37.0807436,275.714105 36.8565794,275.556214 C36.5839986,275.364222 36.3728299,275.181001 36.2538751,275.036593 C35.7271574,274.397172 34.7818147,274.305807 34.1423932,274.832525 C33.5029716,275.359243 33.4116071,276.304585 33.9383249,276.944007 C34.2533751,277.32647 34.6553535,277.675246 35.1290361,278.008885 C35.6779575,278.395519 36.2129266,278.691244 36.594298,278.873161 C37.3420149,279.229828 38.2372945,278.912819 38.5939611,278.165102 C38.9506277,277.417385 38.6336188,276.522105 37.885902,276.165439 L37.885902,276.165439 Z" id="Shape"></path>
                        <path d="M39.3817038,271.870166 L37.5807038,270.753166 C36.8766879,270.316528 35.9520048,270.53328 35.5153664,271.237296 C35.078728,271.941312 35.2954803,272.865995 35.9994962,273.302634 L37.8004962,274.419634 C38.5045121,274.856272 39.4291952,274.63952 39.8658336,273.935504 C40.302472,273.231488 40.0857197,272.306805 39.3817038,271.870166 L39.3817038,271.870166 Z" id="Shape"></path>
                        <path d="M40.6559252,298.336163 L38.9859252,296.542163 C38.4214695,295.935795 37.47233,295.901819 36.8659626,296.466275 C36.2595953,297.03073 36.2256192,297.97987 36.7900748,298.586237 L38.4600748,300.380237 C39.0245305,300.986605 39.97367,301.020581 40.5800374,300.456125 C41.1864047,299.89167 41.2203808,298.94253 40.6559252,298.336163 L40.6559252,298.336163 Z" id="Shape"></path>
                        <path d="M37.865545,301.931749 L35.965545,300.576749 C35.2910665,300.095739 34.3543583,300.252577 33.8733487,300.927055 C33.392339,301.601533 33.5491765,302.538242 34.223655,303.019251 L36.123655,304.374251 C36.7981335,304.855261 37.7348417,304.698423 38.2158513,304.023945 C38.696861,303.349467 38.5400235,302.412758 37.865545,301.931749 L37.865545,301.931749 Z" id="Shape"></path>
                        <path d="M76.6261829,235.005482 L74.9211829,229.675482 C74.668779,228.886443 73.8245221,228.451413 73.0354823,228.703817 C72.2464425,228.956221 71.8114132,229.800478 72.0638171,230.589518 L73.7688171,235.919518 C74.021221,236.708557 74.8654779,237.143587 75.6545177,236.891183 C76.4435575,236.638779 76.8785868,235.794522 76.6261829,235.005482 L76.6261829,235.005482 Z" id="Shape"></path>
                        <path d="M168.996952,246.084391 C168.940212,245.893941 168.940212,245.893941 168.929454,245.857452 C168.695148,245.06285 167.861054,244.60864 167.066452,244.842946 C166.27185,245.077252 165.81764,245.911346 166.051946,246.705948 C166.064188,246.747459 166.064188,246.747459 166.122448,246.943009 C166.359549,247.736782 167.195237,248.188053 167.989009,247.950952 C168.782782,247.713851 169.234053,246.878163 168.996952,246.084391 L168.996952,246.084391 Z" id="Shape"></path>
                        <path d="M168.709908,245.407545 C166.466892,241.801448 159.06915,243.283788 147.016026,248.011197 C145.185861,248.729014 143.283861,249.513897 141.326533,250.355285 C137.846918,251.851053 134.357748,253.452535 131.026207,255.053994 C129.860071,255.614551 128.796621,256.135219 127.856865,256.602752 C127.527451,256.766637 127.236866,256.912258 126.98774,257.037957 C126.837472,257.113776 126.734964,257.165831 126.679754,257.194035 C126.574437,257.247842 126.475853,257.313915 126.386056,257.390878 C125.525817,258.12817 120.119583,262.025471 111.853164,267.894625 C111.751138,267.967061 111.751138,267.967061 111.649106,268.039494 C108.373031,270.365126 104.86268,272.848172 101.352292,275.325316 C100.123627,276.192337 98.9827322,276.99668 97.9588766,277.71794 C97.3884726,278.11971 97.3884726,278.11971 97.0082541,278.387398 C96.7304448,278.582943 96.7304448,278.582943 96.6720863,278.624001 C96.3994308,278.815828 96.198448,279.093019 96.1008795,279.411796 C95.4272949,281.612541 90.3059496,288.191306 82.3493533,297.300696 C81.7620527,297.973088 81.1616087,298.656735 80.5488884,299.350781 C77.0655472,303.296464 73.3318455,307.414687 69.5979464,311.45909 C68.290944,312.87478 67.0773733,314.180014 65.9884429,315.344076 C65.6074802,315.751323 65.269367,316.111773 64.9780027,316.42159 C64.8034596,316.607187 64.6834588,316.73448 64.6218993,316.799633 L64.4908826,316.958948 C64.46137,317.000337 64.3555604,317.126849 63.9530678,317.60059 C62.4329617,319.367123 58.2895942,323.98067 52.3458441,330.5428 C52.2865856,330.608223 52.2865856,330.608223 52.2273253,330.673644 C49.5147704,333.668168 46.6082962,336.868694 43.7017989,340.063861 C42.684507,341.182189 41.7398843,342.219958 40.8921607,343.150755 C40.4198759,343.669274 40.4198759,343.669274 40.1050505,344.014806 C39.8750119,344.267244 39.8750119,344.267244 39.8266611,344.320285 C39.6090932,344.558957 39.4743662,344.861476 39.4425135,345.182857 C39.4001554,345.610234 38.5312481,347.556906 37.2079078,349.999699 C35.6582611,352.860237 33.6486332,356.156985 31.5065963,359.301739 C26.131504,367.192986 20.7642658,372.978754 16.6200073,374.809747 C13.7554452,376.075581 11.4065872,376.290131 9.46791357,375.656928 C6.60653264,374.753079 4.80096804,372.358281 3.08040503,368.390093 C2.33783361,366.683478 5.0534192,358.633118 8.94674621,349.63972 C9.24578296,348.958895 9.52594539,348.332917 9.77688867,347.781398 C9.92681911,347.451884 10.0332296,347.221394 10.0889483,347.102255 C10.4844945,346.256487 10.0195274,345.258737 9.11749447,345.017661 C6.37204949,344.283918 4.24205714,341.357949 5.25715179,336.811672 C5.52553954,335.624188 6.15850283,334.048637 7.13709209,332.049467 C7.39840813,331.515622 7.68278312,330.954237 8.00553556,330.332439 C8.36341009,329.642976 9.53009766,327.444777 9.6628459,327.191296 C10.2646702,326.042122 10.6360777,325.283124 10.8806459,324.672558 C10.8875855,324.654988 10.8875855,324.654988 10.8907947,324.646853 C10.9331833,324.54065 10.9628593,324.4665 10.9822693,324.416804 C11.0257727,324.305422 11.0591378,324.213515 11.08892,324.118212 C11.2095938,323.724656 12.4115627,321.422387 14.6981543,317.207952 C14.5681581,317.447549 20.3960588,306.752529 22.2293527,303.351814 C22.4714713,302.90269 22.70894,302.461486 22.9422511,302.027261 C27.7476571,293.083719 30.9507455,286.798653 32.5420028,283.013054 C36.2544334,274.161531 56.5280851,237.078845 63.5026796,225.777582 C65.859147,221.953494 67.2690141,218.520389 69.5165709,211.8452 C72.2689528,203.670692 73.3533818,200.857598 75.720809,196.549159 C78.082488,192.251484 87.6718616,176.056012 102.17053,151.798027 C102.294239,151.591049 102.294239,151.591049 102.417952,151.384077 C108.386868,141.3981 114.782241,130.724225 121.177629,120.067368 C123.416026,116.337449 125.494535,112.876089 127.359853,109.771394 C128.012705,108.684767 128.592273,107.720344 129.091895,106.889139 C129.598158,106.046954 129.598158,106.046954 129.704689,105.869792 C135.390046,96.3754702 137.688357,89.6885437 138.04247,82.4915103 C138.201906,79.2511118 138.128555,77.9893861 137.473205,69.9160013 C137.294995,67.7206011 137.175154,66.0503079 137.077914,64.2910183 C136.581572,55.3240594 135.180374,40.51858 133.394586,23.9272762 C132.829545,18.6329876 136.057286,13.6670128 141.138304,12.0098709 C155.112326,7.46501778 169.238009,4.31574701 181.779526,3.77742008 C197.525067,3.08972862 211.353042,5.55459992 222.991121,9.8942685 C227.751421,11.6813763 230.732037,16.3683393 230.300657,21.4119721 C226.697581,63.8166227 226.151749,98.2328783 230.902892,133.155012 C235.289717,165.332639 233.715365,192.108878 228.025631,221.31496 C227.55998,223.7052 227.073915,226.089169 226.49058,228.867604 C226.198453,230.259011 225.232699,234.80541 225.068388,235.585723 C224.087715,240.228282 222.95736,244.255777 221.503964,248.549214 C220.815569,250.582779 218.533257,256.86784 218.288167,257.569108 C215.336337,266.015076 214.085541,272.570987 214.034219,282.677183 C213.990732,291.482933 213.389807,299.44802 212.070238,311.61095 C210.206487,328.789786 209.983942,331.292278 210.099495,337.122523 C210.182376,341.852529 209.485672,345.997315 208.116929,349.429105 C206.138818,354.388897 202.837594,357.598058 199.231295,358.484124 C195.974355,359.298606 190.511079,358.48043 185.82259,356.048628 C179.825547,352.938113 175.475277,347.623278 173.677356,340.077145 C169.687823,323.373226 169.597445,313.299781 172.926695,291.042704 C174.27798,282.01675 173.947459,272.091628 172.401367,261.89701 C171.839342,258.191135 171.145536,254.659451 170.377233,251.384073 C169.860793,249.182418 169.378823,247.380665 169.003116,246.115718 C168.767245,245.32158 167.932257,244.869014 167.138118,245.104884 C166.34398,245.340755 165.891414,246.175743 166.127284,246.969882 C166.486872,248.180556 166.953829,249.926183 167.45651,252.069184 C168.207293,255.269873 168.885811,258.723735 169.435283,262.34684 C170.940005,272.268673 171.260976,281.907008 169.959733,290.598709 C166.577667,313.208873 166.671414,323.657811 170.759235,340.773256 C172.765104,349.192175 177.69134,355.210682 184.44131,358.711722 C189.751711,361.466094 195.956852,362.395371 199.953113,361.395986 C204.559859,360.264124 208.586595,356.349682 210.903477,350.54048 C212.425613,346.724094 213.188657,342.184643 213.09897,337.066519 C212.987136,331.423745 213.209018,328.928721 215.052736,311.934524 C216.382564,299.677037 216.990068,291.624752 217.034182,282.692208 C217.083716,272.937993 218.2726,266.70659 221.120187,258.558887 C221.355016,257.886979 223.644335,251.582622 224.345565,249.511141 C225.835093,245.110968 226.997065,240.970822 228.003815,236.204812 C228.167521,235.427371 229.133523,230.8798 229.426569,229.484017 C230.012668,226.69242 230.501517,224.2948 230.970274,221.888616 C236.718294,192.383339 238.311401,165.288134 233.875452,132.750177 C229.161137,98.0987393 229.704026,63.8679922 233.289814,21.6667957 C233.836036,15.2804588 230.060755,9.34390062 224.0424,7.08449948 C212.041478,2.60952817 197.817627,0.0740910213 181.649749,0.780228608 C168.787175,1.33233604 154.420592,4.53531481 140.209267,9.15734784 C133.781962,11.2535719 129.695872,17.5401429 130.411671,24.2469859 C132.19202,40.7877608 133.589995,55.5591852 134.082493,64.4567015 C134.181384,66.2458818 134.302922,67.9398194 134.48304,70.1587253 C135.125007,78.0672457 135.19624,79.2925202 135.046095,82.3440806 C134.718299,89.0062339 132.579111,95.2301934 127.132289,104.326177 C127.027048,104.501187 127.027048,104.501187 126.520643,105.343609 C126.020919,106.174984 125.441247,107.13958 124.788289,108.226384 C122.92272,111.331495 120.843954,114.793285 118.605286,118.523655 C112.209061,129.181907 105.81282,139.857229 99.8428973,149.84489 C99.7191605,150.051904 99.7191605,150.051904 99.5954267,150.258922 C85.0609884,174.576755 75.4804444,190.757314 73.0916124,195.104402 C70.6089618,199.622533 69.4832983,202.542593 66.6734083,210.887898 C64.4945509,217.359052 63.152113,220.627963 60.9491871,224.202883 C53.9001957,235.624694 33.5604105,272.828346 29.7759363,281.851643 C28.2355631,285.516188 25.0576331,291.751889 20.2995626,300.607332 C20.0669188,301.040315 19.8301057,301.480301 19.5886332,301.928227 C17.7591663,305.321843 11.9341186,316.011627 12.0612675,315.777278 C9.50999805,320.479543 8.43593575,322.536818 8.22307818,323.231147 C8.22033199,323.239861 8.20824379,323.273159 8.18785365,323.325364 C8.17398771,323.360865 8.15035499,323.419915 8.10038047,323.545223 C8.0962006,323.555819 8.0962006,323.555819 8.09196867,323.566586 C7.900361,324.044841 7.56157819,324.737168 7.00523336,325.7995 C6.87872636,326.041063 5.70850638,328.245918 5.34286443,328.950345 C5.00995617,329.591709 4.71520913,330.17357 4.44258672,330.730513 C3.36938862,332.92296 2.66295373,334.681394 2.33010233,336.154126 C0.937137489,342.392737 4.14015327,346.792718 8.34290553,347.915939 L8.7302,346.4668 L7.3714517,345.831345 C7.31142043,345.959706 7.20064339,346.199653 7.04626133,346.538952 C6.79001711,347.10212 6.50449204,347.74008 6.19681943,348.44062 C1.62424772,359.002988 -0.952282536,366.641118 0.328761893,369.585273 C2.37141997,374.296323 4.61307672,377.269528 8.55042099,378.513148 C11.2242256,379.386532 14.3262854,379.103183 17.832485,377.553813 C22.6500588,375.42534 28.3091291,369.324983 33.9860537,360.990611 C38.3821652,354.536619 42.2350403,347.424485 42.4278865,345.478743 L42.0437389,346.341315 C42.092293,346.288051 42.092293,346.288051 42.322553,346.035371 C42.6376097,345.689585 42.6376097,345.689585 43.1101481,345.170787 C43.9582612,344.239563 44.903285,343.201354 45.9209969,342.082564 C48.8287966,338.885965 51.7366192,335.683954 54.4507414,332.6877 C54.510042,332.622234 54.510042,332.622234 54.5693412,332.556766 C60.5358974,325.969457 64.6826282,321.352165 66.2332077,319.550173 C66.7748396,318.912708 66.8255223,318.852109 66.9335174,318.700652 L65.7122,317.8298 L66.8025007,318.859967 C66.865638,318.793144 66.9872371,318.664156 67.1634036,318.476832 C67.4565553,318.165116 67.7964805,317.802733 68.1792854,317.393517 C69.2725479,316.224824 70.4905636,314.91481 71.8021928,313.494108 C75.5500981,309.434534 79.2982008,305.300426 82.7978769,301.336241 C83.4140388,300.638296 84.0179707,299.950678 84.6088181,299.274226 C93.0131682,289.652209 98.1065242,283.109399 98.9695205,280.289804 L98.3983137,281.077599 C98.4570036,281.036307 98.4570036,281.036307 98.7351742,280.840508 C99.1157702,280.572554 99.1157702,280.572554 99.686588,280.170492 C100.711079,279.448785 101.852628,278.64398 103.081979,277.776475 C106.594494,275.29783 110.107047,272.813227 113.385682,270.485778 C113.487808,270.413278 113.487808,270.413278 113.589929,270.340774 C122.066087,264.322706 127.366336,260.501808 128.338344,259.668722 L128.044646,259.865565 C128.093364,259.840671 128.193442,259.78985 128.339146,259.716334 C128.583306,259.59314 128.868852,259.450045 129.193141,259.288709 C130.12111,258.82704 131.172427,258.312313 132.32593,257.757828 C135.621929,256.173454 139.073774,254.589103 142.511304,253.111427 C144.440273,252.282229 146.312756,251.509527 148.111428,250.804062 C158.151996,246.866007 165.205027,245.452738 166.162492,246.992055 C166.600042,247.695504 167.525005,247.911058 168.228455,247.473508 C168.931904,247.035958 169.147458,246.110995 168.709908,245.407545 L168.709908,245.407545 Z" id="Shape"></path>
                        <path d="M177.440274,330.763313 C175.111377,334.334381 174.382804,339.469184 175.958086,345.58675 C177.254114,350.586557 179.574298,353.96259 182.713397,355.990419 C184.937501,357.427169 186.96021,357.96762 189.929625,358.314565 C192.37501,358.61238 196.80088,358.365386 200.329471,357.501965 C205.5907,356.214579 209.017551,353.705675 209.384592,349.650929 L209.390412,349.545106 C209.389562,349.588431 209.387719,349.609573 209.387562,349.610549 L209.402903,349.478362 C209.467896,348.566664 209.528782,347.652479 209.599245,346.456196 C209.706871,344.628976 209.79539,342.801296 209.854718,341.046768 C210.022962,336.071294 209.941055,332.532137 209.477023,330.827673 C208.308313,326.520516 203.752404,324.951826 197.916893,325.929311 C196.328297,326.195411 194.103014,326.423394 190.813968,326.684485 C190.621549,326.699759 185.807193,327.065356 184.647036,327.166652 C182.83871,327.32454 181.739129,327.459399 181.107123,327.626573 C179.877812,327.952475 178.514819,329.122106 177.441754,330.761049 L177.440274,330.763313 Z M179.951646,332.404351 C180.65464,331.330634 181.464842,330.635373 181.875086,330.526613 C182.272731,330.421431 183.2933,330.296263 184.907979,330.155282 C186.048182,330.055728 190.843682,329.691563 191.051367,329.675077 C194.424752,329.407292 196.711614,329.172999 198.412507,328.888089 C202.918331,328.133335 205.917684,329.166071 206.582046,331.614508 C206.93342,332.905164 207.012608,336.326791 206.856432,340.945382 C206.798029,342.672522 206.710688,344.475906 206.604436,346.279797 C206.534804,347.461973 206.474686,348.364627 206.410497,349.265038 L207.9067,349.3717 L206.425838,349.132851 C206.403181,349.273327 206.392838,349.391969 206.390988,349.486294 L207.8907,349.5157 L206.396808,349.380471 C206.176855,351.810322 203.771786,353.571149 199.616429,354.587935 C196.443277,355.364383 192.381786,355.591042 190.285029,355.3357 C187.727124,355.036818 186.087985,354.598854 184.341253,353.470481 C181.856236,351.865183 179.975233,349.128189 178.862711,344.836316 C177.492353,339.514564 178.097897,335.246844 179.953126,332.402087 L179.951646,332.404351 Z" id="Shape"></path>
                    </g>
                </g>
                <g id="laptop" transform="translate(0.000000, 324.000000)" sketch:type="MSShapeGroup">
                    <path d="M850.69308,467.525358 L850.69308,30.4069881 C850.69308,14.7176608 837.991754,2 822.324151,2 L115.675849,2 C100.008246,2 87.3069199,14.7176608 87.3069199,30.4069881 L87.3069199,467.525358 L2,467.525358 L2,486.144228 L2,486.144228 C9.0415622,492.489655 18.1787667,496 27.6512231,496 L910.348777,496 C919.821233,496 928.958438,492.489655 936,486.144228 L936,467.525358 L850.69308,467.525358 Z" id="silo" fill="#FFFFFF"></path>
                    <g id="shadow" transform="translate(2.000000, 2.000000)" fill="#84BA4D">
                        <path d="M823.18253,429.068921 L112.816194,429.068921 L112.816194,30.1663043 L823.18253,30.1663043 L823.18253,429.068921 Z M821.608259,0 L114.391741,0 C98.7115393,0 86,12.6772271 86,28.3151034 L86,464 L850,464 L850,28.3151034 C850,12.6772271 837.288461,0 821.608259,0 L821.608259,0 Z" id="Fill-3"></path>
                        <path d="M908.348777,494 L25.6499483,494 C16.177492,494 7.04028748,490.437451 0,484 L0,484 L934,484 L934,484 C926.958438,490.437451 917.821233,494 908.348777,494" id="Fill-5"></path>
                        <path d="M531,465 L531,465 C531,468.850588 527.914353,472 524.14457,472 L409.85543,472 C406.085647,472 403,468.850588 403,465 L403,465" id="Fill-7"></path>
                    </g>
                    <g id="outline" fill="#84BA4D">
                        <path d="M474,17 C474,19.2084582 472.20979,21 470,21 C467.791542,21 466,19.2084582 466,17 C466,14.7915418 467.791542,13 470,13 C472.20979,13 474,14.7915418 474,17" id="Fill-9"></path>
                        <path d="M936,484.5 L2,484.5 L3.5,486 L3.5,467 L2,468.5 L936,468.5 L934.5,467 L934.5,486 L936,484.5 L936,484.5 Z M936,487.5 C936.828427,487.5 937.5,486.828427 937.5,486 L937.5,467 C937.5,466.171573 936.828427,465.5 936,465.5 L2,465.5 C1.17157288,465.5 0.5,466.171573 0.5,467 L0.5,486 C0.5,486.828427 1.17157288,487.5 2,487.5 L936,487.5 L936,487.5 Z" id="Shape"></path>
                        <path d="M823.608259,0.5 L116.390465,0.5 C99.8838108,0.5 86.5,13.8480983 86.5,30.3151034 L86.5,466 C86.5,466.828427 87.1715729,467.5 88,467.5 L852,467.5 C852.828427,467.5 853.5,466.828427 853.5,466 L853.5,30.3151034 C853.5,13.8478911 840.115982,0.5 823.608259,0.5 L823.608259,0.5 Z M823.608259,3.5 C838.46094,3.5 850.5,15.5065632 850.5,30.3151034 L850.5,466 L852,464.5 L88,464.5 L89.5,466 L89.5,30.3151034 C89.5,15.5067495 101.538873,3.5 116.390465,3.5 L823.608259,3.5 L823.608259,3.5 Z" id="Shape"></path>
                        <path d="M825,31.5 L115,31.5 C114.171573,31.5 113.5,32.1715729 113.5,33 L113.5,432 C113.5,432.828427 114.171573,433.5 115,433.5 L825,433.5 C825.828427,433.5 826.5,432.828427 826.5,432 L826.5,33 C826.5,32.1715729 825.828427,31.5 825,31.5 L825,31.5 Z M825,34.5 L823.5,33 L823.5,432 L825,430.5 L115,430.5 L116.5,432 L116.5,33 L115,34.5 L825,34.5 L825,34.5 Z" id="Shape"></path>
                        <path d="M910.348777,494.5 L27.6499483,494.5 C18.5531464,494.5 9.77675452,491.078328 3.01220666,484.893005 L2,487.5 L936,487.5 L934.987893,484.892914 C928.221922,491.078418 919.44544,494.5 910.348777,494.5 L910.348777,494.5 Z M910.348777,497.5 C920.196165,497.5 929.694314,493.79707 937.012107,487.107086 C938.022504,486.183373 937.368995,484.5 936,484.5 L2,484.5 C0.63107082,484.5 -0.0224717268,486.183235 0.987793344,487.106995 C8.30421183,493.796933 17.8023641,497.5 27.6499483,497.5 L910.348777,497.5 L910.348777,497.5 Z" id="Shape"></path>
                        <path d="M531.5,467 C531.5,470.028594 529.079324,472.5 526.14457,472.5 L411.85543,472.5 C408.920676,472.5 406.5,470.028594 406.5,467 C406.5,466.171573 405.828427,465.5 405,465.5 C404.171573,465.5 403.5,466.171573 403.5,467 C403.5,471.671681 407.249736,475.5 411.85543,475.5 L526.14457,475.5 C530.750264,475.5 534.5,471.671681 534.5,467 C534.5,466.171573 533.828427,465.5 533,465.5 C532.171573,465.5 531.5,466.171573 531.5,467 L531.5,467 Z" id="Shape"></path>
                    </g>
                </g>
                <text id="We-knead-your-digita" sketch:type="MSTextLayer" font-family="Galano Grotesque DEMO" font-size="62" font-weight="bold" sketch:alignment="middle" line-spacing="83" fill="#051923">
                    <tspan x="237.449" y="554">We knead your </tspan>
                    <tspan x="268.232" y="637">digital needs</tspan>
                </text>
                <g id="hand-2" transform="translate(536.000000, 21.000000)" sketch:type="MSShapeGroup">
                    <path d="M141.6556,218.2653 C140.7706,210.7353 139.6076,120.5743 137.9496,106.0593 C136.6976,91.5943 149.1026,59.6663 156.3106,35.4103 C158.0096,29.6783 155.5106,23.5553 150.3096,20.6063 C141.7076,15.7443 127.7606,8.7123 113.5586,5.1673 C98.7676,1.4753 84.0786,2.1553 75.4556,3.1153 C70.6196,3.6483 66.4876,6.8533 64.8186,11.4293 C56.6896,33.7153 50.9666,67.0823 23.3156,105.3893 C-7.4724,148.0543 3.5046,203.9193 8.8476,225.8983 C12.7086,241.7893 12.7846,246.4623 12.5296,247.8403 C12.4386,248.3653 12.2896,248.4073 12.2896,248.4073 C-0.8584,245.6223 2.9326,264.6983 9.0446,276.5463 C10.1226,280.0773 11.2446,283.3103 12.4086,286.2563 L12.7926,286.2733 C12.6186,290.2373 12.3926,294.2883 12.0996,298.3323 C10.6446,318.5443 15.3996,332.7593 28.6826,332.4943 C36.8796,332.3223 42.9826,325.8803 47.9806,316.4173 L47.9896,316.4193 C48.4836,316.2743 48.7506,316.1623 48.7506,316.1623 C49.4616,316.3393 48.5086,315.0973 65.2756,314.4993 C82.0426,313.9013 96.9026,282.6143 111.2306,274.6153 C125.5706,266.6093 128.8726,253.3423 128.6446,251.2663 C128.4076,249.1883 129.7676,243.7393 134.9756,240.0083 C140.1836,236.2753 142.5526,225.7883 141.6556,218.2653" id="silo" fill="#FFFFFF"></path>
                    <g id="shadow" transform="translate(2.000000, 2.000000)" fill="#84BA4D">
                        <path d="M56.3704,262.6728 L56.6484,262.6328 C56.6484,262.6328 59.0094,267.0808 62.7064,271.1558 C60.7674,273.8248 58.8744,276.1068 57.1994,277.6378 C57.3614,272.2088 56.8284,266.9338 56.1474,261.4938 L56.2084,261.4888 C56.2554,261.8978 56.3074,262.2888 56.3704,262.6728" id="Fill-3"></path>
                        <path d="M57.6093,214.1634 C57.6093,214.1634 57.5643,212.0334 57.0183,211.7884 C64.6543,205.5004 81.6813,212.1074 77.6263,223.9734 C72.8943,237.8284 78.9573,243.1404 73.8923,252.8754 C73.1063,254.3894 72.2253,256.0094 71.2703,257.6804 C61.0933,251.3614 56.5143,240.6614 55.9153,240.1534 L55.7673,240.1864 C54.5233,235.0924 57.5053,229.4024 55.6703,222.6494 C53.8353,215.8964 57.6093,214.1634 57.6093,214.1634" id="Fill-5"></path>
                        <path d="M71.2706,257.6805 C68.7056,262.2215 65.6506,267.1275 62.7056,271.1555 C59.0096,267.0805 56.6486,262.6325 56.6486,262.6325 L56.3706,262.6725 C56.3066,262.2895 56.2556,261.8985 56.2086,261.4885 C55.2486,253.1835 55.7676,240.1865 55.7676,240.1865 L55.9156,240.1535 C56.5146,240.6615 61.0936,251.3615 71.2706,257.6805" id="Fill-7"></path>
                        <path d="M17.4181,274.1421 C16.5851,286.7631 15.1611,295.4571 15.1611,295.4571 C12.7361,294.0961 11.7881,294.8641 11.9021,299.4271 C12.0281,303.9831 12.2081,316.3701 14.5831,321.9941 C16.2691,325.9951 25.2201,331.9291 32.7051,328.5171 L32.9351,329.0321 C30.9881,329.9381 28.9101,330.4531 26.6821,330.4941 C13.4001,330.7591 8.6441,316.5441 10.0991,296.3321 C10.3931,292.2881 10.6181,288.2371 10.7921,284.2731 C11.4931,268.3971 11.2931,253.7781 10.5581,245.8471 L10.5301,245.8401 C10.7851,244.4621 10.7081,239.7891 6.8481,223.8981 C1.5041,201.9191 -9.4729,146.0541 21.3151,103.3891 C48.9661,65.0831 54.6901,31.7151 62.8181,9.4291 C64.4871,4.8531 68.6191,1.6481 73.4561,1.1151 C79.4511,0.4441 88.3951,-0.0889 98.2521,0.9001 C85.2131,1.0261 78.0211,17.8081 74.0491,30.7291 C70.0641,43.7071 64.9821,64.2671 51.3541,86.3931 C37.7261,108.5201 23.6151,129.1931 17.8511,152.2881 C12.0881,175.3731 13.9161,200.5621 17.2791,239.2411 C18.3651,251.7441 18.0771,264.1731 17.4181,274.1421" id="Fill-9"></path>
                        <path d="M56.1494,261.4891 C57.4844,272.2011 58.2694,282.2711 54.2674,294.1351 C51.7714,301.5311 49.0794,308.5581 45.9774,314.4211 C42.3444,321.2961 38.1284,326.5821 32.9444,329.0191 L32.7084,328.5171 C35.7564,327.1241 38.5544,324.1741 40.5294,318.9051 C40.5294,318.9051 40.4794,321.4591 40.5294,318.9051 C51.7234,296.1901 50.8804,286.1881 50.9924,279.1771 C51.1014,272.1751 45.9284,241.3231 45.9284,241.3231 C45.9284,241.3231 42.6304,216.0521 56.6214,211.9071 C56.4634,212.0431 56.2914,212.2781 56.0954,212.6521 C54.6774,215.3181 53.4394,219.5341 54.0164,239.8901 C54.2504,247.7501 55.3054,254.7541 56.1494,261.4891" id="Fill-11"></path>
                    </g>
                    <g id="outline" fill="#84BA4D">
                        <path d="M13.803454,285.705297 C12.6487523,282.782831 11.5403433,279.584851 10.4790314,276.108513 C10.4527464,276.022416 10.4187643,275.93886 10.3774966,275.858857 C7.20019271,269.699191 5.00573077,262.283992 4.94429971,256.97178 C4.87789298,251.2293 7.00617736,248.821071 11.9786745,249.873964 C12.215431,249.924095 12.460802,249.916198 12.6938449,249.850946 C13.241357,249.697643 13.6350046,249.274437 13.848332,248.705863 C13.9165664,248.524001 13.9691672,248.322374 14.0082797,248.097155 C14.4771716,245.553765 13.5201555,238.775708 10.3060095,225.544417 C6.09876227,208.240696 3.67523522,191.466112 4.03210643,173.430925 C4.53522475,148.004854 10.8706668,125.198358 24.5317653,106.267256 C35.8715326,90.5574275 44.2321651,74.8224886 50.9579391,57.7294203 C53.5459799,51.1521019 55.8066253,44.6274653 58.272858,36.8377879 C59.0808316,34.2857763 62.8622165,21.9733804 63.8815166,18.819369 C64.7168371,16.2346443 65.4783581,13.9965391 66.2275817,11.9425105 C67.6960797,7.91711911 71.3360098,5.07861442 75.620694,4.60647535 C87.9424997,3.23325891 100.974504,3.57219175 113.196129,6.62284677 C125.048128,9.58146483 137.591988,15.1414206 149.571314,21.9123443 C154.172441,24.5212138 156.369926,29.9314236 154.872246,34.9842223 C153.261538,40.404272 152.260905,43.5324923 148.133634,56.2266802 C147.846046,57.1112103 147.600472,57.8673514 147.365997,58.5905045 C138.90936,84.6719694 135.693102,97.3860064 136.454988,106.187856 C137.132862,112.127682 137.736749,129.661521 138.511562,161.465329 C138.519236,161.780316 139.221031,191.417629 139.40218,198.332026 C139.711378,210.133997 139.945643,216.568632 140.165654,218.44059 C141.090548,226.197548 138.425352,235.689933 134.101683,238.78823 C129.314337,242.218794 126.740484,247.810256 127.154062,251.436476 C127.191043,251.773158 127.00326,252.896293 126.600281,254.230676 C126.061606,256.014381 125.21984,257.989894 124.094962,259.978291 C121.120342,265.236397 116.624921,269.886127 110.500153,273.305814 C105.184598,276.273162 101.829197,279.837894 91.1255016,292.678155 C79.0795001,307.128661 72.6070016,312.736622 65.2218468,313.000456 C60.3996342,313.172442 56.7193023,313.407822 54.0067899,313.693278 C50.5162779,314.060608 47.8214834,314.770314 48.7737713,314.684124 C48.9032421,314.672406 49.0198484,314.683796 49.1127582,314.706926 C48.798977,314.628811 48.468354,314.654186 48.1701679,314.779268 C48.0867526,314.814259 47.8821816,314.887689 47.5669393,314.98022 C46.7720469,315.213539 46.3168014,316.047068 46.55012,316.841961 C46.7834386,317.636853 47.6169683,318.092099 48.4118607,317.85878 C48.8376184,317.733811 49.1470474,317.622741 49.3306321,317.545732 L48.7504,316.1625 L48.3880418,317.618074 C48.6028446,317.671548 48.8170311,317.692471 49.0441899,317.671911 C49.3444059,317.644739 50.0882987,317.365184 50.3326231,317.300839 C51.135193,317.089472 52.3999367,316.878944 54.3207662,316.676803 C56.9571127,316.399362 60.5707868,316.168245 65.3288639,315.998547 C70.1645039,315.825794 74.9654294,313.394084 80.1262786,308.922574 C84.019467,305.549403 87.4755261,301.741954 93.4298585,294.599077 C103.818267,282.137036 107.121551,278.627672 111.962548,275.925241 C118.586787,272.226681 123.469865,267.175988 126.706088,261.455459 C129.017946,257.368888 130.342153,252.98406 130.135426,251.102667 C129.846304,248.567555 131.933947,244.032341 135.849117,241.22677 C141.221049,237.377297 144.185785,226.818068 143.14485,218.087906 C142.941647,216.358939 142.705712,209.87846 142.401151,198.253457 C142.220119,191.34351 141.518432,161.710767 141.510672,161.392264 C140.731629,129.414853 140.129275,111.925505 139.43971,105.888279 C138.733108,97.7185834 141.928366,85.0875589 150.219737,59.5157992 C150.453934,58.7935015 150.699269,58.0380962 150.986627,57.1542759 C155.123445,44.4307238 156.126833,41.2938892 157.748252,35.8377949 C159.643812,29.4426529 156.863947,22.5986243 151.049254,19.3016569 C138.853298,12.4082885 126.081831,6.74744815 113.922697,3.71215974 C101.307425,0.563245799 87.9354543,0.215471229 75.2902594,1.6247293 C69.8770557,2.22122132 65.2699341,5.81396519 63.4092412,10.9144266 C62.6459929,13.0069042 61.8728612,15.2791332 61.0268876,17.896822 C59.9993345,21.0763704 56.214325,33.4005685 55.4127786,35.9322791 C52.9655549,43.661916 50.7262203,50.1250459 48.1662765,56.630958 C41.528431,73.5005621 33.2848703,89.0151687 22.0991526,104.511581 C8.04497529,123.987398 1.54702352,147.378901 1.03269357,173.371575 C0.669882634,191.706937 3.12781525,208.719661 7.39086444,226.252887 C9.1358772,233.436372 10.218479,238.778802 10.7468818,242.52121 C11.1294217,245.230546 11.1877651,246.849674 11.0552503,247.568593 C11.0438808,247.633594 11.0380509,247.655941 11.0395269,247.652007 C11.1369571,247.392329 11.4147077,247.093723 11.8849551,246.962054 L12.2894,248.4065 L12.6001255,246.939036 C5.48605972,245.432681 1.85813179,249.53781 1.94450029,257.00647 C2.01193117,262.837512 4.33597692,270.690583 7.71130339,277.234143 L7.6097686,276.984487 C8.693715,280.534965 9.82821321,283.808217 11.013346,286.807703 C11.3177668,287.57817 12.1891355,287.955975 12.9596026,287.651554 C13.7300697,287.347133 14.1078748,286.475764 13.803454,285.705297 L13.803454,285.705297 Z" id="Shape"></path>
                        <path d="M56.940068,243.293488 C56.1926771,242.654067 60.8079726,250.197632 64.4645838,254.210963 C67.2532141,257.271638 70.3804522,259.844878 73.8927957,261.795969 C74.6169897,262.198256 75.5301827,261.937298 75.9324693,261.213104 C76.3347559,260.48891 76.0737983,259.575717 75.3496043,259.173431 C72.1404771,257.390775 69.2628444,255.022922 66.6821672,252.190487 C64.6380676,249.946976 62.9104269,247.567506 61.3543392,245.024127 C60.9833829,244.41781 59.234271,241.308164 58.890332,241.013912 C58.2608442,240.475361 57.3139621,240.54908 56.7754116,241.178568 C56.2368611,241.808056 56.3105803,242.754938 56.940068,243.293488 L56.940068,243.293488 Z" id="Shape"></path>
                        <path d="M57.3240821,265.336361 C57.394848,265.469634 57.525742,265.706699 57.7137265,266.03288 C58.022867,266.569283 58.3828872,267.165128 58.7908365,267.805788 C59.9557427,269.635201 61.2755605,271.464756 62.7292282,273.178339 C63.8606203,274.512024 65.0302514,275.722425 66.2348639,276.780767 C66.8572152,277.327549 67.8049849,277.266287 68.3517667,276.643936 C68.8985485,276.021585 68.8372874,275.073815 68.2149361,274.527033 C67.1274091,273.57156 66.0583393,272.465225 65.0169409,271.237625 C63.6591903,269.63711 62.4174921,267.915845 61.3213609,266.194439 C60.9379472,265.592311 60.6006901,265.03414 60.312961,264.534888 C60.1428238,264.239675 60.0286479,264.032888 59.9737179,263.929439 C59.5852071,263.197762 58.6771156,262.919571 57.9454389,263.308082 C57.2137622,263.696593 56.9355713,264.604684 57.3240821,265.336361 L57.3240821,265.336361 Z" id="Shape"></path>
                        <path d="M78.0377995,77.6807046 C77.8289258,77.5497925 77.5049109,77.3922469 77.0712319,77.246662 C73.8689351,76.1716592 69.873805,77.2315915 65.6382695,81.7111412 C65.0691076,82.3130932 65.0956892,83.2624686 65.6976412,83.8316305 C66.2995932,84.4007924 67.2489686,84.3742108 67.8181305,83.7722588 C71.2620056,80.1299781 74.0389125,79.3932478 76.1164995,80.0906884 C76.3151418,80.1573721 76.4276874,80.2120951 76.4446005,80.2226954 C77.1465519,80.6626451 78.0722456,80.4502509 78.5121954,79.7482995 C78.9521451,79.0463481 78.7397509,78.1206544 78.0377995,77.6807046 L78.0377995,77.6807046 Z" id="Shape"></path>
                        <path d="M129.755638,236.63602 L129.409638,198.70002 C129.402082,197.871627 128.724412,197.206207 127.89602,197.213762 C127.067627,197.221318 126.402207,197.898988 126.409762,198.72738 L126.755762,236.66338 C126.763318,237.491773 127.440988,238.157193 128.26938,238.149638 C129.097773,238.142082 129.763193,237.464412 129.755638,236.63602 L129.755638,236.63602 Z" id="Shape"></path>
                        <path d="M58.1263874,216.389166 C58.2509363,217.207248 58.6092685,218.337205 59.3510667,219.483952 C59.7951143,220.170406 60.3369952,220.777267 60.9875729,221.276981 C61.6445603,221.781618 62.5862434,221.658115 63.0908809,221.001127 C63.5955185,220.34414 63.4720145,219.402457 62.8150271,218.897819 C62.4501041,218.617519 62.1359912,218.265739 61.8699923,217.85453 C61.5937618,217.427505 61.3840107,216.960375 61.2358117,216.493048 C61.1492994,216.220242 61.1049423,216.021248 61.0922126,215.937634 C60.9675255,215.118644 60.2025241,214.5558 59.3835341,214.680487 C58.5645441,214.805174 58.0017004,215.570176 58.1263874,216.389166 L58.1263874,216.389166 Z" id="Shape"></path>
                        <path d="M38.4785033,277.181692 C38.4063517,277.193376 38.2558782,277.215646 38.0344839,277.245036 C37.6581093,277.295 37.2254343,277.345198 36.7438993,277.392182 C33.5707216,277.701789 30.1944087,277.714227 27.0622841,277.237679 C22.1478114,276.48995 18.7218062,274.654727 17.2701329,271.574865 C16.9169277,270.825507 16.0231235,270.504362 15.2737654,270.857567 C14.5244073,271.210772 14.2032619,272.104576 14.5564671,272.853935 C16.5220294,277.02406 20.809774,279.320895 26.611032,280.203547 C30.0253305,280.723027 33.6353625,280.709728 37.035226,280.378003 C37.5522338,280.327558 38.0193088,280.273369 38.4292726,280.218946 C38.6796814,280.185704 38.8583619,280.15926 38.9580967,280.143108 C39.7758694,280.010672 40.3314445,279.240376 40.1990085,278.422603 C40.0665724,277.604831 39.296276,277.049255 38.4785033,277.181692 L38.4785033,277.181692 Z" id="Shape"></path>
                        <path d="M34.2699969,268.229233 C34.057013,268.137933 33.678164,267.984756 33.1608288,267.790314 C32.3059661,267.469012 31.368337,267.148223 30.3747544,266.848617 C28.4054643,266.254794 26.4635882,265.817858 24.625716,265.604287 C23.38047,265.459583 22.2103699,265.421623 21.1264668,265.505356 C20.3005006,265.569163 19.6826487,266.290467 19.7464559,267.116433 C19.8102632,267.942399 20.531567,268.560251 21.3575332,268.496444 C22.2343419,268.428709 23.2147798,268.460516 24.27943,268.584235 C25.9214543,268.775047 27.6966164,269.174471 29.5086492,269.720874 C30.4348016,270.000148 31.3100311,270.299588 32.1053601,270.598514 C32.5781399,270.77621 32.9151581,270.912473 33.0880031,270.986567 C33.8494198,271.312966 34.7312684,270.960314 35.057667,270.198897 C35.3840656,269.43748 35.0314137,268.555632 34.2699969,268.229233 L34.2699969,268.229233 Z" id="Shape"></path>
                        <path d="M11.0654784,247.990783 C11.8373016,256.333423 11.9594367,271.192722 11.2925775,286.206039 C11.1120716,290.296818 10.8831085,294.314148 10.6039026,298.227861 C8.98482504,320.668402 14.9830777,334.26714 28.7096898,333.996308 C31.1112266,333.953349 33.4107101,333.403533 35.5851175,332.375733 C40.8036996,329.92248 45.2444107,324.803394 49.3033164,317.122421 C52.1722875,311.70161 54.8210331,305.113754 57.6883857,296.615128 C61.2134454,286.165026 61.4313787,277.686667 59.6375681,263.303958 C59.559224,262.678781 59.4761854,262.027834 59.3726886,261.225195 C59.3197756,260.814843 59.1343455,259.382566 59.1019554,259.131747 C58.1024373,251.391781 57.6708323,247.054024 57.5164415,241.84516 C57.0298874,224.709657 57.6689656,218.64805 59.4194261,215.356987 C59.5331314,215.140079 59.6037559,215.040921 59.5996551,215.044451 C59.3650855,215.259348 58.8528235,215.400196 58.3164791,215.114801 C58.0633814,215.001845 57.9631462,214.855772 57.9221303,214.745139 C57.954996,214.833789 57.9927211,214.995127 58.024751,215.198733 C58.0583118,215.412072 58.0829336,215.650565 58.0990534,215.89048 C58.1087544,216.034863 58.1132768,216.143995 58.1144671,216.197784 L58.9884851,214.801293 C58.4812444,215.034063 57.8326371,215.50619 57.2134448,216.290047 C55.6581046,218.259007 55.1681746,221.169331 56.2250038,225.042458 C56.9705563,227.795591 56.9384254,230.015006 56.380772,234.410972 C55.838669,238.684354 55.7673585,240.313077 56.3109385,242.538522 L56.269317,242.122188 C56.2647427,242.235673 56.2568522,242.449495 56.2467549,242.753942 C56.2299876,243.259496 56.2132349,243.836203 56.1976073,244.474361 C56.1027114,248.349466 56.0917888,252.438996 56.2193078,256.275226 C56.3123458,259.074146 56.475661,261.56348 56.7201308,263.666781 C56.7371153,263.805403 56.7371153,263.805403 56.7529674,263.934458 C56.8322804,264.578786 56.883278,264.947306 56.9541894,265.346773 C57.0989838,266.162449 57.8775983,266.706305 58.6932735,266.561511 C59.5089487,266.416716 60.0528051,265.638102 59.9080106,264.822427 C59.8490355,264.4902 59.8036327,264.162109 59.7304943,263.567942 C59.7148376,263.440478 59.7148376,263.440478 59.6988866,263.31053 C59.4663436,261.309556 59.3081643,258.898505 59.2176517,256.175559 C59.0923303,252.405437 59.1031084,248.369982 59.1967082,244.547805 C59.2121178,243.918547 59.2286194,243.350484 59.2451062,242.853386 C59.2549614,242.55624 59.2625895,242.349529 59.266883,242.243012 C59.2725277,242.102971 59.2585176,241.96283 59.2252615,241.826678 C58.8015627,240.092033 58.8634503,238.678528 59.3569209,234.788513 C59.9610185,230.026429 59.9976434,227.496599 59.1199508,224.255518 C58.3037442,221.264228 58.6277816,219.339354 59.5675706,218.149642 C59.7472896,217.922129 59.9346283,217.745446 60.1144891,217.614524 C60.2023288,217.550585 60.2502218,217.523085 60.2397149,217.527907 C60.7834863,217.278373 61.1269687,216.729563 61.1137329,216.131416 C61.1057433,215.770352 61.0715795,215.261884 60.9883052,214.732529 C60.8018988,213.547587 60.5378319,212.835313 59.645566,212.426766 C58.9626797,212.060377 58.1861054,212.273898 57.6100244,212.799572 C57.3104976,213.056562 57.0361956,213.441685 56.7664918,213.956324 C54.6954221,217.850109 54.0166984,224.287751 54.5177043,241.932175 C54.6758474,247.267676 55.1152946,251.684249 56.1266615,259.515968 C56.1591498,259.767548 56.3445302,261.199441 56.3973223,261.608855 C56.5003997,262.408242 56.5830139,263.055863 56.6607411,263.676114 C58.403465,277.649215 58.1958869,285.724723 54.8457854,295.656158 C52.0256289,304.014898 49.4315068,310.466897 46.6513301,315.719935 C42.8678754,322.879651 38.8285411,327.536044 34.3059468,329.662117 C32.5086537,330.511658 30.6271734,330.961529 28.6532707,330.99684 C17.3176014,331.220495 12.0868897,319.361862 13.596211,298.442544 C13.8774877,294.499811 14.1079898,290.455477 14.2896419,286.338723 C14.9620567,271.20033 14.8388593,256.211783 14.0527216,247.714417 C13.9764052,246.889512 13.2458213,246.282662 12.4209169,246.358978 C11.5960125,246.435295 10.989162,247.165879 11.0654784,247.990783 L11.0654784,247.990783 Z" id="Shape"></path>
                        <path d="M35.3321021,331.881875 C39.0148099,330.1988 41.9488353,326.727648 43.9341376,321.432168 C43.9900329,321.283076 44.0218335,321.126035 44.0283451,320.966943 C44.0337539,320.834796 44.0431301,320.589781 44.0551497,320.248454 C44.075139,319.680805 44.095119,319.05004 44.1137643,318.372682 C44.1316356,317.723445 44.1473503,317.064077 44.1603126,316.40196 C44.2419102,312.326037 44.1931432,308.937371 43.9535959,306.873648 C43.416987,302.225649 41.1510729,300.283437 36.3094567,299.688787 C29.5467024,298.872828 19.6063542,297.108725 17.8996299,296.147596 C14.0945751,294.015003 12.2666789,296.068619 12.4061009,301.46236 C12.4082169,301.542687 12.4477024,303.126582 12.4630177,303.685195 C12.4908805,304.701467 12.5209509,305.625587 12.5581064,306.558715 C12.6552868,308.999312 12.7923557,311.261375 12.9876921,313.402649 C13.4298934,318.250051 14.1290207,322.042682 15.1963461,324.575158 C17.6826995,330.451597 28.0268804,335.215108 35.3312665,331.882256 L35.3321021,331.881875 Z M34.0859335,329.152944 C28.3977696,331.748344 19.816944,327.796861 17.9600366,323.408106 C17.0450657,321.237123 16.3913237,317.690698 15.9752866,313.130107 C15.7851123,311.045419 15.6510234,308.832535 15.555731,306.439355 C15.5191174,305.519838 15.4894374,304.607714 15.4618908,303.602975 C15.4467002,303.048913 15.4072703,301.467247 15.4050797,301.384097 C15.3775409,300.318708 15.4124073,299.504955 15.5053539,298.923313 C15.5745311,298.490416 15.6620072,298.260395 15.7021723,298.21527 C15.6227246,298.304529 15.4778574,298.353849 15.4479565,298.350483 C15.6274367,298.370686 15.9626263,298.501024 16.4302345,298.763101 C18.6554887,300.01624 28.5873187,301.778831 35.9469215,302.6668 C39.4976227,303.102902 40.6082419,304.054861 40.9734976,307.218632 C41.1923828,309.104351 41.2398184,312.400501 41.1609005,316.342577 C41.1480864,316.997113 41.1325601,317.648579 41.1149003,318.290134 C41.0964752,318.959487 41.0767369,319.582624 41.057008,320.142877 C41.0451966,320.478292 41.0360376,320.717631 41.0308549,320.844257 L41.1250624,320.379032 C39.4023851,324.974001 36.9931576,327.824281 34.0850979,329.153325 L34.0859335,329.152944 Z" id="Shape"></path>
                    </g>
                </g>
                <g id="hand-1-2" transform="translate(340.000000, 2.000000)" sketch:type="MSShapeGroup">
                    <path d="M5.4789,244.5015 C5.4789,244.5015 12.6259,267.6645 9.4289,289.0475 C6.2309,310.4315 5.9889,321.0175 10.2039,338.6455 C14.4089,356.2745 31.3149,359.7235 37.5789,358.1655 C43.8539,356.6155 49.8299,348.8345 49.5809,335.3165 C49.3209,321.7915 53.4129,302.7725 53.5179,280.9095 C53.6309,259.0445 60.1789,254.6805 64.5209,234.1125" id="silo" fill="#FFFFFF"></path>
                    <g id="shadow" transform="translate(5.000000, 2.000000)" fill="#84BA4D">
                        <path d="M56.5018,4.711 C61.8778,6.726 65.2718,12.037 64.7828,17.764 C62.6388,42.982 59.5878,86.617 65.3758,129.172 C71.9298,177.293 63.8538,211.547 59.5208,232.113 C55.1788,252.68 48.6308,257.044 48.5178,278.909 C48.4578,289.71 47.4388,299.801 46.4468,308.889 C46.6118,290.313 43.4048,276.655 44.1288,265.263 C45.1208,249.757 46.9978,238.084 48.9828,224.584 C50.6328,213.35 52.1058,187.746 51.9938,166.633 C51.8738,143.956 45.8818,118.467 44.8388,103.478 C43.7958,88.489 43.9358,65.965 45.0348,52.084 C46.1338,38.204 46.2718,7.839 39.6098,0.131 C44.1908,1.193 53.3708,3.543 56.5018,4.711" id="Fill-3"></path>
                        <path d="M40.8921,345.5933 L42.4951,346.2073 C40.2461,351.8463 36.4691,355.2063 32.5741,356.1623 C26.3161,357.7283 9.4041,354.2743 5.2041,336.6463 C0.9941,319.0193 1.2281,308.4353 4.4281,287.0433 C7.4331,266.9703 1.3161,245.3443 0.5501,242.7653 C5.3041,255.0483 9.4331,266.0783 10.7501,271.8803 C12.0671,277.7433 11.9991,289.4453 10.8461,298.3583 C9.9781,305.1653 9.2471,315.3863 11.6821,327.8043 C10.0041,330.3773 8.7141,334.9023 10.3961,341.4343 C13.0611,351.7153 19.8101,352.6633 23.0891,353.0473 C26.3491,353.4433 40.2171,353.0063 40.8761,345.7383 C40.8761,345.7383 40.8771,345.6873 40.8921,345.5933" id="Fill-5"></path>
                    </g>
                    <g id="outline" stroke="#84BA4D" stroke-width="3" stroke-linecap="round" stroke-linejoin="round">
                        <path d="M5.4263,244.4223 C4.8673,243.4793 -0.3767,234.5453 0.6273,232.0093" id="Stroke-8"></path>
                        <path d="M26.974,306.8293 C26.974,306.8293 36.622,305.9663 42.695,305.1353" id="Stroke-10"></path>
                        <path d="M30.9671,295.8001 C30.9671,295.8001 34.5421,295.7691 38.3291,295.8881" id="Stroke-12"></path>
                        <path d="M16.6819,329.8046 C15.0039,332.3776 13.7139,336.9026 15.3959,343.4346 C18.0609,353.7156 24.8109,354.6636 28.0889,355.0466 C31.3489,355.4436 45.2179,355.0066 45.8759,347.7376 C45.8759,347.7376 45.8769,347.6866 45.8919,347.5936 C46.0009,346.0646 46.9389,332.8376 46.0149,329.4436 C45.0359,325.8356 40.9139,324.8326 36.1499,325.6306 C31.3859,326.4286 21.4569,326.7746 19.4759,327.2986 C18.7479,327.4916 17.6509,328.3246 16.6819,329.8046 L16.6819,329.8046 Z" id="Stroke-14"></path>
                        <path d="M19.7004,0.501 C38.4524,-0.318 52.8704,3.492 61.5004,6.711 C66.8784,8.73 70.2704,14.032 69.7804,19.762 C67.6374,44.983 64.5844,88.617 70.3744,131.175 C76.9344,179.292 68.8524,213.548 64.5214,234.116 C60.1784,254.676 53.6304,259.048 53.5204,280.907 C53.4114,302.775 49.3164,321.793 49.5844,335.315 C49.6744,340.45 48.8734,344.752 47.4954,348.207 C45.2464,353.846 41.4694,357.206 37.5744,358.163 C31.3164,359.728 14.4034,356.275 10.2034,338.646 C5.9934,321.02 6.2284,310.435 9.4284,289.043 C12.4334,268.971 6.3164,247.344 5.5504,244.765" id="Stroke-16"></path>
                    </g>
                </g>
            </g>
        </g>
    </g>
</svg>