<?xml version="1.0" encoding="UTF-8" standalone="no"?>
<svg width="938px" height="498px" viewBox="0 0 938 498" version="1.1" xmlns="http://www.w3.org/2000/svg" xmlns:xlink="http://www.w3.org/1999/xlink" xmlns:sketch="http://www.bohemiancoding.com/sketch/ns">
    <!-- Generator: Sketch 3.4.4 (17249) - http://www.bohemiancoding.com/sketch -->
    <title>laptop</title>
    <desc>Created with Sketch.</desc>
    <defs></defs>
    <g id="Page-2" stroke="none" stroke-width="1" fill="none" fill-rule="evenodd" sketch:type="MSPage">
        <g id="Desktop-HD" sketch:type="MSArtboardGroup" transform="translate(-251.000000, -2091.000000)">
            <g id="laptop" sketch:type="MSLayerGroup" transform="translate(253.000000, 2093.000000)">
                <path d="M848.69308,465.525358 L848.69308,28.4069881 C848.69308,12.7176608 835.991754,0 820.324151,0 L113.675849,0 C98.0082461,0 85.3069199,12.7176608 85.3069199,28.4069881 L85.3069199,465.525358 L0,465.525358 L0,484.144228 L0,484.144228 C7.0415622,490.489655 16.1787667,494 25.6512231,494 L908.348777,494 C917.821233,494 926.958438,490.489655 934,484.144228 L934,465.525358 L848.69308,465.525358 Z" id="silo" fill="#FFFFFF" sketch:type="MSShapeGroup"></path>
                <g id="shadow" fill="#84BA4D" sketch:type="MSShapeGroup">
                    <path d="M823.18253,429.068921 L112.816194,429.068921 L112.816194,30.1663043 L823.18253,30.1663043 L823.18253,429.068921 Z M821.608259,0 L114.391741,0 C98.7115393,0 86,12.6772271 86,28.3151034 L86,464 L850,464 L850,28.3151034 C850,12.6772271 837.288461,0 821.608259,0 L821.608259,0 Z" id="Fill-3"></path>
                    <path d="M908.348777,494 L25.6499483,494 C16.177492,494 7.04028748,490.437451 0,484 L0,484 L934,484 L934,484 C926.958438,490.437451 917.821233,494 908.348777,494" id="Fill-5"></path>
                    <path d="M531,465 L531,465 C531,468.850588 527.914353,472 524.14457,472 L409.85543,472 C406.085647,472 403,468.850588 403,465 L403,465" id="Fill-7"></path>
                </g>
                <g id="outline" sketch:type="MSShapeGroup">
                    <path d="M472,15 C472,17.2084582 470.20979,19 468,19 C465.791542,19 464,17.2084582 464,15 C464,12.7915418 465.791542,11 468,11 C470.20979,11 472,12.7915418 472,15" id="Fill-9" fill="#84BA4D"></path>
                    <path d="M934,484 L0,484 L0,465 L934,465 L934,484 Z" id="Stroke-11" stroke="#84BA4D" stroke-width="3" stroke-linecap="round" stroke-linejoin="round"></path>
                    <path d="M821.608259,0 L114.390465,0 C98.7115393,0 86,12.6772271 86,28.3151034 L86,464 L850,464 L850,28.3151034 C850,12.6772271 837.288461,0 821.608259,0 L821.608259,0 Z" id="Stroke-13" stroke="#84BA4D" stroke-width="3" stroke-linecap="round" stroke-linejoin="round"></path>
                    <path d="M823,31 L113,31 L113,430 L823,430 L823,31 Z" id="Stroke-14" stroke="#84BA4D" stroke-width="3" stroke-linecap="round" stroke-linejoin="round"></path>
                    <path d="M908.348777,494 L25.6499483,494 C16.177492,494 7.04028748,490.437451 0,484 L0,484 L934,484 L934,484 C926.958438,490.437451 917.821233,494 908.348777,494 L908.348777,494 Z" id="Stroke-15" stroke="#84BA4D" stroke-width="3" stroke-linecap="round" stroke-linejoin="round"></path>
                    <path d="M531,465 L531,465 C531,468.850588 527.914353,472 524.14457,472 L409.85543,472 C406.085647,472 403,468.850588 403,465 L403,465" id="Stroke-16" stroke="#84BA4D" stroke-width="3" stroke-linecap="round" stroke-linejoin="round"></path>
                </g>
            </g>
        </g>
    </g>
</svg>