<?xml version="1.0" encoding="UTF-8" standalone="no"?>
<svg width="746px" height="447px" viewBox="0 0 746 447" version="1.1" xmlns="http://www.w3.org/2000/svg" xmlns:xlink="http://www.w3.org/1999/xlink" xmlns:sketch="http://www.bohemiancoding.com/sketch/ns">
    <!-- Generator: Sketch 3.4.4 (17249) - http://www.bohemiancoding.com/sketch -->
    <title>window</title>
    <desc>Created with Sketch.</desc>
    <defs>
        <path id="path-1" d="M734.527732,0.7913 L10.972068,0.7913 C5.74082007,0.7913 1.4998,4.6673 1.4998,9.4483 L1.4998,26.4273 L744,26.4273 L744,9.4483 C744,4.6673 739.75898,0.7913 734.527732,0.7913"></path>
    </defs>
    <g id="Page-2" stroke="none" stroke-width="1" fill="none" fill-rule="evenodd" sketch:type="MSPage">
        <g id="Desktop-HD" sketch:type="MSArtboardGroup" transform="translate(-348.000000, -551.000000)">
            <g id="window" sketch:type="MSLayerGroup" transform="translate(348.000000, 552.000000)">
                <path d="M744.0002,444 L1.5,444 L1.5,26.427 L744.0002,26.427 L744.0002,444 Z" id="Stroke-2" stroke="#00B9D8" stroke-width="3" stroke-linecap="round" stroke-linejoin="round" fill="#FFFFFF" sketch:type="MSShapeGroup"></path>
                <g id="Fill-6">
                    <use stroke="#00B9D8" stroke-width="3" fill="#FFFFFF" sketch:type="MSShapeGroup" xlink:href="#path-1"></use>
                    <use stroke="none" fill-opacity="0.4" fill="#00B9D8" xlink:href="#path-1"></use>
                </g>
                <path d="M18.9847,13.6093 C18.9847,16.1513 16.9237,18.2123 14.3817,18.2123 C11.8397,18.2123 9.7797,16.1513 9.7797,13.6093 C9.7797,11.0673 11.8397,9.0063 14.3817,9.0063 C16.9237,9.0063 18.9847,11.0673 18.9847,13.6093" id="Fill-7" fill="#00B9D8" sketch:type="MSShapeGroup"></path>
                <path d="M36.212,13.6093 C36.212,16.1513 34.151,18.2123 31.609,18.2123 C29.067,18.2123 27.007,16.1513 27.007,13.6093 C27.007,11.0673 29.067,9.0063 31.609,9.0063 C34.151,9.0063 36.212,11.0673 36.212,13.6093" id="Fill-8" fill="#00B9D8" sketch:type="MSShapeGroup"></path>
                <path d="M53.4392,13.6093 C53.4392,16.1513 51.3782,18.2123 48.8362,18.2123 C46.2942,18.2123 44.2342,16.1513 44.2342,13.6093 C44.2342,11.0673 46.2942,9.0063 48.8362,9.0063 C51.3782,9.0063 53.4392,11.0673 53.4392,13.6093" id="Fill-9" fill="#00B9D8" sketch:type="MSShapeGroup"></path>
                <text id="Let-us-massage-your-" sketch:type="MSTextLayer" font-family="Galano Grotesque DEMO" font-size="62" font-weight="bold" sketch:alignment="middle" line-spacing="83" fill="#051923">
                    <tspan x="132.056" y="243">Let us massage</tspan>
                    <tspan x="68.909" y="326">your digital dreams</tspan>
                </text>
            </g>
        </g>
    </g>
</svg>