<?xml version="1.0" encoding="UTF-8" standalone="no"?>
<svg width="317px" height="478px" viewBox="0 0 317 478" version="1.1" xmlns="http://www.w3.org/2000/svg" xmlns:xlink="http://www.w3.org/1999/xlink" xmlns:sketch="http://www.bohemiancoding.com/sketch/ns">
    <!-- Generator: Sketch 3.4.4 (17249) - http://www.bohemiancoding.com/sketch -->
    <title>hand-2</title>
    <desc>Created with Sketch.</desc>
    <defs></defs>
    <g id="Page-2" stroke="none" stroke-width="1" fill="none" fill-rule="evenodd" sketch:type="MSPage">
        <g id="Desktop-HD" sketch:type="MSArtboardGroup" transform="translate(-726.000000, -296.000000)">
            <g id="hand-2" sketch:type="MSLayerGroup" transform="translate(727.000000, 297.000000)">
                <path d="M0.8998,275.9693 C1.1468,272.0463 17.9458,268.5843 28.0148,264.6573 C29.2458,264.1793 30.3618,263.6993 31.3878,263.2053 C31.3958,263.1943 31.4048,263.1933 31.4158,263.2013 C38.7848,259.6723 41.8738,255.6453 53.4058,247.2813 C66.5588,237.7353 78.1398,230.8023 98.0498,203.6063 C108.8288,188.8833 121.6468,131.1563 137.1848,98.6983 C152.7228,66.2493 178.3178,45.3503 184.2108,24.4083 C185.3438,20.3863 186.2568,16.9833 186.9718,14.2253 C188.4558,8.4993 193.0548,4.1233 198.8328,2.9033 C212.4488,0.0103 231.9828,-2.3297 265.5578,12.3063 C294.0288,24.7093 306.0948,44.5423 311.8448,54.4253 C314.5108,59.0113 314.2818,64.7253 311.2878,69.1223 C308.9988,72.4973 305.8438,76.9093 301.9178,81.8523 C290.7968,95.8513 276.8638,114.1803 273.9238,136.5453 C270.9928,158.8993 269.7678,217.1543 263.6068,247.5963 C257.4358,278.0293 252.7048,301.1513 244.3018,317.1573 C235.9088,333.1613 235.0968,328.9693 231.4318,342.4873 C228.2918,354.0623 227.4118,362.0163 225.4128,367.9473 C225.0778,368.9483 224.7058,369.8883 224.2958,370.7773 C223.9298,371.5723 223.6018,372.3043 223.3148,372.9913 C221.3548,377.6883 220.9658,380.5683 218.1488,389.9543 C215.7698,397.8913 214.8158,406.9213 211.3148,411.7613 C209.8798,413.7673 208.0158,415.0533 205.4388,415.2603 C202.1518,415.5283 199.4248,414.2713 197.4588,412.4173 C197.4468,412.4003 197.4268,412.3933 197.4138,412.3763 C192.4648,407.6643 197.1978,393.9243 197.4668,393.1823 C193.0778,402.3893 189.6128,410.9353 186.4588,416.5933 C182.9528,422.8913 178.2118,433.5443 175.7388,440.3153 C174.2438,444.4223 170.9728,448.7653 167.6218,451.7203 C167.5808,451.7643 167.5478,451.7983 167.5128,451.8233 C165.3678,453.7093 163.1908,455.0143 161.4358,455.3243 C157.7918,455.9553 155.0488,454.8443 153.2818,453.6503 C153.2618,453.6443 153.2508,453.6363 153.2288,453.6203 C153.1318,453.5483 153.0338,453.4773 152.9388,453.4153 C152.9178,453.4093 152.9058,453.3923 152.8938,453.3743 C151.5958,452.4243 150.9268,451.5113 150.9268,451.5113 C149.8968,457.3203 148.7398,463.1113 146.3918,467.1583 C145.8158,468.1483 145.0938,469.1243 144.2558,470.0303 C144.1568,470.1323 144.0668,470.2323 143.9668,470.3343 C139.7758,474.6853 132.8998,477.4853 126.7708,473.7713 C126.7598,473.7633 126.7508,473.7643 126.7398,473.7563 C126.3808,473.5433 126.0168,473.3023 125.6698,473.0393 C124.8238,472.4123 123.9958,471.6483 123.2038,470.7443 C116.4378,463.0323 116.2108,453.8103 117.9658,442.8333 C117.7988,443.6743 116.4428,448.6133 107.8338,448.8993 C106.0508,448.9643 104.3998,448.2793 102.8868,447.0553 C96.7788,442.1103 93.0028,428.3623 92.2778,419.6493 C90.8048,401.8133 96.1208,357.6603 99.5968,333.6193 C103.0728,309.5793 103.6378,294.6233 101.6768,272.6423 C101.4538,270.1433 101.2458,267.8733 101.0418,265.8043 C101.0418,265.8043 88.7228,276.2183 74.1448,286.7813 C59.5668,297.3433 42.0958,300.8033 19.6938,295.2033 C-3.2782,289.4603 0.6668,279.7373 0.8998,275.9693" id="silo" fill="#FFFFFF" sketch:type="MSShapeGroup"></path>
                <g id="outline" stroke="#00B9D8" stroke-width="3" sketch:type="MSShapeGroup" stroke-linecap="round" stroke-linejoin="round">
                    <path d="M197.4733,393.1466 C197.4733,393.1466 192.3303,407.5306 197.4133,412.3716 C199.3843,414.2486 202.1213,415.5296 205.4363,415.2566 C214.2773,414.5286 214.7923,401.1476 218.1493,389.9476 C221.3743,379.1886 221.4183,376.9706 224.2973,370.7696 C227.1753,364.5686 227.7683,356.0036 231.4333,342.4866 C235.0983,328.9686 235.9073,333.1606 244.3033,317.1526 C252.6993,301.1446 257.4373,278.0286 263.6013,247.5876 C269.7653,217.1466 270.9883,158.8996 273.9253,136.5396 C276.8623,114.1806 290.8003,95.8456 301.9193,81.8486 C305.8433,76.9076 308.9973,72.4976 311.2913,69.1206 C314.2763,64.7246 314.5133,59.0106 311.8413,54.4176 C306.0933,44.5366 294.0303,24.7056 265.5573,12.2986 C231.9813,-2.3304 212.4433,0.0076 198.8353,2.8936 C193.0523,4.1206 188.4563,8.4966 186.9713,14.2186 C186.2553,16.9796 185.3423,20.3836 184.2123,24.3986 C178.3193,45.3446 152.7243,66.2406 137.1833,98.6956 C121.6413,131.1506 108.8293,188.8796 98.0513,203.6006 C78.1383,230.8006 66.5573,237.7326 53.4033,247.2796 C40.2503,256.8276 38.0843,260.7206 28.0163,264.6506 C17.9473,268.5806 1.1483,272.0426 0.9003,275.9616 C0.6623,279.7326 -3.2817,289.4556 19.6923,295.1986 C42.0943,300.7986 59.5643,297.3356 74.1423,286.7766 C88.7213,276.2176 101.0443,265.7986 101.0443,265.7986" id="Stroke-3"></path>
                    <path d="M227.401,331.9181 C221.091,342.8071 217.179,348.5281 213.416,359.3421 C209.653,370.1571 204.087,379.6521 198.978,390.0351 C193.868,400.4181 189.96,410.2951 186.458,416.5931 C182.955,422.8901 178.206,433.5381 175.737,440.3151 C173.268,447.0921 165.962,454.5241 161.43,455.3181 C154.581,456.5191 150.928,451.5071 150.928,451.5071" id="Stroke-5"></path>
                    <path d="M99.1559,231.5225 C98.6639,246.9475 99.7149,250.6435 101.6769,272.6325 C103.6399,294.6215 103.0749,309.5785 99.5989,333.6185 C96.1219,357.6595 90.7999,401.8105 92.2799,419.6485 C93.1809,430.5125 98.8349,449.2065 107.8359,448.8985 C117.2409,448.5775 117.9849,442.7105 117.9849,442.7105" id="Stroke-7"></path>
                    <path d="M210.0441,318.9342 C200.6141,334.4622 190.7091,355.1802 186.2241,365.4672 C181.7401,375.7532 167.4421,403.2262 162.1441,416.5162 C156.8451,429.8072 155.5001,431.4542 153.2191,439.9602 C150.9371,448.4672 150.3701,460.3062 146.3941,467.1572 C142.4171,474.0072 131.3581,480.0352 123.2061,470.7432 C115.0541,461.4522 116.3961,449.9732 119.2501,435.8612 C122.1031,421.7502 121.5711,409.8412 129.5941,392.2922 C137.6161,374.7442 142.4881,353.5252 145.4241,344.5972 C148.3601,335.6692 152.2091,326.4412 157.1391,318.0042" id="Stroke-9"></path>
                    <path d="M235.6533,301.5432 C235.6533,301.5432 235.3733,312.1382 225.7583,321.3002" id="Stroke-11"></path>
                    <path d="M211.3231,296.193 C211.3231,296.193 209.3141,308.015 201.4281,315.95" id="Stroke-13"></path>
                    <path d="M151.4977,293.9347 C151.4977,293.9347 149.4387,303.3667 141.7097,311.2767" id="Stroke-15"></path>
                    <path d="M0.9005,275.9619 C0.5295,279.2469 4.4875,281.5389 8.6805,282.2889 C14.1215,283.2629 24.5225,282.3589 30.2285,278.9559 C37.1085,274.8549 33.2175,262.2729 31.3435,263.2209" id="Stroke-17"></path>
                    <path d="M117.9845,442.7108 C119.0985,436.3598 116.3045,426.8968 111.3925,426.9248 C107.1205,426.9488 104.0695,426.6178 101.4945,435.8098 C100.1715,440.5338 100.2135,444.2488 102.8915,447.0448" id="Stroke-19"></path>
                    <path d="M143.9703,470.3334 C146.5463,468.3794 144.5003,451.8344 142.6203,448.8474 C140.3383,445.2234 130.1283,445.2104 126.9973,449.7724 C123.8653,454.3334 121.7573,472.0994 126.7673,473.7714" id="Stroke-21"></path>
                    <path d="M211.2959,411.7929 C214.5149,404.3969 212.9219,396.8509 209.4649,395.5269 C206.3099,394.3189 203.7439,394.4939 201.8009,397.4319 C199.7949,400.4639 194.6659,409.4479 197.4589,412.4109" id="Stroke-23"></path>
                    <path d="M225.4106,367.944 C222.5046,364.612 215.6446,366.512 215.6446,366.512" id="Stroke-25"></path>
                    <path d="M223.3164,372.987 C223.3164,372.987 217.8824,375.136 213.5224,372.436" id="Stroke-27"></path>
                    <path d="M195.5855,384.6437 C195.5855,384.6437 191.1615,380.8517 184.7005,382.4897" id="Stroke-29"></path>
                    <path d="M193.8044,390.675 C193.8044,390.675 186.0064,393 180.7404,387.899" id="Stroke-31"></path>
                    <path d="M172.0861,381.5634 C172.0861,381.5634 165.7381,376.7004 153.9491,378.0084" id="Stroke-33"></path>
                    <path d="M169.6652,388.6528 C169.6652,388.6528 159.3372,392.1688 149.6582,384.3798" id="Stroke-35"></path>
                    <path d="M177.9583,419.5295 C177.9583,419.5295 170.8103,420.8645 166.6843,416.9335" id="Stroke-37"></path>
                    <path d="M152.4821,427.4439 C152.4821,427.4439 144.8321,430.7059 138.2111,428.2119" id="Stroke-39"></path>
                    <path d="M116.8398,412.0121 C116.8398,412.0121 110.0548,414.6601 104.2628,412.3581" id="Stroke-41"></path>
                    <path d="M128.3369,379.8741 C128.3369,379.8741 119.5919,383.2871 110.1569,377.0721" id="Stroke-43"></path>
                    <path d="M129.8311,374.0293 C129.8311,374.0293 122.9181,367.5843 113.5401,372.0723" id="Stroke-45"></path>
                    <path d="M167.5087,451.8232 C169.1227,450.5402 171.8597,438.1862 167.1107,435.9652 C162.4997,433.8082 159.5387,434.3062 156.6957,439.1832 C153.8527,444.0592 150.4447,452.2612 153.2817,453.6482" id="Stroke-47"></path>
                </g>
                <g id="shadow" transform="translate(31.000000, 0.000000)" fill="#00B9D8" sketch:type="MSShapeGroup">
                    <path d="M168.3056,389.9845 C172.9996,380.4525 178.0776,371.6665 181.7796,361.9225 L181.7886,361.9215 C180.3556,373.9295 174.4206,385.6865 172.1206,395.2375 C170.1226,398.2615 163.9976,409.3955 166.7876,412.3595 C166.7756,412.3425 166.7556,412.3355 166.7426,412.3185 C161.6596,407.4835 166.8106,393.0935 166.8106,393.0935 C167.2946,392.0695 167.7946,391.0225 168.3056,389.9845" id="Fill-49"></path>
                    <path d="M131.4785,416.4684 C136.7715,403.1794 151.0735,375.6994 155.5545,365.4134 C158.5005,358.6544 163.7975,347.3794 169.7565,336.0394 C163.7995,357.7494 154.3675,382.5474 151.1565,388.6364 C148.7225,393.2434 142.7335,406.3724 138.0655,416.7544 C136.5605,420.1144 134.4715,424.1594 133.6275,426.2664 C132.4635,429.1614 130.2415,434.7044 130.1835,435.0104 C128.6675,435.5714 127.3365,436.8894 126.0245,439.1354 C123.3325,443.7444 120.1495,451.3254 122.2025,453.3104 C120.9135,452.3584 120.2555,451.4534 120.2555,451.4534 C120.9665,447.4294 121.6185,443.3954 122.5475,439.9134 C124.8295,431.4064 126.1765,429.7594 131.4785,416.4684" id="Fill-51"></path>
                    <path d="M87.3051,442.7168 C87.3111,442.6968 87.3091,442.6778 87.3151,442.6578 C87.3631,442.4108 87.4001,442.1548 87.4381,441.8998 C87.7661,439.9308 88.1531,437.9038 88.5781,435.8148 C91.4321,421.7028 90.9041,409.7938 98.9241,392.2448 C106.9441,374.6968 111.8161,353.4718 114.7521,344.5468 C116.9841,337.7648 119.7431,330.7958 123.1081,324.1458 C120.1971,339.4938 113.4751,376.8518 112.4831,380.6128 C111.4841,384.3838 101.6941,408.6048 100.2831,413.6188 C98.8711,418.6338 95.4811,435.4818 95.0301,442.4868 C94.7621,446.6438 93.5771,450.8918 94.1971,452.6088 L94.1991,452.6178 C92.9311,458.7518 92.5701,470.4318 95.0121,473.0088 C94.1671,472.3818 93.3371,471.6078 92.5341,470.6968 C85.7681,462.9848 85.5411,453.7628 87.2951,442.7758 C87.3011,442.7558 87.2991,442.7368 87.3051,442.7168" id="Fill-53"></path>
                    <path d="M70.3717,265.7564 L70.3727,265.7654 C70.5687,267.8364 70.7837,270.0954 71.0057,272.5844 C72.9677,294.5744 72.4037,309.5314 68.9267,333.5714 C65.4507,357.6124 60.1337,401.7564 61.6087,419.6014 C62.3327,428.3144 66.1107,442.0714 72.2177,447.0074 L72.2247,446.9964 C69.5477,444.1974 70.4347,436.8444 71.7567,432.1214 C69.5237,425.4354 69.7387,420.0714 70.0197,411.0294 C70.3467,400.8014 73.2647,377.7434 74.5157,364.1204 C75.7567,350.4984 81.5597,314.5864 82.4677,303.8944 C83.3747,293.2014 75.7637,275.4364 68.4017,234.8454 C68.2727,241.3314 68.4827,245.7304 68.9607,251.1724 L68.7217,248.2214 C68.7217,248.2214 40.1317,276.9624 28.5937,285.8464 C20.4577,292.1024 13.4257,293.8834 0.7247,297.3074 C17.6607,299.2634 31.5347,295.3714 43.4737,286.7234 C57.8307,276.3394 69.9987,266.0734 70.3717,265.7564" id="Fill-55"></path>
                    <path d="M122.4384,102.7391 C115.7544,112.2431 104.3864,136.9861 101.7304,143.5081 C94.4384,161.4231 79.7944,187.8721 67.3884,203.5471 C78.1574,188.8251 90.9764,131.0981 106.5144,98.6501 C122.0614,66.1911 147.6554,45.2911 153.5494,24.3491 C154.6744,20.3381 155.5854,16.9261 156.3004,14.1681 C157.7864,8.4511 162.3854,4.0751 168.1714,2.8441 C173.8094,1.6461 184.2284,-1.0719 198.3864,1.5351 C175.5424,-1.4079 172.3994,21.0141 170.6544,30.0461 C168.9684,38.7801 160.2394,56.0801 154.9484,61.7371 C139.5684,78.1821 129.6894,92.4371 122.4384,102.7391" id="Fill-57"></path>
                </g>
            </g>
        </g>
    </g>
</svg>