<?xml version="1.0" encoding="UTF-8" standalone="no"?>
<svg width="743px" height="773px" viewBox="0 0 743 773" version="1.1" xmlns="http://www.w3.org/2000/svg" xmlns:xlink="http://www.w3.org/1999/xlink" xmlns:sketch="http://www.bohemiancoding.com/sketch/ns">
    <!-- Generator: Sketch 3.4.4 (17249) - http://www.bohemiancoding.com/sketch -->
    <title>Group</title>
    <desc>Created with Sketch.</desc>
    <defs>
        <path d="M707.576015,411.600532 L29.7628171,411.600532 L29.7628171,29.2533027 L707.576015,29.2533027 L707.576015,411.600532 Z M718.888405,0 L19.8105817,0 C8.86880557,0 0,8.87351418 0,19.8210995 L0,440.853835 L738.698987,440.853835 L738.698987,19.8210995 C738.698987,8.87351418 729.828946,0 718.888405,0 L718.888405,0 Z" id="path-1"></path>
    </defs>
    <g id="Page-2" stroke="none" stroke-width="1" fill="none" fill-rule="evenodd" sketch:type="MSPage">
        <g id="Desktop-HD" sketch:type="MSArtboardGroup" transform="translate(-349.000000, -3196.000000)">
            <g id="Group" sketch:type="MSLayerGroup" transform="translate(351.000000, 3198.000000)">
                <g id="imac" transform="translate(0.000000, 153.000000)">
                    <path d="M719.038912,0.150506512 L19.9610882,0.150506512 C9.02054746,0.150506512 0.150506512,9.0190118 0.150506512,19.9604175 L0.150506512,440.75549 L0.150506512,489.300642 C0.150506512,500.242048 9.02054746,509.110553 19.9610882,509.110553 L296.674246,509.110553 C296.674246,509.110553 294.409791,539.376381 292.968101,551.523479 C291.527646,563.671812 291.630182,581.686774 283.291355,588.326726 C277.660485,592.81101 263.063215,602.609726 261.632643,603.553526 C260.748109,604.136606 260.26384,605.064346 260.21566,606.006911 L260.204541,606.006911 L260.204541,613.475776 C260.204541,613.475776 261.488103,613.955088 262.204624,614.088504 C267.658835,615.111366 280.404268,615.195369 294.100946,615.195369 L369.5,615.195369 L444.899054,615.195369 C458.595732,615.195369 471.342401,615.111366 476.796611,614.088504 C477.511897,613.955088 478.795459,613.475776 478.795459,613.475776 L478.795459,606.006911 L478.78434,606.006911 C478.73616,605.064346 478.251891,604.136606 477.367357,603.553526 C475.938021,602.609726 461.34075,592.81101 455.708645,588.326726 C447.369818,581.686774 447.47359,563.671812 446.031899,551.523479 C444.590209,539.376381 442.325754,509.110553 442.325754,509.110553 L719.038912,509.110553 C729.979453,509.110553 738.849493,500.242048 738.849493,489.300642 L738.849493,440.75549 L738.849493,19.9604175 C738.849493,9.0190118 729.979453,0.150506512 719.038912,0.150506512" id="silo" fill="#FFFFFF" sketch:type="MSShapeGroup"></path>
                    <g id="Fill-3">
                        <use stroke="#F49AC1" stroke-width="3" fill="#FFFFFF" sketch:type="MSShapeGroup" xlink:href="#path-1"></use>
                        <use stroke="none" fill-opacity="0.4" fill="#F49AC1" xlink:href="#path-1"></use>
                    </g>
                    <path d="M0.150506512,489.877356 C0.150506512,500.891133 9.01931208,509.82055 19.9610882,509.82055 L719.038912,509.82055 C729.979453,509.82055 738.849493,500.891133 738.849493,489.877356 L738.849493,441.004342 L0.150506512,441.004342 L0.150506512,489.877356 L0.150506512,489.877356 Z" id="Stroke-5" stroke="#F49AC1" stroke-width="3" stroke-linecap="square" stroke-linejoin="round" sketch:type="MSShapeGroup"></path>
                    <path d="M478.590095,607.316732 C478.376682,608.535825 477.457647,609.649531 475.731836,609.990409 C470.285479,611.066385 454.967828,611.066385 444.790602,611.066385 L369.5001,611.066385 L294.209599,611.066385 C284.032373,611.066385 268.714722,611.066385 263.268365,609.990409 C261.204546,609.581876 260.294147,608.070045 260.365696,606.593343 C260.361995,606.593343 260.361995,614.458247 260.361995,614.458247 C260.361995,614.458247 261.644943,614.964359 262.357965,615.104873 C267.805557,616.180849 280.532641,616.270622 294.209599,616.270622 L369.5001,616.270622 L444.790602,616.270622 C458.46756,616.270622 471.194644,616.180849 476.642236,615.104873 C477.356492,614.964359 478.638205,614.458247 478.638205,614.458247 L478.638205,606.593343 L478.590095,607.316732 Z" id="Fill-10" stroke="#F49AC1" stroke-width="3" stroke-linecap="round" stroke-linejoin="round" fill-opacity="0.4" fill="#F49AC1" sketch:type="MSShapeGroup"></path>
                    <path d="M477.210603,604.198486 C475.781236,603.255337 461.196261,593.463368 455.570134,588.982172 C447.238331,582.346792 447.340781,564.344236 445.90154,552.205503 C444.461063,540.065536 442.198516,509.82055 442.198516,509.82055 L296.669692,509.82055 C296.669692,509.82055 296.33642,514.272118 295.845152,520.435923 L386.292736,610.894356 L444.769649,610.894356 C454.952963,610.894356 470.279778,610.894356 475.729394,609.873433 C479.183081,609.226561 479.408965,605.647777 477.210603,604.198486" id="Fill-12" fill-opacity="0.4" fill="#F49AC1" sketch:type="MSShapeGroup"></path>
                    <path d="M455.584054,588.982172 C447.257278,582.346792 447.359667,564.344236 445.921294,552.205503 C444.481687,540.065536 442.220505,509.82055 442.220505,509.82055 L296.779495,509.82055 C296.779495,509.82055 294.518313,540.065536 293.078706,552.205503 C291.639099,564.344236 291.742722,582.346792 283.415946,588.982172 C277.793214,593.463368 263.215806,603.255337 261.788535,604.198486 C259.5915,605.647777 259.817248,609.226561 263.268851,609.873433 C268.715179,610.894356 284.032744,610.894356 294.209914,610.894356 L369.5,610.894356 L444.790086,610.894356 C454.967256,610.894356 470.284821,610.894356 475.731149,609.873433 C479.182752,609.226561 479.4085,605.647777 477.211465,604.198486 C475.78296,603.255337 461.206786,593.463368 455.584054,588.982172 Z" id="Stroke-13" stroke="#F49AC1" stroke-width="3" stroke-linecap="round" stroke-linejoin="round" sketch:type="MSShapeGroup"></path>
                </g>
                <text id="We’ll-rub-you-the-ri" sketch:type="MSTextLayer" font-family="Galano Grotesque DEMO" font-size="62" font-weight="bold" sketch:alignment="middle" line-spacing="83" fill="#051923">
                    <tspan x="171.022" y="366">We’ll rub you</tspan>
                    <tspan x="166" y="449">the right way</tspan>
                </text>
                <g id="hand-1" transform="translate(59.000000, 0.000000)" sketch:type="MSShapeGroup">
                    <path d="M209.5853,331.4489 C212.2063,329.2799 206.0823,315.7599 203.7083,306.7129 C203.4163,305.6089 203.1853,304.5839 203.0083,303.6139 C203.0123,303.6029 203.0083,303.5949 202.9973,303.5919 C201.7183,296.6389 202.9653,292.4269 202.9533,280.0999 C202.9433,266.0359 201.9043,254.4029 210.8123,226.6299 C215.6343,211.5939 249.5213,173.2519 264.3363,145.8619 C279.1443,118.4769 280.7523,89.9279 292.4123,75.1489 C294.6513,72.3089 296.5683,69.9389 298.1353,68.0349 C301.3893,64.0829 302.1123,58.6379 300.0263,53.9719 C295.1243,42.9699 286.8243,28.1059 259.4973,12.0499 C236.3303,-1.5701 216.3093,0.0749 206.4653,1.0789 C201.8993,1.5449 198.0153,4.6129 196.4613,8.9449 C195.2633,12.2649 193.7803,16.7169 192.3173,21.9809 C188.1763,36.8879 182.4353,55.9659 168.2753,69.4019 C154.1193,82.8269 113.9643,113.3229 95.7903,133.1219 C77.6273,152.9259 63.8493,168.0009 56.9203,182.0259 C49.9883,196.0429 53.3343,194.4789 45.7373,203.9209 C39.2323,212.0089 34.1123,216.6719 30.9783,221.0879 C30.4473,221.8319 29.9783,222.5709 29.5653,223.3089 C29.1943,223.9699 28.8493,224.5719 28.5143,225.1229 C26.2243,228.8839 24.4053,230.6219 19.2683,237.3689 C14.9233,243.0729 9.0873,248.3339 7.4813,253.2469 C6.8073,255.2729 6.8553,257.2319 8.0223,259.1409 C9.5063,261.5779 11.7733,262.8479 14.0713,263.2799 C14.0903,263.2799 14.1043,263.2909 14.1233,263.2909 C19.9393,264.3579 27.1493,254.0539 27.5313,253.4879 C23.3203,261.2449 19.1003,268.0179 16.7443,273.1049 C14.1193,278.7629 9.0753,287.5009 5.5933,292.6779 C3.4793,295.8129 2.1033,300.3119 1.7403,304.1619 C1.7293,304.2129 1.7223,304.2529 1.7233,304.2899 C1.4943,306.7509 1.6883,308.9389 2.3643,310.3259 C3.7763,313.1969 5.9493,314.5519 7.6843,315.1819 C7.6993,315.1919 7.7103,315.1959 7.7323,315.2029 C7.8323,315.2349 7.9313,315.2669 8.0233,315.3019 C8.0383,315.3129 8.0563,315.3129 8.0753,315.3129 C9.4003,315.7379 10.3803,315.7409 10.3803,315.7409 C6.8373,319.4179 3.3733,323.1739 1.7343,326.8759 C1.3343,327.7839 1.0193,328.7849 0.8113,329.8329 C0.7903,329.9539 0.7663,330.0689 0.7453,330.1899 C-0.1687,335.3369 1.3703,341.5749 7.0883,343.9749 C7.0993,343.9789 7.1033,343.9859 7.1143,343.9899 C7.4463,344.1329 7.7993,344.2639 8.1603,344.3739 C9.0293,344.6469 9.9853,344.8379 11.0213,344.9319 C19.8623,345.7449 26.4333,341.2119 33.2233,334.3989 C32.7203,334.9439 29.9523,338.4059 34.1323,344.5769 C34.9943,345.8589 36.3133,346.6659 37.9403,347.1019 C44.5093,348.8619 56.0533,344.5109 62.5213,340.5839 C75.7553,332.5419 103.9583,306.3569 119.0173,291.6929 C134.0763,277.0289 144.2583,269.0239 160.6423,259.2139 C162.5053,258.0989 164.1993,257.0889 165.7523,256.1799 C165.7523,256.1799 164.7293,270.1009 164.7533,285.6789 C164.7763,301.2569 171.2433,315.2469 186.5603,328.0789 C202.2673,341.2369 207.0663,333.5289 209.5853,331.4489" id="silo" fill="#FFFFFF"></path>
                    <g id="shadow" transform="translate(7.000000, 31.000000)" fill="#F49AC1">
                        <path d="M21.8345,219.5743 C26.1185,211.4393 29.6855,203.4143 34.6225,195.8663 L34.6185,195.8593 C26.9425,202.9713 21.7315,213.1073 16.2165,219.5773 C15.1165,222.5133 10.4385,232.4653 6.9445,232.0203 C6.9625,232.0203 6.9775,232.0313 6.9955,232.0313 C12.9665,233.1293 20.4185,222.2023 20.4185,222.2023 C20.8895,221.3423 21.3675,220.4603 21.8345,219.5743" id="Fill-3"></path>
                        <path d="M22.0323,258.8269 C28.6423,248.3609 40.6013,224.3689 45.5213,215.9989 C48.7533,210.4989 53.9513,201.0539 58.8573,191.1139 C46.6913,206.3279 34.1313,225.5469 31.5033,230.8929 C29.5163,234.9409 23.3733,245.8119 18.4813,254.3619 C16.8943,257.1239 15.1263,260.6449 14.0813,262.3079 C12.6463,264.5949 9.8973,268.9709 9.7123,269.1669 C10.0913,270.5129 9.8453,272.1159 8.9403,274.1769 C7.0843,278.4059 3.3963,284.4909 0.9623,284.0639 C2.2843,284.4819 3.2533,284.4819 3.2533,284.4819 C5.7083,281.9369 8.2003,279.4279 10.1653,277.0069 C14.9583,271.0809 15.4263,269.2999 22.0323,258.8269" id="Fill-5"></path>
                        <path d="M26.1327,303.1019 C26.1437,303.0869 26.1577,303.0799 26.1687,303.0649 C26.3177,302.9049 26.4777,302.7499 26.6367,302.5939 C27.8487,301.3619 29.0697,300.0599 30.3167,298.6989 C38.7427,289.5219 47.3477,283.8329 55.5507,269.2909 C63.7537,254.7479 76.1327,240.5399 80.8857,233.9439 C84.4977,228.9319 87.9727,223.4549 90.9157,217.7159 C81.6527,227.5619 58.9227,251.2739 56.7947,253.8809 C54.6637,256.4989 42.6897,275.6739 39.8977,279.2139 C37.1057,282.7529 27.0377,293.6979 22.3637,297.5779 C19.5897,299.8809 17.2197,302.8709 15.7017,303.3099 L15.6947,303.3139 C12.0457,307.3219 4.0537,313.5169 1.0077,313.1189 C1.8767,313.3909 2.8397,313.5779 3.8867,313.6769 C12.7277,314.4889 19.2987,309.9569 26.0967,303.1389 C26.1077,303.1239 26.1217,303.1169 26.1327,303.1019" id="Fill-7"></path>
                        <path d="M157.6257,254.4195 C157.6467,267.1765 161.9807,278.8675 171.9667,289.7285 C167.9007,279.0955 165.5707,273.2675 165.8107,264.3895 C166.1587,251.7925 171.7317,217.1575 171.7317,217.1575 L169.5437,218.4925 C173.5967,216.0575 176.7827,213.9665 181.2567,210.5765 C149.0987,226.0745 132.7907,229.7845 125.7677,235.8605 C118.7447,241.9355 96.5597,264.2685 87.6557,272.0675 C78.7557,279.8735 64.1007,293.6475 57.1077,299.0805 C50.9217,303.8765 47.2757,306.7565 41.4597,308.5955 C38.8267,311.9235 34.1307,316.2855 30.8087,315.8355 L30.8057,315.8465 C37.3677,317.6095 48.9197,313.2545 55.3867,309.3285 C68.6287,301.2815 96.8237,275.1015 111.8827,260.4375 C126.9427,245.7725 137.1247,237.7685 153.5157,227.9545 C155.3707,226.8435 157.0617,225.8445 158.6107,224.9275 L158.6177,224.9235 C158.5857,225.3465 157.5907,239.0875 157.6257,254.4195" id="Fill-9"></path>
                        <path d="M246.2379,105.5407 C242.9859,115.0547 231.4499,135.6007 228.2359,140.7777 C219.4049,154.9967 208.3419,178.7037 203.6809,195.3627 C208.5069,180.3347 242.3939,141.9917 257.2019,114.6067 C272.0129,87.2097 273.6209,58.6617 285.2819,43.8817 C287.5169,41.0527 289.4419,38.6797 291.0089,36.7757 C294.2549,32.8277 294.9779,27.3817 292.8959,22.7057 C290.8659,18.1497 287.4679,9.4737 278.4399,0.8897 C292.1219,15.3827 278.0259,28.9907 272.5919,34.8057 C267.3359,40.4307 259.6669,55.3427 258.3989,61.9247 C254.7119,81.0557 249.7599,95.2237 246.2379,105.5407" id="Fill-11"></path>
                    </g>
                    <g id="outline" stroke="#F49AC1" stroke-width="3" stroke-linecap="round" stroke-linejoin="round">
                        <path d="M27.5533,253.4657 C27.5533,253.4657 20.1013,264.3837 14.1263,263.2887 C11.8103,262.8637 9.5213,261.5997 8.0253,259.1397 C4.0373,252.5817 13.1413,245.4127 19.2733,237.3647 C25.1633,229.6337 26.6933,228.4747 29.5703,223.3047 C32.4463,218.1357 38.1403,213.3627 45.7373,203.9197 C53.3343,194.4767 49.9893,196.0437 56.9223,182.0227 C63.8563,168.0017 77.6263,152.9237 95.7993,133.1217 C113.9713,113.3207 154.1213,82.8297 168.2783,69.3977 C182.4363,55.9667 188.1783,36.8817 192.3193,21.9777 C193.7813,16.7177 195.2643,12.2657 196.4603,8.9427 C198.0183,4.6157 201.8983,1.5427 206.4723,1.0757 C216.3133,0.0727 236.3323,-1.5723 259.5023,12.0467 C286.8253,28.1057 295.1283,42.9717 300.0323,53.9657 C302.1153,58.6377 301.3903,64.0817 298.1403,68.0317 C296.5723,69.9377 294.6543,72.3087 292.4183,75.1427 C280.7553,89.9247 279.1493,118.4707 264.3383,145.8617 C249.5273,173.2527 215.6363,211.5917 210.8153,226.6257 C201.9063,254.4027 202.9463,266.0357 202.9553,280.1007 C202.9643,294.1657 201.3413,297.6627 203.7123,306.7097 C206.0843,315.7567 212.2073,329.2777 209.5903,331.4447 C207.0723,333.5297 202.2723,341.2367 186.5643,328.0777 C171.2463,315.2457 164.7833,301.2547 164.7573,285.6777 C164.7303,270.1017 165.7543,256.1747 165.7543,256.1747" id="Stroke-14"></path>
                        <path d="M55.1862,201.3659 C50.7742,211.3229 48.7602,216.9709 43.1042,225.1079 C37.4492,233.2439 33.6352,241.9709 28.9662,250.8299 C24.2972,259.6889 19.3712,267.4499 16.7452,273.1049 C14.1192,278.7609 9.0822,287.5019 5.5942,292.6779 C2.1072,297.8549 0.6212,306.7499 2.3712,310.3259 C5.0152,315.7309 10.3822,315.7389 10.3822,315.7389" id="Stroke-16"></path>
                        <path d="M190.7083,240.0581 C180.1613,248.2501 177.0393,249.3941 160.6493,259.2081 C144.2583,269.0221 134.0763,277.0271 119.0173,291.6911 C103.9583,306.3551 75.7603,332.5431 62.5213,340.5831 C54.4573,345.4791 38.4963,351.0321 34.1323,344.5751 C29.5713,337.8281 33.3003,334.3231 33.3003,334.3231" id="Stroke-18"></path>
                        <path d="M73.1053,206.9098 C67.0333,221.4108 57.5703,238.8848 52.6523,247.2578 C47.7333,255.6298 35.7763,279.6148 29.1693,290.0858 C22.5623,300.5568 22.0933,302.3358 17.2993,308.2608 C12.5053,314.1858 4.5063,320.6058 1.7343,326.8748 C-1.0377,333.1438 0.3693,343.9508 11.0213,344.9308 C21.6723,345.9098 29.0253,339.1298 37.4503,329.9528 C45.8763,320.7758 54.4833,315.0898 62.6853,300.5458 C70.8883,286.0028 83.2623,271.7968 88.0173,265.1998 C92.7733,258.6018 97.2753,251.2128 100.6723,243.4688" id="Stroke-20"></path>
                        <path d="M72.2498,180.1357 C72.2498,180.1357 64.9758,185.7217 63.4538,197.1137" id="Stroke-22"></path>
                        <path d="M88.3731,194.4446 C88.3731,194.4446 81.1201,201.8656 79.5771,211.4226" id="Stroke-24"></path>
                        <path d="M120.3909,235.1726 C120.3909,235.1726 114.8359,241.4126 113.2319,250.8476" id="Stroke-26"></path>
                        <path d="M209.5901,331.4446 C207.4791,333.3756 203.8611,331.7716 201.2031,329.2176 C197.7531,325.9046 193.0951,318.1636 192.5731,312.4386 C191.9441,305.5356 202.7301,301.8586 203.0201,303.6526" id="Stroke-28"></path>
                        <path d="M33.3,334.3233 C37.179,330.3123 45.225,327.4543 47.704,330.9063 C49.861,333.9093 51.644,335.8763 46.52,342.3553 C43.887,345.6843 41.265,347.5453 37.945,347.0933" id="Stroke-30"></path>
                        <path d="M0.744,330.1869 C0.802,327.3899 13.423,320.4039 16.471,320.2009 C20.168,319.9539 25.372,327.0949 23.772,331.6069 C22.172,336.1199 10.809,346.6339 7.09,343.9779" id="Stroke-32"></path>
                        <path d="M7.4686,253.2767 C11.0076,247.2607 17.1006,244.5367 19.7856,246.2827 C22.2366,247.8767 23.4196,249.7617 22.3516,252.6177 C21.2496,255.5637 17.5706,263.7247 14.0756,263.2767" id="Stroke-34"></path>
                        <path d="M30.9812,221.0878 C34.7922,221.4268 36.9522,227.1958 36.9522,227.1958" id="Stroke-36"></path>
                        <path d="M28.5166,225.1195 C28.5166,225.1195 29.7766,230.0165 33.8846,231.6945" id="Stroke-38"></path>
                        <path d="M34.4656,250.4612 C34.4656,250.4612 39.9596,252.6232 41.5106,256.9852" id="Stroke-40"></path>
                        <path d="M31.15,254.7764 C31.15,254.7764 33.49,261.4184 39.74,262.5084" id="Stroke-42"></path>
                        <path d="M48.5775,265.3433 C48.5775,265.3433 55.2115,267.3123 60.2935,276.2303" id="Stroke-44"></path>
                        <path d="M44.8466,270.6448 C44.8466,270.6448 47.6396,279.6628 58.0166,282.4748" id="Stroke-46"></path>
                        <path d="M19.0141,280.5486 C19.0141,280.5486 21.7161,286.2316 26.5671,287.1186" id="Stroke-48"></path>
                        <path d="M26.4355,302.4082 C26.4355,302.4082 28.0445,309.4222 33.1585,312.7882" id="Stroke-50"></path>
                        <path d="M55.371,319.5062 C55.371,319.5062 56.969,325.6032 61.527,328.4862" id="Stroke-52"></path>
                        <path d="M72.018,295.1077 C72.018,295.1077 75.649,303.4557 83.229,306.4087" id="Stroke-54"></path>
                        <path d="M75.349,291.0882 C75.349,291.0882 82.918,293.6102 85.007,301.4962" id="Stroke-56"></path>
                        <path d="M1.7253,304.2931 C1.8023,302.5111 9.0573,294.3091 13.0283,296.5041 C16.8833,298.6341 18.0413,300.9601 16.0743,305.4311 C14.1073,309.9021 10.1003,316.4601 7.6863,315.1811" id="Stroke-58"></path>
                    </g>
                </g>
                <g id="hand-2" transform="translate(390.000000, 23.000000)" sketch:type="MSShapeGroup">
                    <path d="M205.61,199.5906 C198.026,181.6166 182.894,132.0856 180.837,106.0346 C180.292,99.1156 190.797,62.0356 196.375,43.9756 C198.373,37.5146 196.121,30.5016 190.725,26.4246 C182.319,20.0526 167.768,11.2126 146.734,5.8566 C124.016,0.0776 105.683,0.1246 94.438,1.1536 C87.251,1.8086 81.403,7.1646 80.109,14.2586 C76.867,32.0596 70.255,67.4706 64.496,93.3176 C56.484,129.2176 27.415,187.6646 25.975,193.0736 C25.975,193.0736 22.288,204.0836 22.915,216.1716 C23.878,234.8626 16.644,257.9946 15.143,265.3246 C14.655,267.7356 13.677,270.2706 12.457,272.8176 C7.699,282.7156 -0.813,292.7996 0.669,296.2376 C0.918,296.8166 1.29,297.3456 1.787,297.8136 C7.366,303.2266 27.677,301.7706 43.276,279.0126 C51.103,267.5946 50.519,254.9386 50.481,254.3636 C54.825,268.1086 58.861,280.3276 60.311,284.3446 C66.777,302.2466 106.377,330.0416 112.248,333.7916 C116.816,336.7146 118.923,336.9796 124.864,335.9516 C130.794,334.9336 132.6,331.7876 132.6,331.7876 C133.22,332.3546 133.799,332.7976 134.328,333.1076 C137.415,334.8986 148.702,334.5346 157.4,332.9676 C166.108,331.4016 172.18,318.3606 171.375,310.4806 C170.421,301.0856 156.972,303.8476 156.972,303.8476 C154.295,297.4246 151.327,291.7016 147.803,283.2906 C146.098,279.2046 145.838,274.9646 146.366,273.5096 C146.366,273.5096 149.021,278.0356 152.066,279.5926 C159.525,283.4196 165.768,284.9716 175.704,278.9726 C184.99,273.3686 187.51,264.5896 186.995,261.0826 C186.333,256.5916 187.434,255.1086 187.434,255.1086 C193.679,255.6876 204.552,251.8136 210.183,244.0856 C216.74,235.0816 215.074,222.0036 205.61,199.5906" id="silo" fill="#FFFFFF"></path>
                    <g id="shadow" transform="translate(31.000000, 0.000000)" fill="#F49AC1">
                        <path d="M182.54,236.5448 C181.932,239.3678 180.807,241.8518 179.178,244.0888 C173.547,251.8168 162.674,255.6908 156.43,255.1118 C154.136,254.9438 151.981,247.2258 149.085,242.6918 C149.085,242.6918 159.188,260.3068 182.54,236.5448" id="Fill-3"></path>
                        <path d="M155.834,259.6547 C156.348,263.1617 153.985,273.3717 144.7,278.9767 C134.764,284.9747 128.521,283.4237 121.061,279.5967 C119.705,278.9037 117.798,277.6237 115.366,273.5097 C112.336,268.3847 108.856,260.3067 108.856,260.3067 C113.879,267.5957 120.957,274.0437 130.464,274.7127 C142.021,275.5247 149.072,271.5217 155.834,259.6547" id="Fill-5"></path>
                        <path d="M128.7499,312.9296 L128.7509,312.9196 C128.2319,309.7426 127.0279,306.4766 127.0279,306.4766 C126.6829,305.5786 126.3259,304.7096 125.9679,303.8516 C125.9679,303.8516 139.4159,301.0896 140.3699,310.4846 C141.1749,318.3646 135.1039,331.4046 126.3959,332.9706 C117.6969,334.5376 106.4099,334.9026 103.3229,333.1116 C102.7949,332.8016 102.2149,332.3576 101.5949,331.7906 C100.8049,331.0816 99.9589,330.1766 99.0629,329.1386 C91.0379,319.7656 79.6559,298.8956 79.6559,298.8956 L76.1589,289.0326 C74.7969,284.6416 69.7119,281.3896 72.2779,270.8896 C74.9059,286.3036 100.3309,318.2816 102.6879,320.6086 C109.1609,327.0006 127.6879,323.8586 128.7499,312.9296" id="Fill-7"></path>
                        <path d="M8.2726,216.876 C15.4236,236.924 29.3496,269.702 35.9856,282.833 C36.7826,284.817 37.7226,286.21 37.9316,286.506 C37.9496,286.527 37.9596,286.538 37.9676,286.559 C43.2776,295.632 80.7986,324.119 84.9526,325.928 C91.6876,328.859 96.3896,326.348 96.7026,326.181 C97.5986,327.219 100.8046,331.081 101.5956,331.791 C101.5956,331.791 99.7896,334.937 93.8596,335.956 C87.9186,336.983 85.8116,336.718 81.2436,333.796 C75.3726,330.045 35.7726,302.25 29.3066,284.348 C27.8566,280.331 23.8206,268.113 19.4766,254.367 C19.4766,254.357 19.4776,254.348 19.4776,254.348 C16.8426,245.992 14.0886,237.076 11.7386,229.073 C10.4296,224.645 9.2406,220.487 8.2726,216.876" id="Fill-9"></path>
                        <path d="M19.4763,254.3674 C19.5143,254.9414 20.0983,267.5984 12.2713,279.0154 C8.6773,284.2664 4.8253,288.3854 0.9633,291.5414 C11.1063,273.9974 12.2953,241.9684 11.7383,229.0724 C14.0883,237.0764 16.8423,245.9924 19.4773,254.3474 C19.4773,254.3474 19.4773,254.3574 19.4763,254.3674" id="Fill-11"></path>
                        <path d="M73.9605,0.6269 L73.9595,0.6369 C64.4435,7.3379 62.9035,23.5289 59.7255,39.8999 C53.8705,70.0519 47.5845,91.4789 41.6805,105.2329 C36.0435,118.3659 20.8555,145.3559 5.0315,170.0829 C14.6425,148.4489 28.3655,116.2779 33.4915,93.3209 C39.2505,67.4739 45.8625,32.0629 49.1045,14.2629 C50.3975,7.1689 56.2465,1.8129 63.4335,1.1569 C66.4515,0.8779 69.9765,0.6749 73.9605,0.6269" id="Fill-13"></path>
                    </g>
                    <g id="outline" stroke="#F49AC1" stroke-width="3" stroke-linecap="round" stroke-linejoin="round">
                        <path d="M110.662,298.8937 C110.662,298.8937 122.044,319.7637 130.069,329.1367 C130.965,330.1747 131.811,331.0797 132.601,331.7897 C133.221,332.3557 133.8,332.7997 134.329,333.1097 C137.416,334.9007 148.703,334.5357 157.401,332.9687 C166.11,331.4027 172.181,318.3627 171.376,310.4827 C170.422,301.0877 156.973,303.8497 156.973,303.8497" id="Stroke-16"></path>
                        <path d="M50.4822,254.3656 C54.8272,268.1106 58.8632,280.3296 60.3122,284.3466 C66.7782,302.2476 106.3782,330.0436 112.2492,333.7936 C116.8182,336.7166 118.9242,336.9816 124.8652,335.9536 C130.7962,334.9356 132.6012,331.7896 132.6012,331.7896" id="Stroke-18"></path>
                        <path d="M36.5702,203.921 C36.3532,205.239 37.4492,210.112 39.2782,216.874 C40.2462,220.485 41.4352,224.643 42.7442,229.071 C45.0942,237.075 47.8492,245.99 50.4842,254.346" id="Stroke-20"></path>
                        <path d="M12.4582,272.8197 C15.6132,274.6457 21.3432,277.7237 19.7822,283.6757 C18.2122,289.6367 6.4662,300.0637 1.7992,297.8057" id="Stroke-22"></path>
                        <path d="M107.1651,289.0311 C105.8031,284.6391 100.7181,281.3881 103.2841,270.8881 C103.4881,270.0211 103.7561,269.0981 104.0791,268.1191" id="Stroke-24"></path>
                        <path d="M68.9375,286.5039 C68.7285,286.2079 67.7885,284.8149 66.9915,282.8319 C65.9985,280.3819 65.2405,277.0479 66.4285,273.8459" id="Stroke-26"></path>
                        <path d="M142.4693,264.742 C141.0953,261.603 137.8653,260.122 138.5653,250.588" id="Stroke-28"></path>
                        <path d="M159.7566,312.9178 C159.2376,309.7408 158.0336,306.4748 158.0336,306.4748 C157.6886,305.5768 157.3316,304.7078 156.9736,303.8498 C154.2966,297.4258 151.3276,291.7038 147.8046,283.2928 C146.0996,279.2068 145.8396,274.9668 146.3676,273.5108 C146.3676,273.5108 149.0226,278.0378 152.0666,279.5948 C159.5266,283.4218 165.7696,284.9728 175.7056,278.9748 C184.9916,273.3698 187.5116,264.5908 186.9966,261.0838 C186.3336,256.5938 187.4356,255.1098 187.4356,255.1098" id="Stroke-30"></path>
                        <path d="M159.8959,316.618 C160.0629,315.567 159.9689,314.257 159.7559,312.928" id="Stroke-32"></path>
                        <path d="M36.027,170.0903 C30.609,182.2863 26.49,191.1283 25.976,193.0753 C25.976,193.0753 22.29,204.0853 22.916,216.1733 C23.879,234.8643 16.645,257.9963 15.144,265.3263 C14.656,267.7373 13.678,270.2723 12.458,272.8193 C7.7,282.7183 -0.811,292.8013 0.671,296.2393 C0.919,296.8193 1.291,297.3473 1.788,297.8153 C6.075,301.9803 19.093,302.0743 31.969,291.5393 C35.831,288.3833 39.683,284.2653 43.277,279.0143 C51.105,267.5963 50.52,254.9403 50.482,254.3653 C50.483,254.3553 50.484,254.3453 50.484,254.3453" id="Stroke-34"></path>
                        <path d="M213.5567,236.5338 C215.4267,227.9978 212.7177,216.4288 205.6117,199.5928 C198.0277,181.6188 182.8957,132.0868 180.8387,106.0368 C180.2937,99.1178 190.7987,62.0378 196.3767,43.9778 C198.3747,37.5168 196.1227,30.5028 190.7267,26.4268 C182.3207,20.0538 167.7697,11.2138 146.7357,5.8588 C130.1107,1.6298 115.8337,0.5208 104.9667,0.6248 C100.9827,0.6738 97.4577,0.8758 94.4397,1.1558 C87.2517,1.8108 81.4037,7.1668 80.1107,14.2608 C76.8677,32.0608 70.2567,67.4718 64.4977,93.3198 C59.3717,116.2758 45.6487,148.4468 36.0377,170.0808" id="Stroke-36"></path>
                        <path d="M180.0852,244.062 C180.7302,244.831 181.2752,245.613 181.7602,246.371 C184.6562,250.905 185.1422,254.942 187.4352,255.11 C193.6802,255.689 204.5532,251.815 210.1842,244.087 C211.8122,241.85 212.9372,239.366 213.5462,236.543" id="Stroke-38"></path>
                    </g>
                </g>
            </g>
        </g>
    </g>
</svg>